<svg width="591" height="380" viewBox="0 0 591 380" fill="none" xmlns="http://www.w3.org/2000/svg">
    <path d="M98 47.5L110.5 39L130 30.5M98 47.5L144.5 60.5M98 47.5L137.25 45.5M130 30.5L142.5 17M130 30.5L164 36.5M130 30.5L137.25 45.5M130 30.5L154 47.5M142.5 17L166 8M142.5 17L164 36.5M166 8L187.5 39M166 8L191 12.5M166 8L164 36.5M187.5 39L191 12.5M187.5 39V56M187.5 39L174.5 47.5M187.5 39L199.5 23M187.5 39L202 67M191 12.5L199.5 23M199.5 23L227 26.5M199.5 23L202 67M199.5 23L226 57M227 26.5L269 28M227 26.5L259.5 53M227 26.5L226 57M269 28L281.5 12.5M269 28L294.5 44.5M269 28L277 44.5M281.5 12.5L293 1M281.5 12.5L312.5 44.5M281.5 12.5L294.5 44.5M293 1L336 39M293 1L312.5 44.5M336 39L372 84M336 39L327 67M336 39L312.5 44.5M372 84L388.5 138M372 84L327 67M372 84L369.804 116.5M372 84L338.902 115.25M388.5 138L369.804 116.5M388.5 138L359 148M388.5 138L308 114M388.5 138L420.5 178M327 67H314.5M327 67L312.5 44.5M327 67L338.902 115.25M312.5 44.5H294.5M312.5 44.5L314.5 67M294.5 44.5H277M294.5 44.5L314.5 67M144.5 60.5L164 78.5M144.5 60.5L137.25 45.5M144.5 60.5L154 47.5M164 78.5L179.5 110M164 78.5L207.5 96M164 78.5L187.5 56M164 78.5L174.5 47.5M179.5 110L211 154M179.5 110L207.5 96M211 154L248 136M211 154L207.5 96M211 154L232 174.5M248 136L207.5 96M248 136L264.5 154M248 136L274 124M248 136L232 174.5M207.5 96L202 67M207.5 96L226 57M207.5 96L248 113.053M187.5 56L174.5 47.5M187.5 56L202 67M174.5 47.5L164 36.5M174.5 47.5H154M164 36.5L154 47.5M202 67L226 57M259.5 53L293.5 81.5M259.5 53L226 57M259.5 53V72M293.5 81.5L277 44.5M293.5 81.5L308 114M293.5 81.5L280.286 90M293.5 81.5L259.5 72M314.5 67L308 114M314.5 67L338.902 115.25M226 57L259.5 72M226 57L252.149 93.5M226 57L248 113.053M259.5 72L252.149 93.5M259.5 72L280.286 90M274 124L308 114M274 124L264.5 154M274 124L252.149 93.5M274 124L280.286 90M274 124L324 183.5M274 124L248 113.053M308 114L280.286 90M308 114L324 183.5M308 114L338.902 115.25M308 114L359 148M308 114L332 157.5M264.5 154L319.5 224.5M264.5 154L241 233M264.5 154L232.737 211.5M264.5 154L232 174.5M264.5 154L296.5 265M264.5 154L321.5 281.566L338.5 261.5M264.5 154L267.294 199M264.5 154L324 183.5M264.5 154L356 230M232 174.5L221 180.96M232 174.5L232.737 211.5M252.149 93.5L280.286 90M324 183.5L347.5 191M324 183.5L356 230M369.804 116.5L338.902 115.25M359 148L420.5 178M359 148L332 157.5M359 148L382.5 187.5M200.5 193L214 207.5L223.353 216.333M200.5 193L221 180.96M200.5 193L172.5 216.333M200.5 193L179.5 242.168M200.5 193V227M200.5 193L214 237.025M152.5 233L85.5 272M152.5 233L172.5 216.333M152.5 233L160.5 245M85.5 272L41 295M85.5 272L5 342M85.5 272H148.788M85.5 272L160.5 245M85.5 272L137.25 304.518M85.5 272L35 351.5M85.5 272L92.5 295M41 295L5 323.5L1 333L5 342M41 295L5 342M5 342L14 349L24 351.5H35M35 351.5L48.5 354.5M35 351.5L92.5 295M48.5 354.5L44.5 363.5L75 347M48.5 354.5L92.5 295M75 347L63 368.5L76.5 361M75 347L137.25 304.518M75 347L92.5 295M76.5 361V368.5V378.5L100.5 363.5L113 354.5M76.5 361L137.25 304.518M113 354.5L107 366.5L100.5 378.5H111M113 354.5L137.25 304.518M111 378.5L139 366.5M111 378.5L137.25 304.518M139 366.5L148.788 272M139 366.5L179.5 242.168M139 366.5L165.75 354.25M185.949 345L214 237.025M185.949 345L179.5 242.168M185.949 345L215.5 331.75M185.949 345L165.75 354.25M185.949 345L200.5 227M238.5 321.5L274 307M238.5 321.5L241 233M238.5 321.5L214 237.025M238.5 321.5L215.5 331.75M274 307L308 297.5M274 307L241 233M274 307L270.5 256M274 307L296.5 265M308 297.5L338.5 261.5M308 297.5L296.5 265M338.5 261.5L356 230M338.5 261.5L319.5 224.5M356 230L382.5 246M356 230L347.5 191M356 230L382.5 187.5M356 230L319.5 224.5M382.5 246L400 270.329M382.5 246V187.5M423.5 303L414.5 211.5M423.5 303L436.042 324.5M423.5 303L400 270.329M448 345H461L473.5 341.5M448 345L442.346 241M448 345L436.042 324.5M486 338L489.5 324.5L497 315L494 307L495 299M486 338L442.346 241M486 338L473.5 341.5M495 299L506 305L513.5 311L522 303L529 290M495 299L465 265L442.346 241M529 290V273L522 249M529 290L478.5 241M529 290L442.346 241M522 249L519 231.5L507.5 222L482.5 196.5M522 249L420.5 178M522 249L417.5 194.75M522 249L482.5 196.5M522 249L478.5 241M482.5 196.5L475 180L455.5 178H420.5M482.5 196.5L420.5 178M420.5 178L417.5 194.75M420.5 178L382.5 187.5M382.5 187.5L347.5 191M382.5 187.5L414.5 211.5M382.5 187.5L400 270.329M382.5 187.5L409.57 231.5M382.5 187.5L332 157.5M347.5 191L332 157.5M241 233L232.737 211.5M241 233L267.294 199M241 233L214 237.025M241 233L223.353 216.333M241 233L270.5 256M221 180.96L232.737 211.5M414.5 211.5L417.5 194.75M414.5 211.5L478.5 241M414.5 211.5L442.346 241M414.5 211.5L436.042 324.5M414.5 211.5L409.57 231.5M442.346 241L473.5 341.5M400 270.329L409.57 231.5M267.294 199L270.5 256M160.5 245L172.5 216.333M160.5 245L179.5 242.168M160.5 245L148.788 272M172.5 216.333L179.5 242.168M179.5 242.168L200.5 227M179.5 242.168L165.75 354.25M148.788 272L137.25 304.518M200.5 227L214 237.025M214 237.025L215.5 331.75M214 237.025L223.353 216.333M137.25 304.518L92.5 295" stroke="#111429"/>
    <path d="M267 200L241.5 233L270 255L267 200Z" fill="#F2E5C4"/>
    <path d="M208 96L226 58L236.5 85L247.5 112.5L208 96Z" fill="#55469B"/>
    <path d="M148.5 272.5H87L137 303.5L148.5 272.5Z" fill="#55469B"/>
    <path d="M308 114.5L274.5 124L299 153.5L323.5 182L315.5 148L308 114.5Z" fill="#153132"/>
    <path d="M312.5 45H295L299.5 50L304 55L314 66L312.5 45Z" fill="#F2E5C4"/>
    <path d="M382.5 187L360 149L419.5 178L382.5 187Z" fill="#F2E5C4"/>
    <path d="M296.5 266L274.5 306.5L291 302L307.5 297.5L296.5 266Z" fill="#153132"/>
    <path d="M355.5 230.5L320.5 225L338.5 260.5L355.5 230.5Z" fill="#55469B"/>
    <path d="M547.723 177.672L509.571 159.954L550.754 152.851L547.723 177.672Z" stroke="#111429"/>
    <path d="M590.013 209.092C582.597 213.51 567.011 221.307 565.312 222.236L589.055 230.201L590.013 209.092Z" fill="#F2E5C4"/>
    <path d="M559.904 79.4208L539.628 103.444L576.168 96.9158L559.904 79.4208Z" fill="#153132"/>
    <path d="M492.148 70.8047L456 68.8818L487.386 97.8956L492.148 70.8047Z" fill="#55469B"/>
</svg>