<svg width="160" height="48" viewBox="0 0 160 48" fill="none" xmlns="http://www.w3.org/2000/svg">
    <g clip-path="url(#clip0)">
        <path d="M58.7935 22.2215V5.80664H63.4486V18.1326H68.9084V22.1622L58.7935 22.2215Z" fill="#F7F6F2"/>
        <path d="M73.2764 5.74805H83.9085V9.77768H77.8741V11.9703H83.0465V15.7629H77.8741V18.1925H84.3108V22.2221H73.2764V5.74805Z" fill="#F7F6F2"/>
        <path d="M98.7943 5.74805H103.909L95.5759 22.3999H95.346L87.0127 5.74805H92.1276L94.0817 10.074C94.5989 11.1999 95.0587 12.3258 95.4035 13.4517H95.461C95.8058 12.2666 96.2656 11.1406 96.8403 10.074L98.7943 5.74805Z" fill="#F7F6F2"/>
        <path d="M112.128 22.2215H107.53V5.80664H112.128V22.2215Z" fill="#F7F6F2"/>
        <path d="M129.137 5.74805V9.77768H125.057V22.2221H120.402V9.77768H116.321V5.74805H129.137Z" fill="#F7F6F2"/>
        <path d="M133.391 5.74805H144.081V9.77768H138.046V11.9703H143.219V15.7629H138.046V18.1925H144.426V22.2221H133.391V5.74805Z" fill="#F7F6F2"/>
        <path d="M148.966 5.74805H159.656V9.77768H153.621V11.9703H158.794V15.7629H153.621V18.1925H160.001V22.2221H148.966V5.74805Z" fill="#F7F6F2"/>
        <path d="M59.6548 41.9558V25.541H61.3214V40.5336H68.3904V42.0151L59.6548 41.9558Z" fill="#F7F6F2"/>
        <path d="M78.7922 25.2441L86.091 41.9553H84.3094L82.5853 37.9849H74.9991L73.3324 41.9553H71.5508L78.7922 25.2441ZM82.0106 36.5627C80.8611 33.8367 79.8841 31.4664 78.8496 28.9182C77.8152 31.4664 76.8381 33.896 75.6887 36.5627H82.0106Z" fill="#F7F6F2"/>
        <path d="M101.609 37.3929C101.609 40.1781 99.4821 41.9558 96.5511 41.9558H91.0913V25.541H95.9764C99.0223 25.541 100.976 27.3188 100.976 29.9855C101.034 31.4077 100.229 32.7114 98.9649 33.3632C100.574 34.0151 101.609 35.6151 101.609 37.3929ZM97.3557 32.8299C98.5051 32.4744 99.3097 31.3484 99.1947 30.0447C99.1947 28.1484 97.9879 26.904 95.9764 26.904H92.7005V32.7706L97.3557 32.8299ZM92.7005 40.5336H96.4936C98.4476 40.5336 99.8844 39.2892 99.8844 37.3336C99.9993 35.7336 98.7924 34.3114 97.2407 34.1929C97.1833 34.1929 97.0683 34.1929 97.0108 34.1929H92.7005V40.5336Z" fill="#F7F6F2"/>
        <path d="M106.952 41.2441V39.5256C108.332 40.2367 109.826 40.6515 111.378 40.6515C113.447 40.6515 115.056 39.7034 115.056 38.0441C115.056 36.3849 114.194 35.496 111.378 34.4293C108.217 33.2441 106.895 31.8812 106.895 29.5108C106.895 26.7849 109.194 25.2441 112.01 25.2441C113.332 25.2441 114.654 25.5404 115.861 26.0738V27.733C114.654 27.1404 113.389 26.8441 112.067 26.7849C110.056 26.7849 108.562 27.7923 108.562 29.3923C108.562 30.9923 109.309 31.8812 112.182 32.9478C115.343 34.133 116.723 35.4367 116.723 37.8071C116.723 40.533 114.596 42.133 111.493 42.133C109.941 42.2515 108.389 41.896 106.952 41.2441Z" fill="#F7F6F2"/>
        <path d="M3.90805 13.5704L13.9655 19.3185C13.9655 19.2593 14.023 19.2593 14.023 19.2L14.0805 19.0815C14.1379 18.963 14.1954 18.8444 14.3103 18.7259C14.3678 18.6667 14.3678 18.6074 14.4253 18.4889L4.31035 12.5037C4.25287 12.6222 4.25287 12.6815 4.1954 12.8L3.10345 12.1481C3.04598 12.3259 2.93103 12.4444 2.81609 12.6222L4.02299 13.2741C3.96552 13.3926 3.96552 13.4519 3.90805 13.5704ZM3.21839 16.4741L13.4483 20.6222L13.5057 20.3852C13.5632 20.2667 13.6207 20.0889 13.6782 19.9704C13.7356 19.8519 13.7356 19.7926 13.7931 19.7333L3.44828 15.3481C3.44828 15.4667 3.39081 15.5259 3.39081 15.6444L1.72414 14.9333C1.66667 15.1111 1.6092 15.2889 1.55172 15.4074L3.27586 16.1185C3.27586 16.237 3.27586 16.3556 3.21839 16.4741ZM5.05747 10.7852L14.7126 18.1333C14.7701 18.0741 14.8276 18.0148 14.8851 17.9556L14.9425 17.8963L15.1724 17.6C15.2299 17.5407 15.2874 17.4815 15.3448 17.363L5.51724 9.77778L5.34483 10.0148L4.71264 9.54074L4.42529 9.95555L5.17241 10.4889C5.11494 10.6074 5.05747 10.6667 5.05747 10.7852ZM18.7356 14.5185C18.7931 14.4593 18.8506 14.4593 18.9655 14.4L19.3678 14.2222L19.5977 14.163L14.5402 1.8963L14.4828 1.77778L13.5057 2.19259L13.5632 2.37037L18.7356 14.5185ZM6.55172 8.11852L15.5172 17.0074C15.5747 16.9481 15.6322 16.8889 15.6897 16.8296C15.8046 16.7111 15.8621 16.5926 15.977 16.5333L16.1494 16.4148L7.18391 7.22963L7.01149 7.46667L6.72414 7.22963C6.6092 7.34815 6.49425 7.46667 6.37931 7.58519L6.66667 7.88148L6.55172 8.11852ZM2.93103 19.3778L13.1034 21.9259C13.1034 21.8667 13.1609 21.7481 13.1609 21.6889C13.1609 21.5704 13.2184 21.4519 13.2759 21.2741C13.2759 21.2741 13.2759 21.2741 13.2759 21.2148C13.2759 21.1556 13.3333 21.037 13.3333 20.9778L2.98851 18.1926C2.98851 18.3111 2.98851 18.3704 2.98851 18.4889L0.804598 17.8963C0.747126 18.0741 0.689655 18.2519 0.689655 18.4296L2.98851 19.0222L2.93103 19.3778ZM13.5057 38.4593L17.4713 32.8889C17.4138 32.8296 17.3563 32.7704 17.2989 32.7111C17.2414 32.6519 17.069 32.5333 16.954 32.4148L16.6667 32.2963L12.5287 37.8667C12.5862 37.9259 12.7012 37.9852 12.7586 38.0444L9.08046 43.1407L9.48276 43.437L13.1609 38.3407L13.5057 38.4593ZM17.5287 15.1704L17.7586 15.0519L18.1035 14.8148L18.3333 14.6963L11.8391 3.25926L11.7816 3.14074L10.8621 3.73333L10.9195 3.85185L17.5287 15.1704ZM8.10345 34.0148L14.5977 29.9259C14.5402 29.8667 14.5402 29.8074 14.4828 29.6889C14.4253 29.5704 14.3103 29.4519 14.2529 29.2741L14.1379 29.037L7.41379 33.0667C7.47126 33.1259 7.52874 33.2444 7.58621 33.3037L3.16092 36.0296L3.44828 36.5037L7.93104 33.7778L8.10345 34.0148ZM6.6092 32.0593L13.9655 28.7407L13.8506 28.4444L13.6782 28.0296C13.6207 27.9704 13.6207 27.8519 13.6207 27.7926L6.03448 31.0519L6.2069 31.2889L1.83908 33.2444C1.89655 33.4222 1.95402 33.5407 2.06897 33.7185L6.49425 31.763L6.6092 32.0593ZM2.98851 22.163L12.931 23.2889C12.931 23.2296 12.931 23.1111 12.931 23.0519C12.931 22.9333 12.9885 22.7556 12.9885 22.5778L13.046 22.3407L2.98851 21.037C2.98851 21.1556 2.98851 21.2148 2.98851 21.3333L0.229885 20.9778C0.229885 21.1556 0.172414 21.3333 0.172414 21.5111L3.04598 21.8667C2.98851 21.9852 2.98851 22.0444 2.98851 22.163ZM9.77012 35.7333L15.4023 31.0519L15.2299 30.8148C15.1149 30.6963 15.0575 30.5778 14.9425 30.4593L14.8276 30.2222L8.96552 34.963L9.1954 35.1407L4.88506 38.637C4.94253 38.8148 5.05747 38.9926 5.17241 39.1111L9.5977 35.5556L9.77012 35.7333ZM3.50575 24.8889L12.9885 24.7111V24.4741C12.9885 24.3556 12.9885 24.237 12.9885 24.1185C12.9885 24 12.9885 23.8815 12.9885 23.763H3.27586C3.27586 23.8815 3.27586 23.9407 3.33333 24.0593L0 24.1185C0 24.2963 0 24.4741 0 24.6519L3.39081 24.5926C3.44828 24.7111 3.44828 24.7704 3.50575 24.8889ZM5.28736 29.8667L13.4483 27.437C13.4483 27.3778 13.3908 27.2593 13.3908 27.2C13.3333 27.0815 13.3333 26.9037 13.2759 26.7852C13.2759 26.7259 13.2184 26.6074 13.2184 26.5481L4.82759 28.9185C4.88506 29.037 4.88506 29.0963 4.94253 29.2148L0.804598 30.4C0.862069 30.5778 0.862069 30.7556 0.91954 30.9333L5.17241 29.6296C5.22989 29.6889 5.22989 29.7481 5.28736 29.8667ZM4.25287 27.4963L13.1034 26.0741L13.046 25.837C13.046 25.7778 13.046 25.7185 13.046 25.6593C13.046 25.6 13.046 25.4815 12.9885 25.363L12.931 25.1259L3.85057 26.3704C3.85057 26.4889 3.90805 26.5481 3.96552 26.6667L0.229885 27.2593C0.229885 27.437 0.287356 27.6148 0.287356 27.7926L4.13793 27.2L4.25287 27.4963ZM16.4943 16L16.6667 15.8222C16.7816 15.7037 16.8966 15.6444 17.0115 15.5852L17.1839 15.4074L9.31035 4.97778L9.25287 4.91852L8.7931 5.33333L8.62069 5.45185V5.51111C8.56322 5.57037 8.50575 5.62963 8.44828 5.74815L16.4943 16ZM43.3908 17.6L33.046 20.7407C33.046 20.8 33.1035 20.9185 33.1035 20.9778V21.037C33.1609 21.1556 33.1609 21.2741 33.2184 21.4519C33.2759 21.6296 33.2759 21.6296 33.2759 21.6889L43.5057 18.7852C43.5057 18.6667 43.5057 18.6074 43.5057 18.4889L45.6897 17.837C45.6322 17.6593 45.6322 17.4815 45.5747 17.3037L43.5057 17.8963C43.3908 17.837 43.3908 17.7185 43.3908 17.6ZM42.8736 14.7556L32.5287 19.437L32.6437 19.6741C32.7012 19.7926 32.7586 19.9704 32.8161 20.0889C32.8736 20.1481 32.8736 20.2667 32.931 20.3259L43.1035 15.8815C43.1035 15.763 43.046 15.7037 43.046 15.5852L44.6552 14.8741C44.5977 14.6963 44.5402 14.5778 44.4253 14.4L42.8736 15.0519V14.7556ZM20 13.9852L20.2299 13.9259C20.3448 13.8667 20.5172 13.8667 20.6322 13.8074L20.8621 13.7481L17.4138 0.948148L17.3563 0.77037L16.3218 1.06667L16.3793 1.18519L20 13.9852ZM31.2069 17.3037C31.3218 17.4222 31.3793 17.5407 31.4943 17.6593L31.6667 17.837L41.2069 10.1926L41.092 9.8963L41.6667 9.42222C41.5517 9.3037 41.4943 9.12593 41.3793 9.00741L40.8046 9.48148L40.6322 9.24444L31.0345 17.1259C31.092 17.1852 31.1494 17.2444 31.2069 17.3037ZM30.2299 16.2963C30.3448 16.4148 30.4598 16.4741 30.5747 16.5926L30.7471 16.7704L39.5402 7.58519L39.3678 7.34815L39.5977 7.11111C39.4828 6.99259 39.3678 6.87407 39.1954 6.75556L39.023 6.93333C38.9655 6.87407 38.908 6.75556 38.8506 6.6963L30.0575 16.1185L30.2299 16.2963ZM43.5057 20.5037L33.3333 22.0444C33.3333 22.1037 33.3333 22.2222 33.3908 22.2815C33.4483 22.3407 33.4483 22.5778 33.4483 22.7556C33.4483 22.9333 33.4483 22.9333 33.5057 22.9926L43.4483 21.5704C43.4483 21.4519 43.4483 21.3926 43.4483 21.2741L46.2069 20.8593C46.2069 20.6815 46.1494 20.5037 46.1494 20.3259L43.5057 20.7407C43.5057 20.6815 43.5057 20.563 43.5057 20.5037ZM28.046 14.6963L28.4483 14.9333L28.6782 15.0519L35 3.4963L35.0575 3.37778L34.1379 2.84444L34.0805 2.96296L27.8736 14.5778L28.046 14.6963ZM43.2759 23.2296L33.5057 23.4667C33.5057 23.5259 33.5057 23.6444 33.5057 23.7037V23.763C33.5057 23.8815 33.5057 23.9407 33.5057 24.0593C33.5057 24.1778 33.5057 24.1185 33.5057 24.1185C33.5057 24.1185 33.5057 24.2963 33.5057 24.3556H43.1035C43.1035 24.237 43.1609 24.1778 43.1609 24.0593L46.4368 24C46.4368 23.8222 46.4368 23.6444 46.4368 23.4667L43.2184 23.5259C43.2184 23.4667 43.2759 23.3481 43.2759 23.2296ZM31.954 18.4296C32.0115 18.4889 32.069 18.6074 32.1264 18.7259C32.1264 18.7852 32.1839 18.7852 32.1839 18.8444C32.2414 18.9037 32.2989 18.963 32.2989 19.0815L42.2989 13.037L42.1839 12.7407L43.2759 12.0889L42.9885 11.6148L42.0115 12.2074C41.954 12.1481 41.954 12.0296 41.8966 11.9111L31.8391 18.2519C31.8966 18.3111 31.8966 18.3704 31.954 18.4296ZM21.2644 13.6296L21.4943 13.5704L21.8391 13.5111H21.8966L22.1264 13.4519L20.4023 0.296296V0.177778L19.3103 0.355556V0.533333L21.2644 13.6296ZM29.1954 15.4074C29.3103 15.4667 29.4253 15.5852 29.5402 15.7037L29.7126 15.8815L37.5287 5.27407V5.21482C37.2989 4.97778 37.0115 4.74074 36.7241 4.44444L36.6092 4.56296L28.9655 15.2296C29.0805 15.2889 29.1379 15.3481 29.1954 15.4074ZM24.8851 13.5704L26.4943 0.414815V0.237037L25.4598 0.118519V0.237037L24.023 13.4519H24.2529L24.7126 13.5111L24.8851 13.5704ZM25.5172 13.6889L25.7471 13.7481L25.9195 13.8074C25.977 13.8074 26.092 13.8667 26.1494 13.8667L29.3678 1.00741L29.4253 0.82963L28.4483 0.592593L28.3908 0.711111L25.2874 13.6296L25.5172 13.6889ZM26.8391 14.1037C26.954 14.163 27.1264 14.2222 27.2414 14.2815L27.4713 14.4L32.3563 2.07407L32.4138 1.95556L31.4368 1.54074L31.3793 1.71852L26.6667 14.1037H26.8391ZM11.5517 37.2148L16.3793 32L16.2069 31.8222C16.092 31.7037 15.977 31.6444 15.9195 31.5259L15.7471 31.3481L10.7471 36.5037C10.8046 36.563 10.9195 36.6222 10.977 36.6815L6.89655 41.0074C7.01149 41.1259 7.12644 41.2444 7.24138 41.363L11.3793 36.9778L11.5517 37.2148ZM30.2874 39.7037L27.7012 33.6593L27.4713 33.7778C27.3563 33.837 27.1839 33.8963 27.069 33.9556C27.0115 34.0148 26.8966 34.0148 26.8391 34.0741L29.3103 40.0593L29.5977 39.9407L32.1839 46.163L32.6437 45.9259L30.0575 39.763L30.2874 39.7037ZM34.2529 37.6296L29.9425 32.1185L29.7701 32.2963L29.6552 32.3556C29.5977 32.4148 29.4828 32.4741 29.4253 32.5333L29.2529 32.6519L33.3333 38.163L33.5632 37.9852L37.3563 42.963L37.7586 42.6667L33.9655 37.7481C34.0805 37.7481 34.1954 37.6889 34.2529 37.6296ZM32.2989 38.7556L28.8506 32.9481L28.6207 33.0667L28.3908 33.1852C28.3333 33.2444 28.2759 33.2444 28.2184 33.3037C28.1609 33.363 28.1035 33.4222 27.9885 33.4222L31.2644 39.2296L31.6092 39.1111L34.8851 44.7407L35.3448 44.4444L32.1264 38.8148L32.2989 38.7556ZM28.2184 40.3556L26.4368 34.1926L26.2069 34.2519L25.8046 34.3704L25.5747 34.4296L27.1839 40.5926L27.4713 40.5333L29.3103 47.1704L29.8276 47.0519L27.9885 40.4148L28.2184 40.3556ZM26.092 40.7704L25.1149 34.5481L24.8851 34.6074H24.7126L24.4828 34.6667L24.2529 34.7259L25.0575 40.8889H25.3448L26.3218 47.763L26.8391 47.7037L25.8621 40.7704H26.092ZM23.7931 34.6667H23.5632C23.4483 34.6667 23.3333 34.6667 23.2184 34.6667H22.8736V40.9481C22.9885 40.9481 23.046 40.9481 23.1609 40.9481L23.2759 48C23.4483 48 23.6207 48 23.7931 48L23.6782 41.0074H23.9655L23.7931 34.6667ZM37.8161 34.6074L31.7816 30.0444C31.7241 30.1037 31.6667 30.163 31.6667 30.2222C31.6667 30.2815 31.4943 30.4593 31.3793 30.5778C31.2644 30.6963 31.2644 30.6963 31.2069 30.7556L37.0115 35.3185L37.2414 35.1407L41.6667 38.5778C41.7816 38.4593 41.8966 38.2815 41.954 38.163L37.5862 34.7852C37.7012 34.7852 37.7586 34.6667 37.8161 34.6074ZM41.8391 28.3852L33.3333 26.2519C33.3333 26.3111 33.2759 26.4296 33.2759 26.4889C33.2759 26.5481 33.2184 26.7259 33.2184 26.8444V26.963C33.2184 27.0222 33.1609 27.1407 33.1609 27.2L41.3793 29.3926C41.4368 29.2741 41.4943 29.2148 41.4943 29.0963L45.6322 30.163C45.6897 29.9852 45.7471 29.8074 45.7471 29.6296L41.7241 28.563C41.7816 28.563 41.8391 28.4444 41.8391 28.3852ZM42.7012 25.8963L33.5057 24.8296C33.5057 24.9481 33.5057 25.0074 33.5057 25.0667C33.5057 25.1259 33.4483 25.363 33.4483 25.5407C33.4483 25.7185 33.4483 25.7185 33.3908 25.7778L42.3563 26.963C42.3563 26.8444 42.4138 26.7852 42.4713 26.6667L46.2069 27.1407C46.2069 26.963 46.2644 26.7852 46.2644 26.6074L42.5862 26.1333C42.6437 26.0741 42.7012 25.9556 42.7012 25.8963ZM22.2414 34.6667C22.1264 34.6667 21.954 34.6074 21.7816 34.6074L21.5517 34.5481L20.7471 40.8296L21.0345 40.8889L20.2299 47.8222C20.4023 47.8222 20.5747 47.8815 20.7471 47.8815L21.5517 40.8889H21.8391L22.4713 34.6667H22.2414ZM40.6897 30.6963L32.931 27.6148C32.931 27.6741 32.8736 27.7926 32.8736 27.8519V27.9111C32.8161 28.0296 32.8161 28.1481 32.7586 28.2667C32.7012 28.3852 32.7012 28.3852 32.6437 28.5037L40.1724 31.7037C40.2299 31.6444 40.2874 31.5259 40.3448 31.4667L44.7127 33.3037C44.7701 33.1259 44.8276 33.0074 44.8851 32.8296L40.5747 31.0519L40.6897 30.6963ZM39.3678 32.7704L32.4713 28.8593C32.4138 28.9185 32.4138 29.037 32.3563 29.0963C32.2989 29.1556 32.2414 29.3333 32.1264 29.4519L32.0115 29.6889L38.6782 33.6593L38.8506 33.4222L43.3333 36.0296C43.4483 35.8519 43.5058 35.7333 43.6207 35.5556L39.1954 33.0074C39.2529 32.8889 39.3103 32.8296 39.3678 32.7704ZM36.092 36.2074L30.9195 31.1111L30.7471 31.2889C30.6322 31.4074 30.5747 31.5259 30.4598 31.6444L30.2874 31.8222L35.2299 36.9185L35.4598 36.7407L39.6552 40.9481C39.7701 40.8296 39.8851 40.7111 40 40.5333L35.8621 36.3852C35.9195 36.3259 36.0345 36.3259 36.092 36.2074ZM17.5862 40.1778L19.8276 34.1333L19.5977 34.0148C19.4828 33.9556 19.3103 33.8963 19.1954 33.8963C19.0805 33.8963 19.023 33.7778 18.9655 33.7778L16.5517 39.8222L16.8391 39.9407L14.3678 46.2222C14.5402 46.2815 14.7126 46.3407 14.8276 46.4L17.2989 40.0593L17.5862 40.1778ZM20.8621 34.4296C20.8046 34.4296 20.7471 34.3704 20.6897 34.3704L20.4598 34.3111L20.2299 34.2519L18.6207 40.4148C18.7356 40.4148 18.7931 40.4741 18.908 40.4741L17.2414 47.1704L17.7586 47.2889L19.4253 40.5926L19.7126 40.6519L21.1494 34.4889L20.8621 34.4296ZM15.5172 39.4074L18.6207 33.5407L18.3908 33.4815C18.2759 33.4222 18.1609 33.363 17.9885 33.2444L17.8161 33.1259L14.5402 38.9926L14.8276 39.1111L11.7241 44.8593C11.8966 44.9778 12.0115 45.037 12.1839 45.1556L15.3448 39.3481L15.5172 39.4074ZM23.2759 13.4519H23.5632L23.4483 0.118519V0H22.3563V0.177778L22.5862 13.4519H22.8161C22.931 13.4519 23.046 13.4519 23.1609 13.4519H23.2759Z" fill="url(#paint0_linear)"/>
    </g>
    <defs>
        <linearGradient id="paint0_linear" x1="23" y1="4" x2="23.2186" y2="48" gradientUnits="userSpaceOnUse">
            <stop stop-color="#392D69"/>
            <stop offset="1" stop-color="#C6D1DF"/>
        </linearGradient>
        <clipPath id="clip0">
            <rect width="160" height="48" fill="white"/>
        </clipPath>
    </defs>
</svg>