<svg width="474" height="575" viewBox="0 0 474 575" fill="none" xmlns="http://www.w3.org/2000/svg">
    <path opacity="0.8" fill-rule="evenodd" clip-rule="evenodd" d="M209.535 59.3871L209.471 59.3838L209.409 59.3964L152.052 71.0622L151.987 71.0756L151.927 71.1059L105.749 94.4375L105.706 94.4596L105.667 94.4896L85.7382 110.044L85.6858 110.085L85.6459 110.138L72.5219 127.637L72.4992 127.667L72.4814 127.7L58.3852 153.948L58.3641 153.988L58.3503 154.03L44.2541 197.291L44.2442 197.321L44.2383 197.353L40.8357 215.337L40.827 215.383V215.43V229.526V229.579L40.8381 229.631L42.2963 236.436L42.3069 236.486L42.3273 236.532L46.3448 245.703L47.6284 255.294L46.3452 266.9L39.9248 278.365L29.2549 295.339L15.6726 311.832L6.44495 322.031L6.42705 322.051L6.41135 322.073L2.52275 327.419L2.45874 327.507L2.4371 327.614L0.978878 334.803L0.956543 334.913L0.983457 335.022L2.92776 342.902L2.97096 343.077L3.116 343.184L14.2957 351.447L14.3281 351.471L14.3639 351.49L22.3842 355.621L30.1814 359.638L31.0871 365.072L25.7912 376.598L22.8879 382.917L22.8528 382.994L22.8446 383.077L22.3693 387.938L22.3532 388.102L22.4377 388.243L25.3435 393.104L25.384 393.172L25.4434 393.224L32.7563 399.623L29.3612 402.169L29.2887 402.223L29.2399 402.3L25.8242 407.647L25.7857 407.707L25.7657 407.775L23.3484 416.039L23.7808 416.165H23.5499L23.8563 416.866L27.2589 424.643L27.3053 424.749L26.9301 424.899L27.4804 425.149L27.6867 425.621L27.8406 425.313L27.9961 425.384L38.6072 430.207L45.7087 437.308L47.1401 451.146L43.27 468.078L43.2574 468.133V468.189V481.313V481.409L43.2932 481.499L47.1818 491.22L47.245 491.378L47.3916 491.465L58.0853 497.784L58.2029 497.854H58.3396H86.532H86.5614L86.5907 497.85L131.796 492.503L131.831 492.499L131.865 492.49L162.911 484.243H184.016L198.387 499.572L209.521 527.165L222.151 572.828L222.605 574.471L223.11 572.843L235.857 531.771L246.972 554.927L247.434 555.89L247.878 554.918L260.516 527.212L260.568 527.097L260.559 526.971L257.159 476.443L258.614 427.455L268.759 399.917L289.108 377.63L289.688 376.995L288.849 376.806L228.233 363.072L275.795 344.707L276.828 344.308L275.846 343.797L228.7 319.262L251.244 284.726L251.247 284.721L280.898 238.058L281.087 237.76L280.87 237.482L239.363 184.392L274.48 154.566L274.557 154.501L274.602 154.412L300.512 103.553L344.258 154.511L344.522 154.818L344.877 154.624L382.305 134.209L382.808 133.934L382.467 133.473L357.678 99.9334L357.603 99.832L357.489 99.7783L306.937 75.9606L306.899 75.9427L306.858 75.9313L256.306 61.8352L256.253 61.8203L256.198 61.8175L209.535 59.3871ZM48.5696 254.788L47.4636 246.524L61.3793 254.788H48.5696ZM48.7799 255.788H62.4085L53.6158 274.253L48.7799 255.788ZM48.3324 258.027L52.2657 273.045L47.5726 266.186L47.4501 266.007L48.3324 258.027ZM41.337 277.89L47.2024 267.416L52.6488 275.376L41.337 277.89ZM40.8965 279.012L51.9704 276.551L41.7168 287.215L40.8965 279.012ZM31.5497 308.55L41.2478 289.594L46.9785 305.464L31.5497 308.55ZM52.7785 287.927L47.6143 304.28L42.0197 288.788L52.7785 287.927ZM52.9789 286.908L42.601 287.738L52.9789 276.945V286.908ZM53.9789 286.417V276.148L71.9495 274.008L53.9789 286.417ZM54.5424 287.243L72.4184 274.9L68.5962 281.78L68.5683 281.83L68.5525 281.885L65.7862 291.567L54.5424 287.243ZM53.7956 288.027L65.0853 292.369L48.5849 304.527L53.7956 288.027ZM39.3391 332.864L46.9379 306.492L31.2933 309.621L39.3391 332.864ZM40.0579 289.724L31.0044 307.42L30.1814 295.897L40.0579 289.724ZM29.2517 296.916L30.1033 308.839L17.3293 311.394L29.2517 296.916ZM7.70011 322.134L15.805 313.176L19.2175 325.974L7.70011 322.134ZM7.00483 322.957L17.3074 326.391L3.9522 327.154L7.00483 322.957ZM17.2168 327.398L3.34051 328.191L2.15111 334.054L17.2168 327.398ZM3.75207 342.068L2.16721 335.645L11.2801 338.502L3.75207 342.068ZM13.9142 349.922L12.2564 339.146L4.38204 342.876L13.9142 349.922ZM22.1611 354.381L15.4716 350.935L22.7692 344.48L22.3678 351.014L22.1611 354.381ZM23.366 351.076L23.7883 344.2L29.812 348.185L23.1859 354.008L23.366 351.076ZM24.1618 343.248L30.6254 347.524L34.5701 344.763L27.2902 340.48L24.1618 343.248ZM38.9325 335.263L35.2549 344.005L28.3263 339.93L38.9325 335.263ZM15.2325 338.163L26.5572 339.296L25.4247 335.143L15.2325 338.163ZM13.7722 337.553L24.9413 334.243L19.9773 327.625L13.7722 337.553ZM26.1726 334.219L21.4096 327.868L38.0913 334.541L27.5606 339.174L26.255 334.387L26.2299 334.295L26.1726 334.219ZM36.5993 343.388L39.7175 335.976L42.1006 339.721L36.5993 343.388ZM43.5913 346.013L42.4505 340.69L36.7464 344.492L43.5913 346.013ZM38.2647 351.385L35.3061 345.468L31.6078 348.057L38.2647 351.385ZM31.1334 348.938L38.4495 352.596L31.1334 358.286V348.938ZM30.1334 349.234V358.488L23.4942 355.068L30.1334 349.234ZM37.509 354.594L31.1756 359.52L31.8793 363.742L37.509 354.594ZM30.1733 376.307L30.8707 367.938L27.0255 376.307H30.1733ZM24.7617 381.234L26.5661 377.307H29.293L24.7617 381.234ZM24.255 382.997L30.0035 378.015L29.237 385.296L24.255 382.997ZM23.7714 383.875L28.2292 385.932L23.4361 387.304L23.7714 383.875ZM25.7629 391.857L23.6298 388.289L28.6175 386.861L25.7629 391.857ZM34.5415 387.924L30.1948 385.75L30.9192 378.868L34.5415 387.924ZM35.66 388.027L31.4321 377.458L43.2701 379.572L35.66 388.027ZM36.1612 388.965L43.5162 380.793L41.4731 395.094L36.1612 388.965ZM35.9423 390.24L40.9801 396.052L34.2233 398.835L35.9423 390.24ZM30.4542 386.998L33.464 397.532L35.0038 389.833L35.713 389.975L35.1815 389.362L30.4542 386.998ZM29.5065 387.321L32.6034 398.16L26.4096 392.741L29.5065 387.321ZM33.0498 403.704V400.653L30.6085 402.484L33.0498 403.704ZM32.3999 404.497L29.8402 403.218L27.5919 406.737L32.3999 404.497ZM24.3534 416.165L26.4087 409.139L30.7129 416.165H24.3534ZM27.7471 423.264L30.7965 417.165H25.0789L27.7471 423.264ZM34.7118 421.786L31.6849 417.624L28.327 424.34L34.7118 421.786ZM51.4244 426.653L36.7677 421.899L42.7096 418.73L51.4244 426.653ZM32.9532 416.337L42.6802 417.605L50.7998 412.847L42.8437 409.456L32.9532 416.337ZM43.6248 418.211L51.4924 413.6L52.8458 426.594L43.6248 418.211ZM36.3981 422.831L51.2282 427.641L39.2038 429.244L36.3981 422.831ZM35.2302 422.656L37.9155 428.794L29.4759 424.958L35.2302 422.656ZM52.3218 428.504L39.9657 430.151L46.1437 436.329L52.3218 428.504ZM47.8507 448.296L46.706 437.231L52.4294 429.981L47.8507 448.296ZM44.4486 467.409L47.8713 452.435L55.1444 463.558L44.4486 467.409ZM63.4199 473.291L56.5757 463.881L67.2697 454.042L63.4199 473.291ZM64.3848 473.566L68.3993 453.494L82.673 463.753L64.3848 473.566ZM130.823 490.892L84.778 463.916L117.335 451.823L130.823 490.892ZM132.058 491.404L118.628 452.504L161.696 483.532L132.058 491.404ZM183.967 483.243H164.199L210.923 443.258L183.967 483.243ZM185.3 483.055L212.731 442.366L209.53 478.941L185.3 483.055ZM221.809 493.995L210.51 479.219L213.552 444.452L221.809 493.995ZM222.834 494.061L213.988 440.983H244.251L222.834 494.061ZM257.579 428.603L245.562 440.62L256.244 473.555L257.579 428.603ZM244.941 441.946L256.057 476.22L223.636 494.747L244.941 441.946ZM210.059 480.276L221.717 495.521L199.746 498.66L210.059 480.276ZM221.842 496.513L199.518 499.703L209.996 525.672L221.842 496.513ZM209.047 480.037L198.713 498.458L185.234 484.081L209.047 480.037ZM222.66 570.919L210.678 527.599L235.104 530.825L222.66 570.919ZM259.53 526.573L236.531 529.793L256.311 478.734L259.53 526.573ZM223.252 496.117L255.683 477.585L235.761 529.011L223.252 496.117ZM222.617 497.262L234.992 529.801L210.702 526.593L222.617 497.262ZM236.504 530.807L259.228 527.626L247.411 553.531L236.504 530.807ZM267.223 401.195L257.824 426.706L243.054 420.888L267.223 401.195ZM215.026 439.983L241.699 421.899L244.412 439.983H215.026ZM241.281 420.975L214.19 439.341L222.914 403.526L241.281 420.975ZM221.911 403.421L213.083 439.663L183.81 419.683L221.911 403.421ZM221.025 402.712L183.124 418.889L176.877 392.543L221.025 402.712ZM151.282 395.642L175.596 391.473L160.547 328.006L151.282 395.642ZM221.338 401.758L161.412 327.318L176.62 391.458L221.338 401.758ZM267.08 399.231L223.188 402.033L226.924 364.211L267.08 399.231ZM268.284 398.955L228.343 364.122L287.79 377.591L268.284 398.955ZM223.807 402.995L266.798 400.251L242.101 420.374L223.807 402.995ZM222.319 400.659L226.002 363.372L185.953 320.1L222.319 400.659ZM226.062 361.965L185.427 318.06L227.463 319.928L226.062 361.965ZM274.402 344.172L228.453 320.26L227.046 362.458L274.402 344.172ZM206.533 284.953L227.984 318.529L249.902 284.953H206.533ZM279.864 237.82L251.153 283.005L239.386 186.045L279.864 237.82ZM217.869 211.128L238.32 185.563L249.941 281.314L217.869 211.128ZM217.52 212.77L250.047 283.953H206.206L217.52 212.77ZM185.127 317.045L205.618 285.377L227.04 318.908L185.127 317.045ZM155.082 268.674L205.216 283.809L216.567 212.391L155.082 268.674ZM237.875 184.519L217.255 210.294L161.487 151.246L237.875 184.519ZM237.318 183.186L160.228 149.607L189.551 111.298L237.318 183.186ZM237.944 182.32L190.464 110.865L229.482 107.575L237.944 182.32ZM239.065 183.333L230.59 108.477L273.433 154.144L239.065 183.333ZM231.016 107.469L274.034 153.324L299.562 103.214L231.016 107.469ZM356.638 100.758L301.455 103.117L344.375 153.112L356.638 100.758ZM381.322 133.606L345.379 153.211L357.516 101.397L381.322 133.606ZM307.066 77.127L355.226 99.8177L301.046 102.133L307.066 77.127ZM231.093 106.031L305.163 76.4969L256.408 62.9018L231.093 106.031ZM210.288 60.4277L255.324 62.7733L229.991 105.933L210.288 60.4277ZM306.012 77.2352L233.011 106.343L300.005 102.185L306.012 77.2352ZM209.53 61.1948L229.189 106.596L190.34 109.872L209.53 61.1948ZM208.223 61.7853L189.737 108.676L184.778 83.8779L208.223 61.7853ZM207.889 60.7262L184.118 83.1257L153.947 71.6974L207.889 60.7262ZM106.844 95.0051L151.367 72.5089L137.307 123.125L106.844 95.0051ZM106.205 95.7762L136.48 123.723L94.56 130.71L106.205 95.7762ZM104.977 96.2971L93.7972 129.836L86.6422 110.607L104.977 96.2971ZM93.0545 130.708L85.8966 111.471L73.8175 127.576L93.0545 130.708ZM59.6618 153.685L72.3837 129.996L71.945 153.685H59.6618ZM89.7645 162.74L72.9414 153.886L73.3841 129.979L89.7645 162.74ZM90.5658 162.107L73.8062 128.587L93.2836 131.758L90.5658 162.107ZM118.792 173.426L94.8733 132.154L158.187 149.976L120.081 172.658L118.792 173.426ZM120.592 173.517L158.463 150.976L132.759 218.272L119.207 174.342L120.592 173.517ZM132.039 219.328L131.949 219.387L131.79 219.492L97.5617 226.893L118.547 175.596L132.039 219.328ZM129.491 221.012L102.307 238.989L97.4455 227.941L129.491 221.012ZM96.4151 228.082H87.0838L100.878 238.225L96.4151 228.082ZM102.96 239.756L131.148 221.116L114.658 261.424L102.773 239.94L103.029 239.806L102.96 239.756ZM101.54 240.583L91.7016 245.716L100.684 255.982L101.54 240.583ZM99.7543 257.924L90.2571 259.224L93.3642 264.55L99.7543 257.924ZM93.3541 266.001L94.2738 266.11L93.8878 265.448L100.561 258.527L100.147 268.466L89.3801 270.123L93.3541 266.001ZM92.1064 265.855L85.9351 265.129L88.2815 269.821L92.1064 265.855ZM87.4848 270.464L85.0118 265.518L80.4031 272.431L87.4848 270.464ZM78.7423 273.773H74.6184L78.7423 284.645V273.773ZM79.6378 287.869L70.7814 325.824L87.2289 287.869H79.6378ZM88.8891 286.943L100.573 269.867L110.459 288.74L88.8891 286.943ZM111.232 290.51L94.2001 321.352L122.28 320.431L111.232 290.51ZM123.767 320.951L124.565 320.357L123.656 320.386L133.416 285.783L137.45 333.751L123.767 320.951ZM122.952 321.558L98.1537 340.045L136.515 334.246L122.952 321.558ZM138.517 334.279L138.485 334.121L134.351 284.976L159.927 325.166L159.92 325.215L159.86 325.651L138.517 334.279ZM138.721 335.275L150.596 393.28L159.704 326.793L138.721 335.275ZM161.667 326.041L220.564 399.202L184.154 318.545L161.667 326.041ZM183.996 316.951L160.449 289.71L204.632 285.059L183.996 316.951ZM203.101 284.215L159.81 288.772L154.299 269.482L203.101 284.215ZM153.361 268.463L153.323 268.49L134.161 282.043L132.756 221.165L153.361 268.463ZM94.1805 132.953L117.485 173.166L91.4388 163.57L94.1805 132.953ZM72.7516 154.916L89.6363 163.803L68.3083 170.912L72.7516 154.916ZM67.9513 172.085L89.0554 165.051L58.2786 195.827L67.9513 172.085ZM67.0266 171.705L57.5093 195.065L59.2397 156.131L67.0266 171.705ZM67.4411 170.298L59.6347 154.685H71.778L67.4411 170.298ZM45.4096 196.972L58.1631 157.832L56.404 197.412L45.4096 196.972ZM45.1406 197.962L55.8059 198.389L42.1544 213.747L45.1406 197.962ZM41.827 227.94V216.346L47.4242 219.944L41.827 227.94ZM43.0161 227.985L47.5118 221.563L47.6234 225.353L43.0161 227.985ZM52.8023 230.461L48.8644 225.736L52.8306 222.959L54.3921 225.692L52.8023 230.461ZM55.5299 217.897L52.8247 221.616L49.3286 220.09L55.5299 217.897ZM56.3814 216.535L48.9238 219.172L56.3814 200.528V216.535ZM57.3814 216.389V199.583L68.5851 216.389H57.3814ZM57.5953 217.389H67.4013L59.1039 221.537L57.5953 217.389ZM55.0679 224.859L57.495 222.735H53.8544L55.0679 224.859ZM58.0104 236.328L54.9396 227.212L53.4672 231.629L53.46 231.65L53.451 231.671L48.0694 243.982L58.0104 236.328ZM62.9054 254.532L48.1533 245.771L66.8478 241.39L62.9054 254.532ZM65.1448 250.547L67.075 244.113V246.901L65.1448 250.547ZM64.1543 254.555L67.4356 248.357L68.894 253.461L64.1543 254.555ZM75.0745 250.905L69.8442 253.147L68.3498 247.917L75.0745 250.905ZM68.075 242.058V246.7L74.503 249.557L68.075 242.058ZM71.0805 253.705L76.3579 251.443L84.1044 253.657L75.7708 254.793L75.5516 254.823L75.4735 254.803L71.0805 253.705ZM83.879 245.629L86.9024 253.403L99.7149 256.393L90.6675 246.053L83.879 245.629ZM87.5487 254.581L98.3643 257.105L89.7118 258.289L87.5487 254.581ZM86.2684 254.371L88.4107 258.043L78.4136 255.442L86.2684 254.371ZM70.8033 254.667L74.6019 255.616L73.3357 257.923L70.8033 254.667ZM70.1573 255.465L71.7925 257.567L70.2765 256.896L70.1573 255.465ZM70.5688 260.403L70.3712 258.031L72.4408 258.948L70.5688 260.403ZM70.668 261.593L72.1611 260.432L70.8256 263.485L70.668 261.593ZM55.7382 274.931L70.2613 266.217L73.1659 272.856L55.7382 274.931ZM69.7192 281.817L73.8083 274.457L78.3063 286.315L69.7192 281.817ZM69.3453 282.75L78.0133 287.291L66.8687 291.418L69.3453 282.75ZM57.9241 308.37L65.7453 293.962L66.6098 305.488L57.9241 308.37ZM57.509 309.561L66.3343 306.633L61.2733 321.273L57.509 309.561ZM56.7156 310.361L60.6523 322.608L40.9688 333.106L56.7156 310.361ZM47.9776 306.495L40.7076 331.727L56.1029 309.489L47.9776 306.495ZM48.69 305.692L56.6484 308.624L64.6067 293.964L48.69 305.692ZM30.5075 310.408L38.5522 333.648L20.6751 326.497L30.5075 310.408ZM2.88631 334.823L18.6532 327.856L12.4294 337.814L2.88631 334.823ZM14.9478 350.064L13.2409 338.969L26.0425 340.249L23.011 342.931L14.9478 350.064ZM29.6108 309.957L20.122 325.484L16.6715 312.545L29.6108 309.957ZM58.0413 325.134L40.0944 334.706L42.8862 339.093L58.0413 325.134ZM43.334 340.04L58.0407 326.494L44.495 345.458L43.334 340.04ZM41.0533 351.28L44.4267 347.232L48.4748 348.244L41.0533 351.28ZM39.8827 352.839L48.8243 349.181L39.8827 363.406V352.839ZM38.8827 354.27V364.641H32.5003L38.8827 354.27ZM31.276 375.117L32.0656 365.641H38.3827L31.276 375.117ZM44.1002 377.288L39.9335 365.205L49.1003 350.621L44.1002 377.288ZM44.9675 378.089L50.1969 350.199L56.2978 369.809L44.9675 378.089ZM45.5304 378.916L56.6445 370.794L60.4917 381.054L45.5304 378.916ZM75.3929 400.141L62.0488 381.905L76.2825 376.567L75.3929 400.141ZM76.3631 400.95L77.1918 378.99L82.9927 399.293L76.3631 400.95ZM98.3929 415.583L84.3123 399.685L105.66 379.7L98.3929 415.583ZM99.3562 415.864L106.831 378.956L149.346 396.242L99.3562 415.864ZM99.3958 416.923L149.507 397.253L117.66 450.174L99.3958 416.923ZM98.5663 417.49L116.22 449.628L86.3446 429.712L98.5663 417.49ZM65.3871 427.411L84.8345 429.22L75.7892 402.988L65.3871 427.411ZM85.7718 428.87L76.7903 402.824L97.8968 416.745L85.7718 428.87ZM83.4424 400.211L95.8016 414.165L77.0635 401.806L83.4424 400.211ZM61.3612 382.658L74.9287 401.2L51.864 403.914L61.3612 382.658ZM51.865 404.921L75.0404 402.194L64.5888 426.733L51.865 404.921ZM51.7863 406.771L63.7881 427.345H53.9295L52.4066 412.725L51.7863 406.771ZM60.5292 382.069L51.1657 403.025L44.9234 379.84L60.5292 382.069ZM39.2173 366.195L43.4932 378.596L31.5205 376.458L39.2173 366.195ZM42.3459 396.056L44.3939 381.72L50.1284 403.019L42.3459 396.056ZM41.9499 397.043L49.2385 403.565L39.6483 401.263L41.9499 397.043ZM34.6516 404.482L38.693 402.278L41.6322 407.789L34.6516 404.482ZM50.6279 405.302L43.9461 408.839L51.324 411.984L50.6279 405.302ZM39.861 402.343L49.6449 404.691L42.9919 408.213L39.861 402.343ZM33.9342 405.249L41.7912 408.97L32.2021 415.641L33.9342 405.249ZM26.9646 408.133L31.2688 415.158L32.9006 405.367L26.9646 408.133ZM37.6849 401.688L34.0498 403.671V400.366L37.6849 401.688ZM38.6635 400.98L34.9333 399.624L40.6982 397.25L38.6635 400.98ZM83.219 461.99L65.5312 428.428L85.0331 430.242L83.219 461.99ZM84.1583 463.079L86.0092 430.69L116.548 451.049L84.1583 463.079ZM162.19 482.655L118.307 451.04L150.393 397.72L162.19 482.655ZM163.033 481.456L151.351 397.346L182.191 419.775L163.033 481.456ZM163.837 482.237L183.052 420.376L212.576 440.528L163.837 482.237ZM175.827 392.448L181.977 418.383L151.946 396.543L175.827 392.448ZM137.794 335.735L150.017 395.435L107.239 378.042L137.794 335.735ZM96.8836 341.248L106.668 377.125L136.954 335.191L96.8836 341.248ZM110.511 289.748L93.607 320.357L88.5815 287.92L110.511 289.748ZM92.7809 321.557L87.761 289.156L69.9631 330.228L92.7809 321.557ZM67.6489 305.972L69.2878 327.825L78.1129 290.003L67.6489 305.972ZM66.6436 292.568L77.9901 288.366L67.5261 304.335L66.6436 292.568ZM61.8274 322.73L66.8199 308.289L68.429 329.744L61.8274 322.73ZM61.4085 323.744L68.3183 331.086L51.4757 346.201L61.4085 323.744ZM58.8209 327.122L49.7893 347.542L45.0772 346.363L58.8209 327.122ZM57.0376 368.821L50.8853 349.046L65.3872 355.637L57.0376 368.821ZM75.8215 375.025L66.0758 356.419L57.659 369.709L75.8215 375.025ZM75.2304 375.893L57.7007 370.763L61.5487 381.024L75.2304 375.893ZM105.791 377.709L77.6241 375.4L96.0942 342.154L105.791 377.709ZM121.411 321.46L96.6212 339.94L93.9169 322.362L121.411 321.46ZM95.6317 340.085L92.9368 322.568L70.4791 331.102L95.6317 340.085ZM50.9795 347.99L68.3785 332.375L65.7018 354.682L50.9795 347.99ZM66.6318 355.325L69.124 334.556L75.7701 372.771L66.6318 355.325ZM77.0606 374.355L69.6728 331.875L95.53 341.11L77.0606 374.355ZM77.4897 376.392L105.296 378.671L83.8714 398.728L77.4897 376.392ZM73.394 266.845V270.883L71.3752 266.268L73.2706 266.81L73.394 266.845ZM54.6429 274.422L69.9674 265.227L69.6489 261.406L69.3046 257.274L69.069 254.447L63.548 255.721L54.6429 274.422ZM72.9079 265.666L71.1788 265.172L72.9079 261.22V265.666ZM73.9079 265.322V260.521L75.2633 262.612L73.9079 265.322ZM74.7884 265.797L75.9991 263.376L78.1179 265.192L74.7884 265.797ZM87.2621 260.855L81.5108 264.611L84.7972 264.063L87.2621 260.855ZM79.7408 265.92L84.0175 265.207L79.7408 271.622V265.92ZM78.7408 266.095V271.828L74.7998 266.812L78.7408 266.095ZM74.394 272.773V267.914L78.2121 272.773H74.394ZM92.4002 264.882L86.0067 264.13L89.3915 259.725L92.4002 264.882ZM76.6822 256.025L85.5413 258.33H77.6314L76.6822 256.025ZM75.5655 255.939L76.5499 258.33H74.2529L75.5655 255.939ZM75.7264 261.488L74.3279 259.33H76.5656L75.7264 261.488ZM76.6651 261.833L77.6386 259.33H85.7512L76.6651 261.833ZM76.8776 262.812L86.493 260.163L79.2815 264.872L76.8776 262.812ZM86.4635 228.867L91.2131 244.843L101.144 239.662L86.4635 228.867ZM85.0598 220.845V226.931L79.3541 225.41L85.0598 220.845ZM69.9479 225.138H77.0616L73.8604 221.937L69.9479 225.138ZM78.3058 224.968L74.9705 221.633L83.8647 220.521L78.3058 224.968ZM58.9169 198.855L85.1954 218.898L87.4224 204.645L58.9169 198.855ZM117.228 176.178L88.5724 204.379L96.7598 226.212L117.228 176.178ZM88.1903 206.208L95.708 226.256L86.1021 219.573L88.1903 206.208ZM86.0598 227.082H95.1452L86.0598 220.762V227.082ZM91.3574 164.605L117.7 174.311L88.5845 202.964L91.3574 164.605ZM90.3112 165.209L87.5325 203.647L57.8932 197.627L90.3112 165.209ZM42.089 215.326L55.3549 200.401L47.8928 219.057L42.089 215.326ZM48.6046 224.697L48.4902 220.815L51.9759 222.337L48.6046 224.697ZM69.8176 216.435L58.9569 200.143L83.6024 218.941L69.8176 216.435ZM71.0047 217.667L82.2612 219.713L74.0746 220.737L71.0047 217.667ZM60.1066 222.154L68.9209 217.747L68.1196 224.958L60.1066 222.154ZM58.9356 222.804L65.6051 225.138H56.2678L58.9356 222.804ZM56.5644 226.138H68.0472V233.93L56.5644 226.138ZM55.8849 226.885L67.2077 234.569L58.893 235.816L55.8849 226.885ZM60.4636 236.591L67.9409 235.47L67.1931 239.956L60.4636 236.591ZM76.3786 250.209L68.8331 241.406L73.7683 242.165L82.1573 245.256L76.3786 250.209ZM82.5826 244.347L75.1513 241.609L82.1914 238.089L82.5826 244.347ZM83.6009 244.609L83.2249 238.592L89.618 244.985L83.6009 244.609ZM85.7009 253.073L82.9191 245.92L77.3556 250.688L85.7009 253.073ZM89.8652 243.818L83.2081 237.161L85.5576 229.329L89.8652 243.818ZM82.5907 235.739L84.9327 227.932L79.0776 226.371L82.5907 235.739ZM69.9356 226.138H77.9222L81.5162 235.722L69.9356 226.138ZM69.5738 227.136L81.7334 237.2L74.1861 240.973L69.5738 227.136ZM68.1515 240.289L73.1607 241.06L69.0472 228.719V234.873V234.915L69.0404 234.955L68.1515 240.289ZM73.1498 221.226L69.1795 224.474L69.9014 217.978L73.1498 221.226ZM58.8824 236.919L66.1144 240.535L48.9679 244.553L58.8824 236.919ZM43.4376 236.575L46.8306 244.32L51.998 232.498L43.4376 236.575ZM48.2374 226.545L52.1965 231.296L43.8824 235.255L48.2374 226.545ZM46.9463 226.891L42.9755 234.833L41.8925 229.779L46.9463 226.891ZM96.1008 488.056L83.412 464.491L64.8319 474.461L96.1008 488.056ZM45.3169 468.159L62.3871 473.572L55.7256 464.412L45.3169 468.159ZM62.0876 474.526L44.2574 468.872V480.614L62.0876 474.526ZM47.875 490.261L44.6158 482.113L54.8009 485.372L47.875 490.261ZM63.8549 475.127L56.8297 484.786L94.151 488.299L63.8549 475.127ZM56.5313 485.762L93.9206 489.281L58.7307 496.759L56.5313 485.762ZM55.5697 486.053L57.6297 496.353L48.5658 490.997L55.5697 486.053ZM86.3613 496.854H63.098L95.1853 490.035L86.3613 496.854ZM126.78 492.09L97.3774 489.605L88.2668 496.645L126.78 492.09ZM84.9009 465.147L129.58 491.323L97.5375 488.615L84.9009 465.147ZM45.3498 481.298L62.3528 475.492L55.7175 484.615L45.3498 481.298ZM65.54 430.59L82.1833 462.169L68.5273 452.354L65.54 430.59ZM64.3319 429.142L67.482 452.092L48.5816 450.742L64.3319 429.142ZM56.0049 463.047L48.6165 451.747L66.8702 453.051L56.0049 463.047ZM53.8693 428.345L48.7531 448.81L63.6752 428.345H53.8693ZM36.4111 345.442L39.488 351.596L43.3342 346.981L36.4111 345.442ZM53.9747 221.735H58.1119L56.7328 217.943L53.9747 221.735ZM153.694 266.722L133.249 219.793L158.805 152.883L153.694 266.722ZM138.466 124.331L159.423 149.014L188.298 111.291L138.466 124.331ZM183.797 84.0736L188.754 108.859L154.054 72.8073L183.797 84.0736ZM138.284 123.344L152.399 72.5301L188.628 110.17L138.284 123.344ZM158.002 148.885L137.372 124.588L96.1132 131.465L158.002 148.885ZM216.574 211.03L159.89 151.011L154.65 267.714L216.574 211.03ZM245.34 439.428L242.699 421.823L257.224 427.545L245.34 439.428ZM32.6937 417.311L41.1719 418.417L35.6426 421.366L32.6937 417.311ZM40.0024 280.12L31.2444 294.054L40.7986 288.082L40.0024 280.12ZM101.635 256.899L102.491 241.495L113.616 261.606L101.635 256.899ZM101.586 257.954L113.436 262.609L101.163 268.111L101.586 257.954ZM80.019 273.576L87.4917 271.5V285.615L80.019 273.576ZM79.7423 275.026L87.0929 286.869H79.7423V275.026ZM99.5657 269.567L88.4917 285.752V271.271L99.5657 269.567ZM111.028 287.672L101.319 269.137L114.117 263.4L111.028 287.672ZM111.915 288.626L115.087 263.702L132.76 282.735L111.915 288.626ZM111.98 289.647L132.959 283.718L122.925 319.292L111.98 289.647ZM183.368 317.753L161.376 325.084L160.001 290.722L183.368 317.753ZM134.866 282.769L158.727 288.622L153.325 269.713L134.866 282.769ZM131.78 222.212L133.152 281.688L115.309 262.473L131.78 222.212ZM160.329 323.936L134.773 283.776L158.96 289.709L160.329 323.936Z" fill="#111429"/>
    <path d="M230.472 107.453L273.262 154.019L238.862 183.384L230.472 107.453Z" fill="#F2E5C4"/>
    <path d="M345.833 15.6097L370.886 70.169L292.541 43.2557L345.833 15.6097Z" fill="#F2E5C4"/>
    <path d="M417.88 85.9989L463.59 99.4224L406.64 132.332L417.88 85.9989Z" fill="#F2E5C4"/>
    <path d="M306.924 161.873L346.935 187.732L282.981 203.102L306.924 161.873Z" fill="#111429"/>
    <path d="M421.197 30.2484L450.664 38.902L413.951 60.1173L421.197 30.2484Z" fill="#111429"/>
    <path d="M306.823 76.4092L230.892 106.614L300.53 102.419L306.823 76.4092Z" fill="#111429"/>
</svg>