<svg width="299" height="254" viewBox="0 0 299 254" fill="none" xmlns="http://www.w3.org/2000/svg">
    <path opacity="0.4" d="M208.021 -26.7721L271.601 -56.91L200.132 -103.098M208.021 -26.7721L200.132 -103.098M208.021 -26.7721L151.345 -23.5222M200.132 -103.098L151.345 -23.5222M200.132 -103.098L297.163 -77.3004L258.67 -126.78M200.132 -103.098L258.67 -126.78M200.132 -103.098L215.299 -162.413M200.132 -103.098L158.556 -128.685M151.345 -23.5222L158.556 -128.685M151.345 -23.5222L152.2 57.0634L88.9273 80.1593M151.345 -23.5222L88.9273 80.1593M151.345 -23.5222L110.836 -13.4327M151.345 -23.5222L100.214 -112.854M258.67 -126.78L215.299 -162.413M215.299 -162.413L158.556 -128.685M215.299 -162.413L151.133 -192.311M215.299 -162.413L173.186 -157.868M158.556 -128.685L151.133 -192.311M158.556 -128.685L173.186 -157.868M158.556 -128.685L100.214 -112.854M158.556 -128.685L98.1256 -152.918M151.133 -192.311L173.186 -157.868M151.133 -192.311L98.1256 -152.918M151.133 -192.311L89.1467 -203.155M88.9273 80.1593L110.836 -13.4327M88.9273 80.1593L45.1671 47.873M88.9273 80.1593L40.8845 97.0473M110.836 -13.4327L100.214 -112.854M110.836 -13.4327L45.1671 47.873M110.836 -13.4327L6.81328 -3.68413M100.214 -112.854L98.1256 -152.918M100.214 -112.854L6.81328 -3.68413M100.214 -112.854L22.4799 -65.5383M100.214 -112.854L50.3755 -177.246M100.214 -112.854L45.1129 -118.699L42.684 -118.957M98.1256 -152.918L89.1467 -203.155M98.1256 -152.918L50.3755 -177.246M89.1467 -203.155L50.3755 -177.246M89.1467 -203.155L58.3313 -202.631M45.1671 47.873L6.81328 -3.68413M45.1671 47.873L-0.0235684 63.9578M45.1671 47.873L40.8845 97.0473M6.81328 -3.68413L22.4799 -65.5383M22.4799 -65.5383L42.684 -118.957M22.4799 -65.5383L-18.1016 -83.8496M42.684 -118.957L50.3755 -177.246M42.684 -118.957L23.4254 -148.43M42.684 -118.957L-9.28637 -112.235M42.684 -118.957L-18.1016 -83.8496M50.3755 -177.246L58.3313 -202.631M50.3755 -177.246L32.6631 -195.402M50.3755 -177.246L23.4254 -148.43M58.3313 -202.631L32.6631 -195.402M32.6631 -195.402L-0.428125 -180.566M32.6631 -195.402L12.747 -170.846M32.6631 -195.402L23.4254 -148.43M23.4254 -148.43L-9.28637 -112.235M23.4254 -148.43L12.747 -170.846M23.4254 -148.43L-34.7195 -140.449M23.4254 -148.43L-4.92212 -157.715M-9.28637 -112.235L-18.1016 -83.8496M-9.28637 -112.235L-34.7195 -140.449M-9.28637 -112.235L-23.1623 -99.2133M-18.1016 -83.8496L-23.1623 -99.2133M-18.1016 -83.8496L-28.924 -91.8344M40.8845 97.0473L68.6321 154.59L7.06368 137.512M40.8845 97.0473L7.06368 137.512M40.8845 97.0473L-0.0235684 63.9578M7.06368 137.512L56.8497 195.323L20.5223 201.956M7.06368 137.512L-25.869 172.09M7.06368 137.512L20.5223 201.956M7.06368 137.512L-0.0235684 63.9578M-0.0235684 63.9578L-25.869 172.09M-0.428125 -180.566L12.747 -170.846M-0.428125 -180.566L-4.92212 -157.715M-0.428125 -180.566L-46.1229 -149.589M-0.428125 -180.566L-34.7195 -140.449M12.747 -170.846L-4.92212 -157.715M-4.92212 -157.715L-34.7195 -140.449M-46.1229 -149.589L-34.7195 -140.449M-46.1229 -149.589L-62.7405 -134.956M-34.7195 -140.449L-62.7405 -134.956M-34.7195 -140.449L-59.3939 -125.945M-34.7195 -140.449L-48.7635 -122.463M-34.7195 -140.449L-23.1623 -99.2133M-34.7195 -140.449L-36.5295 -113.437M-62.7405 -134.956L-59.3939 -125.945M-62.7405 -134.956L-73.1835 -121.582M-59.3939 -125.945L-59.728 -125.839M-73.1835 -121.582L-59.728 -125.839M-73.1835 -121.582L-63.7151 -120.411M-73.1835 -121.582L-76.8133 -114.084M-59.728 -125.839L-48.7635 -122.463M-59.728 -125.839L-56.489 -120.167M-59.728 -125.839L-63.7151 -120.411M-48.7635 -122.463L-36.5295 -113.437M-48.7635 -122.463L-50.8425 -116.001M-48.7635 -122.463L-56.489 -120.167M-23.1623 -99.2133L-36.5295 -113.437M-23.1623 -99.2133L-28.924 -91.8344M-23.1623 -99.2133L-34.5417 -98.8866M-23.1623 -99.2133L-35.5356 -106.162M-36.5295 -113.437L-35.5356 -106.162M-36.5295 -113.437L-43.9524 -105.83M-36.5295 -113.437L-50.8425 -116.001M-28.924 -91.8344L-21.9282 -68.5014L-37.0719 -70.9521M-28.924 -91.8344L-37.0719 -70.9521M-28.924 -91.8344L-34.5417 -98.8866M-28.924 -91.8344L-38.9493 -84.6939M-37.0719 -70.9521L-38.9493 -84.6939M-37.0719 -70.9521L-44.2404 -76.9679M-37.0719 -70.9521L-35.833 -52.5933M-34.5417 -98.8866L-35.5356 -106.162M-34.5417 -98.8866L-43.9524 -105.83M-34.5417 -98.8866L-38.9493 -84.6939M-35.5356 -106.162L-43.9524 -105.83M-43.9524 -105.83L-50.8425 -116.001M-43.9524 -105.83L-50.7944 -97.0675M-43.9524 -105.83L-57.1275 -115.551M-43.9524 -105.83L-50.6599 -86.7922M-43.9524 -105.83L-38.9493 -84.6939M-50.8425 -116.001L-56.489 -120.167M-50.8425 -116.001L-57.1275 -115.551M-56.489 -120.167L-63.7151 -120.411M-56.489 -120.167L-57.1275 -115.551M-63.7151 -120.411L-76.8133 -114.084M-63.7151 -120.411L-63.3309 -111.405M-76.8133 -114.084L-63.3309 -111.405M-76.8133 -114.084L-79.7387 -102.432M-63.3309 -111.405L-57.1275 -115.551M-63.3309 -111.405L-79.7387 -102.432M-57.1275 -115.551L-50.7944 -97.0675M-57.1275 -115.551L-61.6356 -102.624M-50.7944 -97.0675L-56.0567 -92.2277M-50.7944 -97.0675L-61.2855 -102.627M-38.9493 -84.6939L-50.6599 -86.7922M-38.9493 -84.6939L-44.2404 -76.9679M-50.6599 -86.7922L-56.0567 -92.2277M-50.6599 -86.7922L-44.2404 -76.9679M20.5223 201.956L-20.7313 203.501M20.5223 201.956L-25.869 172.09M20.5223 201.956L-9.88486 220.953M-20.7313 203.501L-25.869 172.09M-20.7313 203.501L-9.88486 220.953M-20.7313 203.501L-32.3122 224.031M-20.7313 203.501L-62.8972 201.465M-25.869 172.09L-62.8972 201.465M-25.869 172.09L-77.0568 159.763M-25.869 172.09L-28.8416 54.3255M-25.869 172.09L-62.8905 128.784M-9.88486 220.953L-32.3122 224.031M-9.88486 220.953L-47.6669 266.49M-32.3122 224.031L-95.0087 260.636M-32.3122 224.031L-47.6669 266.49M-32.3122 224.031L-62.8972 201.465M-47.6669 266.49L-95.0087 260.636M-47.6669 266.49L-107.871 302.753M-47.6669 266.49L-81.8238 316.883M-95.0087 260.636L-62.8972 201.465M-95.0087 260.636L-94.9992 235.929M-95.0087 260.636L-120.586 246.853M-95.0087 260.636L-107.871 302.753M-95.0087 260.636L-130.289 281.125M-62.8972 201.465L-94.9992 235.929M-62.8972 201.465L-123.179 221.68M-62.8972 201.465L-143.882 206.405M-62.8972 201.465L-77.0568 159.763M-94.9992 235.929L-120.586 246.853M-94.9992 235.929L-123.179 221.68M-120.586 246.853L-123.179 221.68M-120.586 246.853L-130.289 281.125M-123.179 221.68L-143.882 206.405M-143.882 206.405L-77.0568 159.763M-143.882 206.405L-90.8274 114.714M-143.882 206.405L-180.119 192.026M-143.882 206.405L-163.516 143.22M-77.0568 159.763L-62.8905 128.784M-77.0568 159.763L-90.8274 114.714M-28.8416 54.3255L-90.8274 114.714M-28.8416 54.3255L-62.8905 128.784M-90.8274 114.714L-62.8905 128.784M-90.8274 114.714L-163.516 143.22M-90.8274 114.714L-120.323 66.0585M-90.8274 114.714L-57.3284 47.1183M-90.8274 114.714L-156.299 96.9369M-163.516 143.22L-180.119 192.026M-163.516 143.22L-205.816 130.909M-163.516 143.22L-178.727 100.015M-163.516 143.22L-156.299 96.9369M-120.323 66.0585L-57.3284 47.1183M-120.323 66.0585L-102.476 23.2574M-120.323 66.0585L-156.299 96.9369M-120.323 66.0585L-158.283 70.0335M-120.323 66.0585L-147.225 42.5756M-57.3284 47.1183L-102.476 23.2574M-102.476 23.2574L-61.8322 23.4433L-91.2553 3.18853M-102.476 23.2574L-91.2553 3.18853M-102.476 23.2574L-121.624 -5.40735M-102.476 23.2574L-147.225 42.5756M-91.2553 3.18853L-121.624 -5.40735M-91.2553 3.18853L-49.7185 -14.8652L-70.8639 -33.3738M-91.2553 3.18853L-70.8639 -33.3738M-121.624 -5.40735L-70.8639 -33.3738M-121.624 -5.40735L-142.453 15.5685M-121.624 -5.40735L-147.225 42.5756M-121.624 -5.40735L-152.579 -2.80559M-121.624 -5.40735L-123.031 -18.802M-121.624 -5.40735L-79.3336 -39.6228M-121.624 -5.40735L-104.734 -30.7425M-180.119 192.026L-205.816 130.909M-180.119 192.026L-227.84 164.813M-180.119 192.026L-211.366 164.611M-205.816 130.909L-211.366 164.611M-205.816 130.909L-233.03 126.821M-205.816 130.909L-212.591 109.193M-205.816 130.909L-178.727 100.015M-205.816 130.909L-197.52 83.2424M-227.84 164.813L-211.366 164.611M-227.84 164.813L-255.131 144.678M-211.366 164.611L-233.03 126.821M-211.366 164.611L-248.481 131.412M-211.366 164.611L-255.131 144.678M-233.03 126.821L-248.481 131.412M-233.03 126.821L-257.364 119.044M-233.03 126.821L-232.637 111.12M-233.03 126.821L-247.641 106.592M-233.03 126.821L-212.591 109.193M-248.481 131.412L-257.364 119.044M-248.481 131.412L-260.802 131.045M-248.481 131.412L-255.131 144.678M-257.364 119.044L-260.802 131.045M-257.364 119.044L-247.641 106.592M-260.802 131.045L-255.131 144.678M-247.641 106.592L-232.637 111.12M-247.641 106.592L-231.273 93.2281M-232.637 111.12L-212.591 109.193M-232.637 111.12L-231.273 93.2281M-231.273 93.2281L-212.591 109.193M-231.273 93.2281L-197.52 83.2424M-231.273 93.2281L-222.242 78.8125M-231.273 93.2281L-208.342 75.2576M-212.591 109.193L-197.52 83.2424M-178.727 100.015L-197.52 83.2424M-178.727 100.015L-167.252 66.3236M-178.727 100.015L-156.299 96.9369M-197.52 83.2424L-208.342 75.2576M-197.52 83.2424L-167.252 66.3236M-197.52 83.2424L-193.41 51.3853M-222.242 78.8125L-208.342 75.2576M-222.242 78.8125L-223.899 66.6873M-208.342 75.2576L-223.899 66.6873M-208.342 75.2576L-198.698 59.8401M-208.342 75.2576L-211.492 58.3964M-208.342 75.2576L-221.431 56.8783M-223.899 66.6873L-221.431 56.8783M-223.899 66.6873L-230.649 54.438L-221.431 56.8783M-167.252 66.3236L-158.283 70.0335M-167.252 66.3236L-156.299 96.9369M-167.252 66.3236L-147.225 42.5756M-167.252 66.3236L-166.604 37.0004M-167.252 66.3236L-193.41 51.3853M-156.299 96.9369L-158.283 70.0335M-158.283 70.0335L-147.225 42.5756M-147.225 42.5756L-166.604 37.0004M-147.225 42.5756L-162.196 22.8077M-147.225 42.5756L-142.453 15.5685M-166.604 37.0004L-193.41 51.3853M-166.604 37.0004L-181.272 22.5438M-166.604 37.0004L-162.196 22.8077M-193.41 51.3853L-181.272 22.5438M-193.41 51.3853L-196.228 36.9491M-193.41 51.3853L-203.013 39.9391M-193.41 51.3853L-204.65 49.6341M-193.41 51.3853L-198.698 59.8401M-181.272 22.5438L-162.196 22.8077M-181.272 22.5438L-152.579 -2.80559M-181.272 22.5438L-192.646 10.5173M-181.272 22.5438L-175.534 5.69797M-181.272 22.5438L-196.944 25.5183M-181.272 22.5438L-196.228 36.9491M-162.196 22.8077L-142.453 15.5685M-162.196 22.8077L-152.579 -2.80559M-142.453 15.5685L-152.579 -2.80559M-152.579 -2.80559L-123.031 -18.802M-152.579 -2.80559L-157.145 -8.3551M-152.579 -2.80559L-166.172 -6.29261M-152.579 -2.80559L-175.534 5.69797M-123.031 -18.802L-117.183 -34.8394M-123.031 -18.802L-104.734 -30.7425M-123.031 -18.802L-157.145 -8.3551M-123.031 -18.802L-152.848 -23.3562M-123.031 -18.802L-153.515 -15.8531M-95.6392 -44.3845L-79.3336 -39.6228M-95.6392 -44.3845L-85.2538 -51.9862M-95.6392 -44.3845L-123.603 -44.6638M-95.6392 -44.3845L-117.183 -34.8394M-95.6392 -44.3845L-104.734 -30.7425M-95.6392 -44.3845L-104.272 -58.0225M-79.3336 -39.6228L-104.734 -30.7425M-79.3336 -39.6228L-74.0666 -56.8158M-79.3336 -39.6228L-85.2538 -51.9862M-68.8907 -52.9969L-74.0666 -56.8158M-68.8907 -52.9969L-56.7623 -57.1321M-68.8907 -52.9969L-63.129 -60.3758M-68.8907 -52.9969L-69.0252 -63.2722M-74.0666 -56.8158L-85.2538 -51.9862M-74.0666 -56.8158L-104.272 -58.0225M-74.0666 -56.8158L-95.6297 -69.0908M-74.0666 -56.8158L-71.5987 -66.6247M-74.0666 -56.8158L-69.0252 -63.2722M-123.603 -44.6638L-117.183 -34.8394M-123.603 -44.6638L-152.848 -23.3562M-123.603 -44.6638L-142.592 -53.5863M-123.603 -44.6638L-116.756 -65.7793M-123.603 -44.6638L-104.272 -58.0225M-117.183 -34.8394L-104.734 -30.7425M-117.183 -34.8394L-152.848 -23.3562M-157.145 -8.3551L-153.515 -15.8531M-157.145 -8.3551L-166.172 -6.29261M-157.145 -8.3551L-164.174 -16.4488M-152.848 -23.3562L-142.592 -53.5863M-152.848 -23.3562L-165.908 -44.6216M-152.848 -23.3562L-152.896 -22.818M-152.848 -23.3562L-168.572 -26.9623M-153.515 -15.8531L-152.896 -22.818M-153.515 -15.8531L-164.174 -16.4488M-142.592 -53.5863L-116.756 -65.7793M-142.592 -53.5863L-133.45 -67.1936M-142.592 -53.5863L-158.869 -61.2342M-142.592 -53.5863L-165.908 -44.6216M-116.756 -65.7793L-104.272 -58.0225M-116.756 -65.7793L-95.6297 -69.0908M-116.756 -65.7793L-110.495 -75.6972M-116.756 -65.7793L-133.45 -67.1936M-104.272 -58.0225L-95.6297 -69.0908M-95.6297 -69.0908L-110.495 -75.6972M-95.6297 -69.0908L-94.9048 -82.3663L-95.6582 -82.044M-95.6297 -69.0908L-71.0947 -81.5169M-95.6297 -69.0908L-85.6814 -92.279M-95.6297 -69.0908L-71.5987 -66.6247M-110.495 -75.6972L-95.6582 -82.044M-110.495 -75.6972L-133.45 -67.1936M-95.6582 -82.044L-85.6814 -92.279M-85.6814 -92.279L-71.0947 -81.5169M-85.6814 -92.279L-79.7387 -102.432M-71.0947 -81.5169L-79.7387 -102.432M-71.0947 -81.5169L-60.738 -86.2325M-71.0947 -81.5169L-63.8973 -78.3873M-71.0947 -81.5169L-56.0567 -92.2277M-79.7387 -102.432L-56.0567 -92.2277M-79.7387 -102.432L-61.6356 -102.624M-61.2855 -102.627L-56.0567 -92.2277M-61.2855 -102.627L-61.6356 -102.624M-56.0567 -92.2277L-55.1492 -76.2941M-56.0567 -92.2277L-60.738 -86.2325M-71.5987 -66.6247L-68.8712 -70.7906M-71.5987 -66.6247L-63.8369 -70.8665M-71.5987 -66.6247L-69.3928 -63.7512M-133.45 -67.1936L-158.869 -61.2342M-158.869 -61.2342L-165.908 -44.6216M-158.869 -61.2342L-175.371 -58.1456M-165.908 -44.6216L-175.371 -58.1456M-165.908 -44.6216L-166.023 -33.0768M-165.908 -44.6216L-189.834 -50.0712M-165.908 -44.6216L-183.097 -55.85M-165.908 -44.6216L-181.608 -38.7608M-175.371 -58.1456L-183.097 -55.85M-166.172 -6.29261L-164.174 -16.4488M-166.172 -6.29261L-171.4 -16.6922M-166.172 -6.29261L-179.683 -6.0851M-166.172 -6.29261L-183.063 0.143332M-166.172 -6.29261L-175.534 5.69797M-164.174 -16.4488L-152.896 -22.818M-164.174 -16.4488L-168.572 -26.9623M-164.174 -16.4488L-171.4 -16.6922M-168.572 -26.9623L-166.023 -33.0768M-168.572 -26.9623L-181.608 -38.7608M-168.572 -26.9623L-174.885 -26.476M-166.023 -33.0768L-181.608 -38.7608M-181.608 -38.7608L-189.834 -50.0712M-181.608 -38.7608L-193.789 -41.2064M-181.608 -38.7608L-189.089 -25.3815M-189.834 -50.0712L-183.097 -55.85M-189.834 -50.0712L-193.789 -41.2064M-193.789 -41.2064L-189.089 -25.3815M-189.089 -25.3815L-174.885 -26.476M-189.089 -25.3815L-184.386 -15.7333M-179.683 -6.0851L-171.4 -16.6922M-179.683 -6.0851L-184.386 -15.7333M-179.683 -6.0851L-183.063 0.143332M-171.4 -16.6922L-174.885 -26.476M-171.4 -16.6922L-184.386 -15.7333M-174.885 -26.476L-181.079 -19.4721L-184.386 -15.7333M-183.063 0.143332L-175.534 5.69797M-183.063 0.143332L-192.646 10.5173M-183.063 0.143332L-196.894 7.3834M-204.386 11.3051L-208.447 15.5773M-204.386 11.3051L-200.429 18.5853M-204.386 11.3051L-192.646 10.5173M-204.386 11.3051L-196.894 7.3834M-208.447 15.5773L-209.235 22.2644M-208.447 15.5773L-200.429 18.5853M-209.235 22.2644L-200.429 18.5853M-209.235 22.2644L-206.748 34.2756M-200.429 18.5853L-192.646 10.5173M-200.429 18.5853L-196.944 25.5183M-200.429 18.5853L-206.748 34.2756M-192.646 10.5173L-175.534 5.69797M-192.646 10.5173L-196.894 7.3834M-192.646 10.5173L-196.944 25.5183M-196.944 25.5183L-196.228 36.9491M-196.228 36.9491L-203.013 39.9391M-196.228 36.9491L-206.748 34.2756M-206.748 34.2756L-197.664 26.4407M-206.748 34.2756L-212.673 34.2653M-206.748 34.2756L-210.349 38.8873M-206.748 34.2756L-203.013 39.9391M-212.673 34.2653L-210.349 38.8873M-212.673 34.2653L-219.941 36.8987M-210.349 38.8873L-219.941 36.8987M-210.349 38.8873L-203.013 39.9391M-210.349 38.8873L-220.874 48.5669M-210.349 38.8873L-204.65 49.6341M-203.013 39.9391L-204.65 49.6341M-204.65 49.6341L-198.698 59.8401M-204.65 49.6341L-221.234 49.0281M-198.698 59.8401L-211.492 58.3964M-211.492 58.3964L-221.234 49.0281M-211.492 58.3964L-221.431 56.8783M-221.431 56.8783L-221.234 49.0281M-221.234 49.0281L-228.292 43.8206L-230.76 53.6296L-221.234 49.0281ZM-221.234 49.0281L-219.941 36.8987M-228.402 43.0123L-219.941 36.8987M-107.871 302.753L-114.584 334.144L-81.8238 316.883M-107.871 302.753L-81.8238 316.883M-107.871 302.753L-130.289 281.125M-107.871 302.753L-151.905 333.502L-130.289 281.125M-44.2404 -76.9679L-47.4285 -66.2365M-44.2404 -76.9679L-55.1492 -76.2941M-35.833 -52.5933L-47.4285 -66.2365M-35.833 -52.5933L-48.3091 -59.41M-47.4285 -66.2365L-48.3091 -59.41M-47.4285 -66.2365L-55.1492 -76.2941M-47.4285 -66.2365L-58.8606 -72.4906M-55.1492 -76.2941L-63.8973 -78.3873M-55.1492 -76.2941L-60.738 -86.2325M-56.7623 -57.1321L-58.2603 -49.515M-56.7623 -57.1321L-49.4834 -50.308L-48.3091 -59.41M-56.7623 -57.1321L-63.129 -60.3758M-56.7623 -57.1321L-48.3091 -59.41M-48.3091 -59.41L-60.0726 -68.0891M-48.3091 -59.41L-64.2622 -65.573M-48.3091 -59.41L-58.8606 -72.4906M-48.3091 -59.41L-63.129 -60.3758M-63.8973 -78.3873L-60.738 -86.2325M-63.8973 -78.3873L-59.3312 -72.8378L-63.8369 -70.8665M-63.8973 -78.3873L-63.8369 -70.8665M-63.8973 -78.3873L-66.1436 -74.9566M-60.0726 -68.0891L-63.8369 -70.8665M-60.0726 -68.0891L-58.8606 -72.4906M-60.0726 -68.0891L-64.2622 -65.573M-63.129 -60.3758L-64.2622 -65.573M-63.129 -60.3758L-69.0252 -63.2722M-69.0252 -63.2722L-64.2622 -65.573M-69.0252 -63.2722L-69.3928 -63.7512M-64.2622 -65.573L-63.8369 -70.8665M-63.8369 -70.8665L-66.1436 -74.9566M-63.8369 -70.8665L-68.8712 -70.7906M-63.8369 -70.8665L-69.3928 -63.7512M-66.1436 -74.9566L-68.8712 -70.7906" stroke="#F7F6F2"/>
</svg>