<svg width="293" height="382" viewBox="0 0 293 382" fill="none" xmlns="http://www.w3.org/2000/svg">
<path opacity="0.4" d="M195.729 68.6545L262.909 47.7367L198.629 -8.02353M195.729 68.6545L198.629 -8.02353M195.729 68.6545L139.158 63.9192M198.629 -8.02353L139.158 63.9192M198.629 -8.02353L291.08 31.1351L259.911 -23.2561M198.629 -8.02353L259.911 -23.2561M198.629 -8.02353L221.969 -64.6234M198.629 -8.02353L161.055 -39.1909M139.158 63.9192L161.055 -39.1909M139.158 63.9192L128.697 143.827L62.809 157.816M139.158 63.9192L62.809 157.816M139.158 63.9192L97.6339 68.2243M139.158 63.9192L101.069 -31.7033M259.911 -23.2561L221.969 -64.6234M221.969 -64.6234L161.055 -39.1909M221.969 -64.6234L162.634 -103.229M221.969 -64.6234L179.635 -66.0328M161.055 -39.1909L162.634 -103.229M161.055 -39.1909L179.635 -66.0328M161.055 -39.1909L101.069 -31.7033M161.055 -39.1909L104.623 -71.6648M162.634 -103.229L179.635 -66.0328M162.634 -103.229L104.623 -71.6648M162.634 -103.229L102.782 -122.664M62.809 157.816L97.6339 68.2243M62.809 157.816L24.0125 119.709M62.809 157.816L12.8718 167.795M97.6339 68.2243L101.069 -31.7033M97.6339 68.2243L24.0125 119.709M97.6339 68.2243L-6.72709 63.2795M101.069 -31.7033L104.623 -71.6648M101.069 -31.7033L-6.72709 63.2795M101.069 -31.7033L17.4643 4.23584M101.069 -31.7033L60.7592 -102.452M101.069 -31.7033L47.3331 -45.2229L44.9643 -45.8189M104.623 -71.6648L102.782 -122.664M104.623 -71.6648L60.7592 -102.452M102.782 -122.664L60.7592 -102.452M102.782 -122.664L72.1985 -126.469M24.0125 119.709L-6.72709 63.2795M24.0125 119.709L-22.9882 129.293M24.0125 119.709L12.8718 167.795M-6.72709 63.2795L17.4643 4.23584M17.4643 4.23584L44.9643 -45.8189M17.4643 4.23584L-20.1462 -19.589M44.9643 -45.8189L60.7592 -102.452M44.9643 -45.8189L30.0322 -77.7029M44.9643 -45.8189L-7.43498 -46.4566M44.9643 -45.8189L-20.1462 -19.589M60.7592 -102.452L72.1985 -126.469M60.7592 -102.452L45.7698 -122.914M60.7592 -102.452L30.0322 -77.7029M72.1985 -126.469L45.7698 -122.914M45.7698 -122.914L10.9242 -112.869M45.7698 -122.914L22.6049 -101.395M45.7698 -122.914L30.0322 -77.7029M30.0322 -77.7029L-7.43498 -46.4566M30.0322 -77.7029L22.6049 -101.395M30.0322 -77.7029L-28.6574 -77.9602M30.0322 -77.7029L3.26806 -90.8739M-7.43498 -46.4566L-20.1462 -19.589M-7.43498 -46.4566L-28.6574 -77.9602M-7.43498 -46.4566L-23.001 -35.5107M-20.1462 -19.589L-23.001 -35.5107M-20.1462 -19.589L-29.741 -29.0134M12.8718 167.795L32.2703 228.662L-26.2926 203.113M12.8718 167.795L-26.2926 203.113M12.8718 167.795L-22.9882 129.293M-26.2926 203.113L14.8884 267.339L-22.0103 268.809M-26.2926 203.113L-63.7515 232.728M-26.2926 203.113L-22.0103 268.809M-26.2926 203.113L-22.9882 129.293M-22.9882 129.293L-63.7515 232.728M10.9242 -112.869L22.6049 -101.395M10.9242 -112.869L3.26806 -90.8739M10.9242 -112.869L-38.6653 -88.6102M10.9242 -112.869L-28.6574 -77.9602M22.6049 -101.395L3.26806 -90.8739M3.26806 -90.8739L-28.6574 -77.9602M-38.6653 -88.6102L-28.6574 -77.9602M-38.6653 -88.6102L-57.1719 -76.4535M-28.6574 -77.9602L-57.1719 -76.4535M-28.6574 -77.9602L-55.1228 -67.0621M-28.6574 -77.9602L-45.0863 -62.123M-28.6574 -77.9602L-23.001 -35.5107M-28.6574 -77.9602L-34.2399 -51.4693M-57.1719 -76.4535L-55.1228 -67.0621M-57.1719 -76.4535L-69.3883 -64.6771M-55.1228 -67.0621L-55.4685 -67.0044M-69.3883 -64.6771L-55.4685 -67.0044M-69.3883 -64.6771L-60.1779 -62.1892M-69.3883 -64.6771L-74.0343 -57.7627M-55.4685 -67.0044L-45.0863 -62.123M-55.4685 -67.0044L-53.0574 -60.9341M-55.4685 -67.0044L-60.1779 -62.1892M-45.0863 -62.123L-34.2399 -51.4693M-45.0863 -62.123L-48.0514 -56.017M-45.0863 -62.123L-53.0574 -60.9341M-23.001 -35.5107L-34.2399 -51.4693M-23.001 -35.5107L-29.741 -29.0134M-23.001 -35.5107L-34.3135 -36.7841M-23.001 -35.5107L-34.2767 -44.1267M-34.2399 -51.4693L-34.2767 -44.1267M-34.2399 -51.4693L-42.6569 -44.9793M-34.2399 -51.4693L-48.0514 -56.017M-29.741 -29.0134L-26.0887 -4.92958L-40.7386 -9.48104M-29.741 -29.0134L-40.7386 -9.48104M-29.741 -29.0134L-34.3135 -36.7841M-29.741 -29.0134L-40.6691 -23.3503M-40.7386 -9.48104L-40.6691 -23.3503M-40.7386 -9.48104L-46.992 -16.4433M-40.7386 -9.48104L-42.0882 8.86986M-34.3135 -36.7841L-34.2767 -44.1267M-34.3135 -36.7841L-42.6569 -44.9793M-34.3135 -36.7841L-40.6691 -23.3503M-34.2767 -44.1267L-42.6569 -44.9793M-42.6569 -44.9793L-48.0514 -56.017M-42.6569 -44.9793L-50.6607 -37.2637M-42.6569 -44.9793L-54.3375 -56.4525M-42.6569 -44.9793L-51.9694 -27.0712M-42.6569 -44.9793L-40.6691 -23.3503M-48.0514 -56.017L-53.0574 -60.9341M-48.0514 -56.017L-54.3375 -56.4525M-53.0574 -60.9341L-60.1779 -62.1892M-53.0574 -60.9341L-54.3375 -56.4525M-60.1779 -62.1892L-74.0343 -57.7627M-60.1779 -62.1892L-61.0613 -53.2186M-74.0343 -57.7627L-61.0613 -53.2186M-74.0343 -57.7627L-78.5659 -46.6365M-61.0613 -53.2186L-54.3375 -56.4525M-61.0613 -53.2186L-78.5659 -46.6365M-54.3375 -56.4525L-50.6607 -37.2637M-54.3375 -56.4525L-60.615 -44.2861M-50.6607 -37.2637L-56.5501 -33.2103M-50.6607 -37.2637L-60.2678 -44.2407M-40.6691 -23.3503L-51.9694 -27.0712M-40.6691 -23.3503L-46.992 -16.4433M-51.9694 -27.0712L-56.5501 -33.2103M-51.9694 -27.0712L-46.992 -16.4433M-22.0103 268.809L-63.0725 264.55M-22.0103 268.809L-63.7515 232.728M-22.0103 268.809L-54.7823 283.351M-63.0725 264.55L-63.7515 232.728M-63.0725 264.55L-54.7823 283.351M-63.0725 264.55L-77.4197 283.251M-63.0725 264.55L-104.536 256.617M-63.7515 232.728L-104.536 256.617M-63.7515 232.728L-112.703 213.341M-63.7515 232.728L-50.1694 115.712M-63.7515 232.728L-94.3299 184.656M-54.7823 283.351L-77.4197 283.251M-54.7823 283.351L-98.5805 323.136M-77.4197 283.251L-144.632 310.696M-77.4197 283.251L-98.5805 323.136M-77.4197 283.251L-104.536 256.617M-98.5805 323.136L-144.632 310.696M-98.5805 323.136L-163.278 350.591M-98.5805 323.136L-139.471 368.237M-144.632 310.696L-104.536 256.617M-144.632 310.696L-141.156 286.235M-144.632 310.696L-168.022 293.46M-144.632 310.696L-163.278 350.591M-144.632 310.696L-182.439 326.031M-104.536 256.617L-141.156 286.235M-104.536 256.617L-167.057 268.173M-104.536 256.617L-185.413 250.144M-104.536 256.617L-112.703 213.341M-141.156 286.235L-168.022 293.46M-141.156 286.235L-167.057 268.173M-168.022 293.46L-167.057 268.173M-168.022 293.46L-182.439 326.031M-167.057 268.173L-185.413 250.144M-185.413 250.144L-112.703 213.341M-185.413 250.144L-120.016 166.805M-185.413 250.144L-219.273 230.822M-185.413 250.144L-195.985 184.828M-112.703 213.341L-94.3299 184.656M-112.703 213.341L-120.016 166.805M-50.1694 115.712L-120.016 166.805M-50.1694 115.712L-94.3299 184.656M-120.016 166.805L-94.3299 184.656M-120.016 166.805L-195.985 184.828M-120.016 166.805L-142.392 114.492M-120.016 166.805L-77.363 104.579M-120.016 166.805L-182.346 140.016M-195.985 184.828L-219.273 230.822M-195.985 184.828L-236.139 166.703M-195.985 184.828L-204.983 139.917M-195.985 184.828L-182.346 140.016M-142.392 114.492L-77.363 104.579M-142.392 114.492L-118.716 74.6184M-142.392 114.492L-182.346 140.016M-142.392 114.492L-180.534 113.101M-142.392 114.492L-165.733 87.466M-77.363 104.579L-118.716 74.6184M-118.716 74.6184L-78.5 80.5058L-104.79 56.3226M-118.716 74.6184L-104.79 56.3226M-118.716 74.6184L-133.652 43.5503M-118.716 74.6184L-165.733 87.466M-104.79 56.3226L-133.652 43.5503M-104.79 56.3226L-61.1305 44.2762L-79.4695 22.9835M-104.79 56.3226L-79.4695 22.9835M-133.652 43.5503L-79.4695 22.9835M-133.652 43.5503L-157.218 61.3959M-133.652 43.5503L-165.733 87.466M-133.652 43.5503L-164.665 41.7826M-133.652 43.5503L-133.165 30.0908M-133.652 43.5503L-86.9785 15.6078M-133.652 43.5503L-113.374 20.836M-219.273 230.822L-236.139 166.703M-219.273 230.822L-262.703 197.182M-219.273 230.822L-246.364 199.293M-236.139 166.703L-246.364 199.293M-236.139 166.703L-262.511 158.837M-236.139 166.703L-239.8 144.251M-236.139 166.703L-204.983 139.917M-236.139 166.703L-221.236 120.673M-262.703 197.182L-246.364 199.293M-262.703 197.182L-286.899 173.416M-246.364 199.293L-262.511 158.837M-246.364 199.293L-278.453 161.215M-246.364 199.293L-286.899 173.416M-262.511 158.837L-278.453 161.215M-262.511 158.837L-285.512 147.722M-262.511 158.837L-259.918 143.347M-262.511 158.837L-274.138 136.758M-262.511 158.837L-239.8 144.251M-278.453 161.215L-285.512 147.722M-278.453 161.215L-290.6 159.122M-278.453 161.215L-286.899 173.416M-285.512 147.722L-290.6 159.122M-285.512 147.722L-274.138 136.758M-290.6 159.122L-286.899 173.416M-274.138 136.758L-259.918 143.347M-274.138 136.758L-256.057 125.823M-259.918 143.347L-239.8 144.251M-259.918 143.347L-256.057 125.823M-256.057 125.823L-239.8 144.251M-256.057 125.823L-221.236 120.673M-256.057 125.823L-245.092 112.818M-256.057 125.823L-230.831 111.248M-239.8 144.251L-221.236 120.673M-204.983 139.917L-221.236 120.673M-204.983 139.917L-188.894 108.169M-204.983 139.917L-182.346 140.016M-221.236 120.673L-230.831 111.248M-221.236 120.673L-188.894 108.169M-221.236 120.673L-212.697 89.7077M-245.092 112.818L-230.831 111.248M-245.092 112.818L-245.031 100.58M-230.831 111.248L-245.031 100.58M-230.831 111.248L-219.119 97.3367M-230.831 111.248L-231.584 94.1121M-230.831 111.248L-241.211 91.2143M-245.031 100.58L-241.211 91.2143M-245.031 100.58L-249.996 87.5044L-241.211 91.2143M-188.894 108.169L-180.534 113.101M-188.894 108.169L-182.346 140.016M-188.894 108.169L-165.733 87.466M-188.894 108.169L-184.137 79.2267M-188.894 108.169L-212.697 89.7077M-182.346 140.016L-180.534 113.101M-180.534 113.101L-165.733 87.466M-165.733 87.466L-184.137 79.2267M-165.733 87.466L-177.782 65.7929M-165.733 87.466L-157.218 61.3959M-184.137 79.2267L-212.697 89.7077M-184.137 79.2267L-196.632 62.8547M-184.137 79.2267L-177.782 65.7929M-212.697 89.7077L-196.632 62.8547M-212.697 89.7077L-213.461 75.0188M-212.697 89.7077L-220.598 77.0272M-212.697 89.7077L-223.58 86.3965M-212.697 89.7077L-219.119 97.3367M-196.632 62.8547L-177.782 65.7929M-196.632 62.8547L-164.665 41.7826M-196.632 62.8547L-206.206 49.3511M-196.632 62.8547L-188.587 46.9808M-196.632 62.8547L-212.566 63.6007M-196.632 62.8547L-213.461 75.0188M-177.782 65.7929L-157.218 61.3959M-177.782 65.7929L-164.665 41.7826M-157.218 61.3959L-164.665 41.7826M-164.665 41.7826L-133.165 30.0908M-164.665 41.7826L-168.408 35.6472M-164.665 41.7826L-177.634 36.4227M-164.665 41.7826L-188.587 46.9808M-133.165 30.0908L-125.125 15.0326M-133.165 30.0908L-113.374 20.836M-133.165 30.0908L-168.408 35.6472M-133.165 30.0908L-162.048 21.3976M-133.165 30.0908L-163.762 28.7328M-102.455 8.60516L-86.9785 15.6078M-102.455 8.60516L-91.1052 2.53599M-102.455 8.60516L-130.102 4.40464M-102.455 8.60516L-125.125 15.0326M-102.455 8.60516L-113.374 20.836M-102.455 8.60516L-109.088 -6.10937M-86.9785 15.6078L-113.374 20.836M-86.9785 15.6078L-79.351 -0.675903M-86.9785 15.6078L-91.1052 2.53599M-74.7621 3.83144L-79.351 -0.675903M-74.7621 3.83144L-62.1735 1.43906M-74.7621 3.83144L-68.0221 -2.66587M-74.7621 3.83144L-73.4534 -6.36105M-79.351 -0.675903L-91.1052 2.53599M-79.351 -0.675903L-109.088 -6.10937M-79.351 -0.675903L-98.9783 -15.8554M-79.351 -0.675903L-75.5311 -10.0415M-79.351 -0.675903L-73.4534 -6.36105M-130.102 4.40464L-125.125 15.0326M-130.102 4.40464L-162.048 21.3976M-130.102 4.40464L-147.652 -7.09433M-130.102 4.40464L-120.36 -15.5412M-130.102 4.40464L-109.088 -6.10937M-125.125 15.0326L-113.374 20.836M-125.125 15.0326L-162.048 21.3976M-168.408 35.6472L-163.762 28.7328M-168.408 35.6472L-177.634 36.4227M-168.408 35.6472L-174.232 26.6473M-162.048 21.3976L-147.652 -7.09433M-162.048 21.3976L-171.995 -1.49004M-162.048 21.3976L-162.171 21.9237M-162.048 21.3976L-177.111 15.6205M-163.762 28.7328L-162.171 21.9237M-163.762 28.7328L-174.232 26.6473M-147.652 -7.09433L-120.36 -15.5412M-147.652 -7.09433L-136.691 -19.2841M-147.652 -7.09433L-162.694 -16.9506M-147.652 -7.09433L-171.995 -1.49004M-120.36 -15.5412L-109.088 -6.10937M-120.36 -15.5412L-98.9783 -15.8554M-120.36 -15.5412L-112.769 -24.4823M-120.36 -15.5412L-136.691 -19.2841M-109.088 -6.10937L-98.9783 -15.8554M-98.9783 -15.8554L-112.769 -24.4823M-98.9783 -15.8554L-96.3976 -28.8978L-97.1888 -28.6844M-98.9783 -15.8554L-72.9422 -24.7156M-98.9783 -15.8554L-85.8744 -37.4181M-98.9783 -15.8554L-75.5311 -10.0415M-112.769 -24.4823L-97.1888 -28.6844M-112.769 -24.4823L-136.691 -19.2841M-97.1888 -28.6844L-85.8744 -37.4181M-85.8744 -37.4181L-72.9422 -24.7156M-85.8744 -37.4181L-78.5659 -46.6365M-72.9422 -24.7156L-78.5659 -46.6365M-72.9422 -24.7156L-62.0264 -27.9312M-72.9422 -24.7156L-66.2553 -20.607M-72.9422 -24.7156L-56.5501 -33.2103M-78.5659 -46.6365L-56.5501 -33.2103M-78.5659 -46.6365L-60.615 -44.2861M-60.2678 -44.2407L-56.5501 -33.2103M-60.2678 -44.2407L-60.615 -44.2861M-56.5501 -33.2103L-57.8874 -17.3069M-56.5501 -33.2103L-62.0264 -27.9312M-75.5311 -10.0415L-72.2459 -13.7835M-75.5311 -10.0415L-67.2509 -13.1521M-75.5311 -10.0415L-73.7502 -6.88683M-136.691 -19.2841L-162.694 -16.9506M-162.694 -16.9506L-171.995 -1.49004M-162.694 -16.9506L-179.467 -16.2083M-171.995 -1.49004L-179.467 -16.2083M-171.995 -1.49004L-173.729 9.92436M-171.995 -1.49004L-194.919 -10.2432M-171.995 -1.49004L-187.438 -15.0194M-171.995 -1.49004L-188.362 2.10955M-179.467 -16.2083L-187.438 -15.0194M-177.634 36.4227L-174.232 26.6473M-177.634 36.4227L-181.352 25.3922M-177.634 36.4227L-191.041 34.7321M-177.634 36.4227L-195.262 40.4246M-177.634 36.4227L-188.587 46.9808M-174.232 26.6473L-162.171 21.9237M-174.232 26.6473L-177.111 15.6205M-174.232 26.6473L-181.352 25.3922M-177.111 15.6205L-173.729 9.92436M-177.111 15.6205L-188.362 2.10955M-177.111 15.6205L-183.429 15.2163M-173.729 9.92436L-188.362 2.10955M-188.362 2.10955L-194.919 -10.2432M-188.362 2.10955L-200.08 -2.02114M-188.362 2.10955L-197.646 14.3067M-194.919 -10.2432L-187.438 -15.0194M-194.919 -10.2432L-200.08 -2.02114M-200.08 -2.02114L-197.646 14.3067M-197.646 14.3067L-183.429 15.2163M-197.646 14.3067L-194.344 24.5194M-191.041 34.7321L-181.352 25.3922M-191.041 34.7321L-194.344 24.5194M-191.041 34.7321L-195.262 40.4246M-181.352 25.3922L-183.429 15.2163M-181.352 25.3922L-194.344 24.5194M-183.429 15.2163L-190.545 21.2817L-194.344 24.5194M-195.262 40.4246L-188.587 46.9808M-195.262 40.4246L-206.206 49.3511M-195.262 40.4246L-209.972 45.6522M-217.94 48.4838L-222.56 52.1439M-217.94 48.4838L-215.044 56.2471M-217.94 48.4838L-206.206 49.3511M-217.94 48.4838L-209.972 45.6522M-222.56 52.1439L-224.279 58.6542M-222.56 52.1439L-215.044 56.2471M-224.279 58.6542L-215.044 56.2471M-224.279 58.6542L-223.502 70.8955M-215.044 56.2471L-206.206 49.3511M-215.044 56.2471L-212.566 63.6007M-215.044 56.2471L-223.502 70.8955M-206.206 49.3511L-188.587 46.9808M-206.206 49.3511L-209.972 45.6522M-206.206 49.3511L-212.566 63.6007M-212.566 63.6007L-213.461 75.0188M-213.461 75.0188L-220.598 77.0272M-213.461 75.0188L-223.502 70.8955M-223.502 70.8955L-213.408 64.4129M-223.502 70.8955L-229.367 70.0539M-223.502 70.8955L-227.715 74.9563M-223.502 70.8955L-220.598 77.0272M-229.367 70.0539L-227.715 74.9563M-229.367 70.0539L-236.932 71.6415M-227.715 74.9563L-236.932 71.6415M-227.715 74.9563L-220.598 77.0272M-227.715 74.9563L-239.493 83.0633M-227.715 74.9563L-223.58 86.3965M-220.598 77.0272L-223.58 86.3965M-223.58 86.3965L-219.119 97.3367M-223.58 86.3965L-239.915 83.4694M-219.119 97.3367L-231.584 94.1121M-231.584 94.1121L-239.915 83.4694M-231.584 94.1121L-241.211 91.2143M-241.211 91.2143L-239.915 83.4694M-239.915 83.4694L-246.172 77.323L-249.992 86.6886L-239.915 83.4694ZM-239.915 83.4694L-236.932 71.6415M-246.168 76.5071L-236.932 71.6415M-163.278 350.591L-174.329 380.729L-139.471 368.237M-163.278 350.591L-139.471 368.237M-163.278 350.591L-182.439 326.031M-163.278 350.591L-211.191 374.857L-182.439 326.031M-46.992 -16.4433L-51.6545 -6.26547M-46.992 -16.4433L-57.8874 -17.3069M-42.0882 8.86986L-51.6545 -6.26547M-42.0882 8.86986L-53.4843 0.36993M-51.6545 -6.26547L-53.4843 0.36993M-51.6545 -6.26547L-57.8874 -17.3069M-51.6545 -6.26547L-62.0959 -14.0619M-57.8874 -17.3069L-66.2553 -20.607M-57.8874 -17.3069L-62.0264 -27.9312M-62.1735 1.43906L-64.7256 8.7706M-62.1735 1.43906L-55.9242 9.21712L-53.4843 0.36993M-62.1735 1.43906L-68.0221 -2.66587M-62.1735 1.43906L-53.4843 0.36993M-53.4843 0.36993L-63.9135 -9.87404M-53.4843 0.36993L-68.4147 -7.97068M-53.4843 0.36993L-62.0959 -14.0619M-53.4843 0.36993L-68.0221 -2.66587M-66.2553 -20.607L-62.0264 -27.9312M-66.2553 -20.607L-62.5131 -14.4717L-67.2509 -13.1521M-66.2553 -20.607L-67.2509 -13.1521M-66.2553 -20.607L-68.9607 -17.5254M-63.9135 -9.87404L-67.2509 -13.1521M-63.9135 -9.87404L-62.0959 -14.0619M-63.9135 -9.87404L-68.4147 -7.97068M-68.0221 -2.66587L-68.4147 -7.97068M-68.0221 -2.66587L-73.4534 -6.36105M-73.4534 -6.36105L-68.4147 -7.97068M-73.4534 -6.36105L-73.7502 -6.88683M-68.4147 -7.97068L-67.2509 -13.1521M-67.2509 -13.1521L-68.9607 -17.5254M-67.2509 -13.1521L-72.2459 -13.7835M-67.2509 -13.1521L-73.7502 -6.88683M-68.9607 -17.5254L-72.2459 -13.7835" stroke="#F7F6F2"/>
</svg>
