<svg width="108" height="39" viewBox="0 0 108 39" fill="none" xmlns="http://www.w3.org/2000/svg">
    <path d="M0.468262 18.1486V1.0498H5.41438V13.8893H11.2154V18.0868L0.468262 18.1486Z" fill="#111429"/>
    <path d="M15.8564 0.988281H27.1531V5.18581H20.7415V7.46976H26.2372V11.4204H20.7415V13.9512H27.5806V18.1488H15.8564V0.988281Z" fill="#111429"/>
    <path d="M42.9691 0.988281H48.4038L39.5496 18.334H39.3053L30.4512 0.988281H35.8858L37.9619 5.49445C38.5115 6.66729 39 7.84013 39.3664 9.01297H39.4275C39.7938 7.7784 40.2823 6.60556 40.893 5.49445L42.9691 0.988281Z" fill="#111429"/>
    <path d="M57.1351 18.1486H52.25V1.0498H57.1351V18.1486Z" fill="#111429"/>
    <path d="M75.2079 0.988281V5.18581H70.8724V18.1488H65.9263V5.18581H61.5908V0.988281H75.2079Z" fill="#111429"/>
    <path d="M79.728 0.988281H91.0858V5.18581H84.6741V7.46976H90.1698V11.4204H84.6741V13.9512H91.4522V18.1488H79.728V0.988281Z" fill="#111429"/>
    <path d="M96.2754 0.988281H107.633V5.18581H101.222V7.46976H106.717V11.4204H101.222V13.9512H108V18.1488H96.2754V0.988281Z" fill="#111429"/>
    <path d="M1.3833 38.7042V21.6055H3.15413V37.2228H10.6649V38.766L1.3833 38.7042Z" fill="#111429"/>
    <path d="M21.7174 21.2959L29.4724 38.7033H27.5795L25.7476 34.5675H17.6872L15.9164 38.7033H14.0234L21.7174 21.2959ZM25.1369 33.086C23.9157 30.2465 22.8776 27.7774 21.7785 25.1231C20.6793 27.7774 19.6413 30.3082 18.42 33.086H25.1369Z" fill="#111429"/>
    <path d="M45.9597 33.9511C45.9597 36.8524 43.7004 38.7042 40.5862 38.7042H34.7852V21.6055H39.9755C43.2119 21.6055 45.288 23.4573 45.288 26.2351C45.3491 27.7166 44.4942 29.0746 43.1508 29.7536C44.8606 30.4326 45.9597 32.0993 45.9597 33.9511ZM41.441 29.1981C42.6623 28.8277 43.5172 27.6549 43.3951 26.2968C43.3951 24.3215 42.1127 23.0252 39.9755 23.0252H36.4949V29.1363L41.441 29.1981ZM36.4949 37.2228H40.5251C42.6012 37.2228 44.1278 35.9265 44.1278 33.8894C44.2499 32.2228 42.9676 30.7413 41.3189 30.6178C41.2578 30.6178 41.1357 30.6178 41.0747 30.6178H36.4949V37.2228Z" fill="#111429"/>
    <path d="M51.6372 37.9626V36.1724C53.1028 36.9132 54.6904 37.3453 56.3391 37.3453C58.5374 37.3453 60.2471 36.3576 60.2471 34.6292C60.2471 32.9008 59.3312 31.9749 56.3391 30.8638C52.9806 29.6292 51.5762 28.2095 51.5762 25.7403C51.5762 22.9008 54.0187 21.2959 57.0108 21.2959C58.4152 21.2959 59.8197 21.6045 61.102 22.1601V23.8885C59.8197 23.2712 58.4763 22.9626 57.0719 22.9008C54.9346 22.9008 53.347 23.9502 53.347 25.6169C53.347 27.2836 54.1408 28.2095 57.194 29.3206C60.5525 30.5552 62.018 31.9132 62.018 34.3823C62.018 37.2218 59.7586 38.8885 56.4612 38.8885C54.8125 39.0119 53.1638 38.6416 51.6372 37.9626Z" fill="#111429"/>
</svg>