<svg width="50" height="50" viewBox="0 0 50 50" fill="none" xmlns="http://www.w3.org/2000/svg">
    <path d="M4.1523 14.1358L14.8384 20.1235C14.8384 20.0617 14.8994 20.0617 14.8994 20L14.9605 19.8765C15.0216 19.7531 15.0826 19.6296 15.2047 19.5062C15.2658 19.4444 15.2658 19.3827 15.3269 19.2593L4.57974 13.0247C4.51868 13.1481 4.51868 13.2099 4.45762 13.3333L3.29741 12.6543C3.23635 12.8395 3.11422 12.963 2.9921 13.1481L4.27443 13.8272C4.21336 13.9506 4.21336 14.0123 4.1523 14.1358ZM3.41954 17.1605L14.2888 21.4815L14.3499 21.2346C14.4109 21.1111 14.472 20.9259 14.533 20.8025C14.5941 20.679 14.5941 20.6173 14.6552 20.5556L3.66379 15.9877C3.66379 16.1111 3.60273 16.1728 3.60273 16.2963L1.8319 15.5556C1.77083 15.7407 1.70977 15.9259 1.64871 16.0494L3.4806 16.7901C3.4806 16.9136 3.4806 17.037 3.41954 17.1605ZM5.37356 11.2346L15.6322 18.8889C15.6932 18.8272 15.7543 18.7654 15.8154 18.7037L15.8764 18.642L16.1207 18.3333C16.1818 18.2716 16.2428 18.2099 16.3039 18.0864L5.86207 10.1852L5.67888 10.4321L5.00718 9.93827L4.70187 10.3704L5.49569 10.9259C5.43463 11.0494 5.37356 11.1111 5.37356 11.2346ZM19.9066 15.1235C19.9677 15.0617 20.0287 15.0617 20.1509 15L20.5783 14.8148L20.8226 14.7531L15.449 1.97531L15.3879 1.85185L14.3499 2.28395L14.4109 2.46914L19.9066 15.1235ZM6.96121 8.45679L16.4871 17.716C16.5481 17.6543 16.6092 17.5926 16.6703 17.5309C16.7924 17.4074 16.8534 17.284 16.9756 17.2222L17.1588 17.0988L7.6329 7.53086L7.44971 7.77778L7.1444 7.53086C7.02227 7.65432 6.90014 7.77778 6.77802 7.90123L7.08333 8.20988L6.96121 8.45679ZM3.11422 20.1852L13.9224 22.8395C13.9224 22.7778 13.9835 22.6543 13.9835 22.5926C13.9835 22.4691 14.0445 22.3457 14.1056 22.1605C14.1056 22.1605 14.1056 22.1605 14.1056 22.0988C14.1056 22.037 14.1667 21.9136 14.1667 21.8519L3.17529 18.9506C3.17529 19.0741 3.17529 19.1358 3.17529 19.2593L0.854885 18.642C0.793822 18.8272 0.732759 19.0123 0.732759 19.1975L3.17529 19.8148L3.11422 20.1852ZM14.3499 40.0617L18.5632 34.2593C18.5022 34.1975 18.4411 34.1358 18.38 34.0741C18.319 34.0123 18.1358 33.8889 18.0137 33.7654L17.7083 33.642L13.3118 39.4444C13.3728 39.5062 13.495 39.5679 13.556 39.6296L9.64799 44.9383L10.0754 45.2469L13.9835 39.9383L14.3499 40.0617ZM18.6243 15.8025L18.8685 15.679L19.2349 15.4321L19.4792 15.3086L12.579 3.39506L12.518 3.27161L11.5409 3.88889L11.602 4.01235L18.6243 15.8025ZM8.60991 35.4321L15.5101 31.1728C15.449 31.1111 15.449 31.0494 15.3879 30.9259C15.3269 30.8025 15.2047 30.679 15.1437 30.4938L15.0216 30.2469L7.87716 34.4444C7.93822 34.5062 7.99928 34.6296 8.06035 34.6914L3.35848 37.5309L3.66379 38.0247L8.42673 35.1852L8.60991 35.4321ZM7.02227 33.3951L14.8384 29.9383L14.7162 29.6296L14.533 29.1975C14.472 29.1358 14.472 29.0123 14.472 28.9506L6.41164 32.3457L6.59483 32.5926L1.95402 34.6296C2.01509 34.8148 2.07615 34.9383 2.19828 35.1235L6.90014 33.0864L7.02227 33.3951ZM3.17529 23.0864L13.7392 24.2593C13.7392 24.1975 13.7392 24.0741 13.7392 24.0123C13.7392 23.8889 13.8003 23.7037 13.8003 23.5185L13.8614 23.2716L3.17529 21.9136C3.17529 22.037 3.17529 22.0988 3.17529 22.2222L0.244253 21.8519C0.244253 22.037 0.18319 22.2222 0.18319 22.4074L3.23635 22.7778C3.17529 22.9012 3.17529 22.963 3.17529 23.0864ZM10.3807 37.2222L16.3649 32.3457L16.1818 32.0988C16.0596 31.9753 15.9986 31.8519 15.8764 31.7284L15.7543 31.4815L9.52586 36.4198L9.77012 36.6049L5.19037 40.2469C5.25144 40.4321 5.37356 40.6173 5.49569 40.7407L10.1976 37.037L10.3807 37.2222ZM3.72486 25.9259L13.8003 25.7407V25.4938C13.8003 25.3704 13.8003 25.2469 13.8003 25.1235C13.8003 25 13.8003 24.8765 13.8003 24.7531H3.4806C3.4806 24.8765 3.4806 24.9383 3.54167 25.0617L0 25.1235C0 25.3086 0 25.4938 0 25.679L3.60273 25.6173C3.66379 25.7407 3.66379 25.8025 3.72486 25.9259ZM5.61782 31.1111L14.2888 28.5802C14.2888 28.5185 14.2277 28.3951 14.2277 28.3333C14.1667 28.2099 14.1667 28.0247 14.1056 27.9012C14.1056 27.8395 14.0445 27.716 14.0445 27.6543L5.12931 30.1235C5.19037 30.2469 5.19037 30.3086 5.25144 30.4321L0.854885 31.6667C0.915948 31.8519 0.915948 32.037 0.977012 32.2222L5.49569 30.8642C5.55675 30.9259 5.55675 30.9877 5.61782 31.1111ZM4.51868 28.642L13.9224 27.1605L13.8614 26.9136C13.8614 26.8519 13.8614 26.7901 13.8614 26.7284C13.8614 26.6667 13.8614 26.5432 13.8003 26.4198L13.7392 26.1728L4.09124 27.4691C4.09124 27.5926 4.1523 27.6543 4.21336 27.7778L0.244253 28.3951C0.244253 28.5802 0.305316 28.7654 0.305316 28.9506L4.39655 28.3333L4.51868 28.642ZM17.5251 16.6667L17.7083 16.4815C17.8305 16.358 17.9526 16.2963 18.0747 16.2346L18.2579 16.0494L9.89224 5.18518L9.83118 5.12346L9.34267 5.55556L9.15948 5.67901V5.74074C9.09842 5.80247 9.03736 5.8642 8.97629 5.98765L17.5251 16.6667ZM46.1027 18.3333L35.1114 21.6049C35.1114 21.6667 35.1724 21.7901 35.1724 21.8519V21.9136C35.2335 22.037 35.2335 22.1605 35.2945 22.3457C35.3556 22.5309 35.3556 22.5309 35.3556 22.5926L46.2249 19.5679C46.2249 19.4444 46.2249 19.3827 46.2249 19.2593L48.5453 18.5802C48.4842 18.3951 48.4842 18.2099 48.4231 18.0247L46.2249 18.642C46.1027 18.5802 46.1027 18.4568 46.1027 18.3333ZM45.5532 15.3704L34.5618 20.2469L34.6839 20.4938C34.745 20.6173 34.806 20.8025 34.8671 20.9259C34.9282 20.9877 34.9282 21.1111 34.9892 21.1728L45.7974 16.5432C45.7974 16.4198 45.7364 16.358 45.7364 16.2346L47.4461 15.4938C47.3851 15.3086 47.324 15.1852 47.2019 15L45.5532 15.679V15.3704ZM21.25 14.5679L21.4943 14.5062C21.6164 14.4444 21.7996 14.4444 21.9217 14.3827L22.166 14.321L18.5022 0.987654L18.4411 0.802469L17.342 1.11111L17.403 1.23457L21.25 14.5679ZM33.1573 18.0247C33.2795 18.1481 33.3405 18.2716 33.4626 18.3951L33.6458 18.5802L43.7823 10.6173L43.6602 10.3086L44.2708 9.81481C44.1487 9.69136 44.0876 9.50617 43.9655 9.38272L43.3549 9.87654L43.1717 9.62963L32.9741 17.8395C33.0352 17.9012 33.0963 17.963 33.1573 18.0247ZM32.1193 16.9753C32.2414 17.0988 32.3635 17.1605 32.4856 17.284L32.6688 17.4691L42.0115 7.90123L41.8283 7.65432L42.0726 7.40741C41.9504 7.28395 41.8283 7.16049 41.6451 7.03704L41.4619 7.22222C41.4009 7.16049 41.3398 7.03704 41.2787 6.97531L31.9361 16.7901L32.1193 16.9753ZM46.2249 21.358L35.4167 22.963C35.4167 23.0247 35.4167 23.1481 35.4777 23.2099C35.5388 23.2716 35.5388 23.5185 35.5388 23.7037C35.5388 23.8889 35.5388 23.8889 35.5999 23.9506L46.1638 22.4691C46.1638 22.3457 46.1638 22.284 46.1638 22.1605L49.0948 21.7284C49.0948 21.5432 49.0338 21.358 49.0338 21.1728L46.2249 21.6049C46.2249 21.5432 46.2249 21.4198 46.2249 21.358ZM29.7989 15.3086L30.2263 15.5556L30.4706 15.679L37.1875 3.64198L37.2486 3.51852L36.2716 2.96296L36.2105 3.08642L29.6157 15.1852L29.7989 15.3086ZM45.9806 24.1975L35.5999 24.4444C35.5999 24.5062 35.5999 24.6296 35.5999 24.6914V24.7531C35.5999 24.8765 35.5999 24.9383 35.5999 25.0617C35.5999 25.1852 35.5999 25.1235 35.5999 25.1235C35.5999 25.1235 35.5999 25.3086 35.5999 25.3704H45.7974C45.7974 25.2469 45.8585 25.1852 45.8585 25.0617L49.3391 25C49.3391 24.8148 49.3391 24.6296 49.3391 24.4444L45.9195 24.5062C45.9195 24.4444 45.9806 24.321 45.9806 24.1975ZM33.9512 19.1975C34.0122 19.2593 34.0733 19.3827 34.1343 19.5062C34.1343 19.5679 34.1954 19.5679 34.1954 19.6296C34.2565 19.6914 34.3175 19.7531 34.3175 19.8765L44.9425 13.5802L44.8204 13.2716L45.9806 12.5926L45.6753 12.0988L44.6372 12.716C44.5762 12.6543 44.5762 12.5309 44.5151 12.4074L33.829 19.0123C33.8901 19.0741 33.8901 19.1358 33.9512 19.1975ZM22.5934 14.1975L22.8376 14.1358L23.204 14.0741H23.2651L23.5093 14.0123L21.6774 0.308642V0.185185L20.5172 0.37037V0.555556L22.5934 14.1975ZM31.0201 16.0494C31.1422 16.1111 31.2644 16.2346 31.3865 16.358L31.5697 16.5432L39.8743 5.49383V5.4321C39.63 5.18519 39.3247 4.93827 39.0194 4.62963L38.8973 4.75309L30.7759 15.8642C30.898 15.9259 30.9591 15.9877 31.0201 16.0494ZM26.4404 14.1358L28.1501 0.432099V0.246914L27.051 0.123457V0.246914L25.5244 14.0123H25.7687L26.2572 14.0741L26.4404 14.1358ZM27.1121 14.2593L27.3563 14.321L27.5395 14.3827C27.6006 14.3827 27.7227 14.4444 27.7838 14.4444L31.2033 1.04938L31.2644 0.864197L30.2263 0.617284L30.1652 0.740741L26.8678 14.1975L27.1121 14.2593ZM28.5165 14.6914C28.6387 14.7531 28.8218 14.8148 28.944 14.8765L29.1882 15L34.3786 2.16049L34.4397 2.03704L33.4016 1.60494L33.3405 1.79012L28.3333 14.6914H28.5165ZM12.2737 38.7654L17.403 33.3333L17.2198 33.1481C17.0977 33.0247 16.9756 32.963 16.9145 32.8395L16.7313 32.6543L11.4188 38.0247C11.4799 38.0864 11.602 38.1481 11.6631 38.2099L7.32759 42.716C7.44971 42.8395 7.57184 42.963 7.69397 43.0864L12.0905 38.5185L12.2737 38.7654ZM32.1803 41.358L29.4325 35.0617L29.1882 35.1852C29.0661 35.2469 28.8829 35.3086 28.7608 35.3704C28.6997 35.4321 28.5776 35.4321 28.5165 35.4938L31.1422 41.7284L31.4476 41.6049L34.1954 48.0864L34.6839 47.8395L31.9361 41.4198L32.1803 41.358ZM36.3937 39.1975L31.8139 33.4568L31.6307 33.642L31.5086 33.7037C31.4476 33.7654 31.3254 33.8272 31.2644 33.8889L31.0812 34.0123L35.4167 39.7531L35.6609 39.5679L39.6911 44.7531L40.1185 44.4444L36.0884 39.321C36.2105 39.321 36.3326 39.2593 36.3937 39.1975ZM34.3175 40.3704L30.6537 34.321L30.4095 34.4444L30.1652 34.5679C30.1042 34.6296 30.0431 34.6296 29.982 34.6914C29.921 34.7531 29.8599 34.8148 29.7378 34.8148L33.2184 40.8642L33.5848 40.7407L37.0654 46.6049L37.5539 46.2963L34.1343 40.4321L34.3175 40.3704ZM29.982 42.037L28.0891 35.6173L27.8448 35.679L27.4174 35.8025L27.1731 35.8642L28.8829 42.284L29.1882 42.2222L31.1422 49.1358L31.6918 49.0123L29.7378 42.0988L29.982 42.037ZM27.7227 42.4691L26.6846 35.9877L26.4404 36.0494H26.2572L26.0129 36.1111L25.7687 36.1728L26.6236 42.5926H26.9289L27.967 49.7531L28.5165 49.6914L27.4785 42.4691H27.7227ZM25.2802 36.1111H25.0359C24.9138 36.1111 24.7917 36.1111 24.6695 36.1111H24.3032V42.6543C24.4253 42.6543 24.4864 42.6543 24.6085 42.6543L24.7306 50C24.9138 50 25.097 50 25.2802 50L25.158 42.716H25.4634L25.2802 36.1111ZM40.1796 36.0494L33.768 31.2963C33.7069 31.358 33.6458 31.4198 33.6458 31.4815C33.6458 31.5432 33.4626 31.7284 33.3405 31.8519C33.2184 31.9753 33.2184 31.9753 33.1573 32.037L39.3247 36.7901L39.569 36.6049L44.2708 40.1852C44.393 40.0617 44.5151 39.8765 44.5762 39.7531L39.9353 36.2346C40.0575 36.2346 40.1185 36.1111 40.1796 36.0494ZM44.454 29.5679L35.4167 27.3457C35.4167 27.4074 35.3556 27.5309 35.3556 27.5926C35.3556 27.6543 35.2945 27.8395 35.2945 27.963V28.0864C35.2945 28.1481 35.2335 28.2716 35.2335 28.3333L43.9655 30.6173C44.0266 30.4938 44.0876 30.4321 44.0876 30.3086L48.4842 31.4198C48.5453 31.2346 48.6063 31.0494 48.6063 30.8642L44.3319 29.7531C44.393 29.7531 44.454 29.6296 44.454 29.5679ZM45.37 26.9753L35.5999 25.8642C35.5999 25.9877 35.5999 26.0494 35.5999 26.1111C35.5999 26.1728 35.5388 26.4198 35.5388 26.6049C35.5388 26.7901 35.5388 26.7901 35.4777 26.8519L45.0036 28.0864C45.0036 27.963 45.0647 27.9012 45.1257 27.7778L49.0948 28.2716C49.0948 28.0864 49.1559 27.9012 49.1559 27.716L45.2478 27.2222C45.3089 27.1605 45.37 27.037 45.37 26.9753ZM23.6315 36.1111C23.5093 36.1111 23.3262 36.0494 23.143 36.0494L22.8987 35.9877L22.0438 42.5309L22.3491 42.5926L21.4943 49.8148C21.6774 49.8148 21.8606 49.8765 22.0438 49.8765L22.8987 42.5926H23.204L23.8757 36.1111H23.6315ZM43.2328 31.9753L34.9892 28.7654C34.9892 28.8272 34.9282 28.9506 34.9282 29.0123V29.0741C34.8671 29.1975 34.8671 29.321 34.806 29.4444C34.745 29.5679 34.745 29.5679 34.6839 29.6914L42.6832 33.0247C42.7443 32.963 42.8053 32.8395 42.8664 32.7778L47.5072 34.6914C47.5683 34.5062 47.6293 34.3827 47.6904 34.1975L43.1106 32.3457L43.2328 31.9753ZM41.8283 34.1358L34.5007 30.0617C34.4397 30.1235 34.4397 30.2469 34.3786 30.3086C34.3175 30.3704 34.2565 30.5556 34.1343 30.679L34.0122 30.9259L41.0956 35.0617L41.2787 34.8148L46.0417 37.5309C46.1638 37.3457 46.2249 37.2222 46.347 37.037L41.6451 34.3827C41.7062 34.2593 41.7672 34.1975 41.8283 34.1358ZM38.3477 37.716L32.852 32.4074L32.6688 32.5926C32.5467 32.716 32.4856 32.8395 32.3635 32.963L32.1803 33.1481L37.4318 38.4568L37.676 38.2716L42.1336 42.6543C42.2558 42.5309 42.3779 42.4074 42.5 42.2222L38.1035 37.9012C38.1645 37.8395 38.2866 37.8395 38.3477 37.716ZM18.6853 41.8519L21.0668 35.5556L20.8226 35.4321C20.7004 35.3704 20.5172 35.3086 20.3951 35.3086C20.273 35.3086 20.2119 35.1852 20.1509 35.1852L17.5862 41.4815L17.8915 41.6049L15.2658 48.1481C15.449 48.2099 15.6322 48.2716 15.7543 48.3333L18.38 41.7284L18.6853 41.8519ZM22.166 35.8642C22.1049 35.8642 22.0438 35.8025 21.9828 35.8025L21.7385 35.7407L21.4943 35.679L19.7845 42.0988C19.9066 42.0988 19.9677 42.1605 20.0898 42.1605L18.319 49.1358L18.8685 49.2593L20.6394 42.284L20.9447 42.3457L22.4713 35.9259L22.166 35.8642ZM16.4871 41.0494L19.7845 34.9383L19.5402 34.8765C19.4181 34.8148 19.296 34.7531 19.1128 34.6296L18.9296 34.5062L15.449 40.6173L15.7543 40.7407L12.4569 46.7284C12.6401 46.8518 12.7622 46.9136 12.9454 47.037L16.3039 40.9877L16.4871 41.0494ZM24.7306 14.0123H25.0359L24.9138 0.123457V0H23.7536V0.185185L23.9978 14.0123H24.2421C24.3642 14.0123 24.4864 14.0123 24.6085 14.0123H24.7306Z" fill="url(#paint0_linear)"/>
    <defs>
        <linearGradient id="paint0_linear" x1="24.8108" y1="13.9569" x2="24.6752" y2="50" gradientUnits="userSpaceOnUse">
            <stop stop-color="#392D69"/>
            <stop offset="1" stop-color="#C6D1DF"/>
        </linearGradient>
    </defs>
</svg>