<svg width="130" height="48" viewBox="0 0 130 48" fill="none" xmlns="http://www.w3.org/2000/svg">
    <g clip-path="url(#clip0)">
        <path d="M69.0384 25.7848V17.452L64.4071 24.7713L59.7758 17.452V25.6722H57.4062V9.45703L64.4071 20.3797L71.4079 9.45703V25.7848H69.0384Z" fill="black"/>
        <path d="M78.6252 25.2226C76.7942 24.4343 75.394 22.9705 74.6401 21.0562C74.2093 20.0427 74.1016 19.0293 74.1016 18.0159C74.1016 17.0024 74.317 15.8764 74.6401 14.9755C75.0709 14.0747 75.6094 13.1738 76.2557 12.4982C77.6558 11.0343 79.5945 10.2461 81.5332 10.2461C82.5026 10.2461 83.4719 10.4713 84.4412 10.8091C86.2722 11.5974 87.6724 13.0612 88.4263 14.9755C88.8572 15.989 88.9649 17.0024 88.9649 18.0159C88.9649 19.0293 88.7494 20.0427 88.4263 21.0562C88.1032 21.957 87.5647 22.8579 86.8108 23.5335C86.1645 24.2091 85.3029 24.7722 84.4412 25.2226C83.4719 25.673 82.5026 25.7856 81.5332 25.7856C80.5639 25.7856 79.5945 25.5604 78.6252 25.2226ZM77.8712 14.1873C75.9325 16.3268 75.9325 19.5923 77.8712 21.7318C79.9176 23.7587 83.0411 23.7587 85.0875 21.7318C87.0262 19.5923 87.0262 16.3268 85.0875 14.1873C84.1181 13.1738 82.8257 12.6108 81.5332 12.6108C80.133 12.6108 78.8406 13.2864 77.8712 14.1873Z" fill="black"/>
        <path d="M93.9193 15.7629V25.7848H91.5498V9.45703L100.92 20.2671V10.2453H103.29V26.573L93.9193 15.7629Z" fill="black"/>
        <path d="M114.705 25.7856L108.782 18.6915V25.7856H106.412V10.2461H108.782V16.6646L113.521 10.2461H116.429L110.936 17.7906L117.506 25.8982H114.705V25.7856Z" fill="black"/>
        <path d="M120.198 10.2461V12.3856H129.138V10.2461H120.198ZM120.198 25.7856H129.138V23.6461H120.198V25.7856ZM127.953 16.552H120.198V18.8041H127.953V16.552Z" fill="black"/>
        <path d="M60.3151 31.8672H61.3922V36.8218H60.4228L58.161 33.6689V36.8218H57.084V31.8672H58.0533L60.4228 35.0201L60.3151 31.8672Z" fill="black"/>
        <path d="M64.5151 35.5835C64.7305 35.8087 65.0536 35.9213 65.2691 35.9213C65.5922 35.9213 65.8076 35.8087 66.023 35.5835C66.2384 35.3582 66.3461 35.0204 66.3461 34.6826V31.7549H67.4232V34.6826C67.4232 35.0204 67.3155 35.4709 67.2077 35.8087C66.9923 36.1465 66.7769 36.3717 66.4538 36.5969C65.6999 36.9347 64.9459 36.9347 64.192 36.5969C63.8689 36.4843 63.6535 36.1465 63.4381 35.9213C63.2227 35.5835 63.2227 35.133 63.2227 34.7952V31.8675H64.2997V34.7952C64.192 35.0204 64.2997 35.3582 64.5151 35.5835Z" fill="black"/>
        <path d="M68.7158 31.8672H72.7009V32.768H71.3007V36.8218H70.2237V32.768H68.8235V31.8672H68.7158Z" fill="black"/>
        <path d="M77.0096 36.8218L76.2557 35.3579H75.1786V36.8218H74.1016V31.8672H76.148C76.6865 31.8672 77.1173 31.9798 77.5481 32.3176C77.8712 32.6554 78.0866 33.1058 78.0866 33.5563C78.0866 33.8941 77.9789 34.2319 77.8712 34.5697C77.7635 34.7949 77.4404 35.0201 77.225 35.1327L78.1944 36.8218H77.0096ZM75.1786 34.4571H76.148C76.3634 34.4571 76.6865 34.3445 76.7942 34.2319C77.0096 34.1193 77.0096 33.8941 77.0096 33.5563C77.0096 33.3311 76.9019 33.1058 76.7942 32.9932C76.5788 32.8806 76.3634 32.768 76.148 32.768H75.1786V34.4571Z" fill="black"/>
        <path d="M83.2563 36.8218L82.9332 35.8084H80.7791L80.456 36.8218H79.3789L81.4253 31.8672H82.5024L84.5488 36.8218H83.2563ZM81.1022 34.9075H82.6101L81.8561 32.9932L81.1022 34.9075Z" fill="black"/>
        <path d="M88.5336 32.8806C88.3182 32.768 88.1028 32.768 87.8874 32.768C87.1334 32.768 86.4872 33.4437 86.4872 34.3445C86.4872 34.5697 86.5949 34.9075 86.7026 35.1327C86.918 35.5832 87.4565 35.921 87.9951 35.921C88.2105 35.921 88.4259 35.8084 88.6413 35.8084C88.8567 35.6958 89.0721 35.5832 89.1798 35.3579L89.8261 36.0336C89.6107 36.2588 89.2875 36.484 88.9644 36.7092C88.6413 36.8218 88.2105 36.9344 87.8874 36.9344C87.4565 36.9344 87.0257 36.8218 86.5949 36.5966C86.2718 36.3714 85.9487 36.0336 85.7333 35.6958C85.5179 35.2453 85.4102 34.7949 85.4102 34.3445C85.4102 33.8941 85.5179 33.4437 85.7333 33.1058C85.9487 32.768 86.2718 32.4302 86.5949 32.205C87.0257 31.9798 87.4565 31.8672 87.8874 31.8672C88.2105 31.8672 88.6413 31.9798 88.9644 32.0924C89.2875 32.205 89.6107 32.4302 89.8261 32.6554L89.1798 33.4437C88.8567 33.2185 88.749 32.9932 88.5336 32.8806Z" fill="black"/>
        <path d="M91.1182 31.8672H94.7801V32.768H92.1952V33.8941H94.457V34.7949H92.1952V35.921H94.7801V36.8218H91.1182V31.8672Z" fill="black"/>
        <path d="M97.7961 35.5835C98.0115 35.8087 98.3346 35.9213 98.55 35.9213C98.8731 35.9213 99.0885 35.8087 99.304 35.5835C99.5194 35.3582 99.6271 35.0204 99.6271 34.6826V31.7549H100.704V34.6826C100.704 35.0204 100.596 35.4709 100.489 35.8087C100.273 36.1465 100.058 36.3717 99.7348 36.5969C99.4117 36.8221 98.9808 36.8221 98.6577 36.8221C98.3346 36.8221 97.9038 36.7095 97.5807 36.5969C97.2576 36.4843 97.0422 36.1465 96.8267 35.9213C96.6113 35.5835 96.6113 35.133 96.6113 34.7952V31.8675H97.6884V34.7952C97.473 35.0204 97.5807 35.3582 97.7961 35.5835Z" fill="black"/>
        <path d="M101.889 31.8672H105.874V32.768H104.474V36.8218H103.397V32.768H101.889V31.8672Z" fill="black"/>
        <path d="M107.273 31.8672H108.35V36.8218H107.273V31.8672Z" fill="black"/>
        <path d="M113.09 32.8825C112.659 32.6573 112.121 32.6573 111.69 32.8825C111.475 32.9951 111.259 33.2203 111.152 33.4455C111.044 33.6707 110.936 33.896 110.936 34.2338C110.936 34.459 111.044 34.7968 111.152 35.022C111.259 35.2472 111.475 35.4724 111.69 35.585C112.121 35.8102 112.659 35.8102 113.09 35.585C113.306 35.4724 113.521 35.3598 113.736 35.1346L114.383 35.8102C114.167 36.0355 113.844 36.2607 113.521 36.4859C113.198 36.5985 112.767 36.7111 112.444 36.7111C112.013 36.7111 111.582 36.5985 111.152 36.3733C110.828 36.1481 110.505 35.8102 110.29 35.4724C110.075 35.022 109.967 34.5716 109.967 34.1212C109.967 33.2203 110.398 32.3195 111.259 31.8691C111.69 31.6439 112.121 31.5312 112.552 31.5312C112.875 31.5312 113.198 31.6439 113.521 31.7565C113.844 31.8691 114.167 32.0943 114.383 32.3195L113.736 33.1077C113.413 33.1077 113.306 32.9951 113.09 32.8825Z" fill="black"/>
        <path d="M119.23 36.8218L118.907 35.8084H116.753L116.43 36.8218H115.353L117.399 31.8672H118.476L120.522 36.8218H119.23ZM116.968 34.9075H118.476L117.722 32.9932L116.968 34.9075Z" fill="black"/>
        <path d="M121.706 31.8672H122.783V35.8084H124.829V36.8218H121.706V31.8672Z" fill="black"/>
        <path d="M128.6 32.8806C128.384 32.768 128.169 32.768 127.846 32.768C127.738 32.768 127.523 32.768 127.415 32.8806C127.307 32.9932 127.2 33.1058 127.2 33.2185C127.2 33.4437 127.307 33.5563 127.415 33.6689C127.631 33.7815 127.846 33.8941 128.169 33.8941C128.492 34.0067 128.708 34.1193 129.031 34.2319C129.246 34.3445 129.462 34.4571 129.569 34.6823C129.677 34.9075 129.785 35.1327 129.785 35.4706C129.785 35.8084 129.677 36.0336 129.569 36.2588C129.354 36.484 129.138 36.7092 128.923 36.8218C128.6 36.9344 128.277 37.047 127.954 37.047C127.631 37.047 127.2 36.9344 126.877 36.8218C126.553 36.7092 126.23 36.484 125.907 36.2588L126.338 35.3579C126.553 35.5832 126.877 35.8084 127.2 35.921C127.415 36.0336 127.738 36.1462 128.061 36.1462C128.277 36.1462 128.384 36.1462 128.6 36.0336C128.708 35.921 128.815 35.8084 128.815 35.6958C128.815 35.5832 128.815 35.4706 128.708 35.3579C128.6 35.2453 128.492 35.2453 128.277 35.1327C128.061 35.0201 127.954 35.0201 127.738 34.9075C127.415 34.7949 127.2 34.7949 126.984 34.6823C126.769 34.5697 126.553 34.4571 126.446 34.2319C126.338 34.0067 126.23 33.7815 126.23 33.4437C126.23 33.2185 126.338 32.8806 126.446 32.6554C126.661 32.4302 126.877 32.205 127.092 32.0924C127.415 31.9798 127.738 31.8672 128.061 31.8672C128.384 31.8672 128.708 31.8672 129.031 31.9798C129.354 32.0924 129.569 32.205 129.892 32.4302L129.461 33.3311C129.031 33.1058 128.815 32.9932 128.6 32.8806Z" fill="black"/>
        <path d="M11.4157 30.5177C12.2773 29.7294 12.8158 28.716 13.1389 27.5899C12.9235 27.5899 12.7081 27.4773 12.4927 27.4773L12.0619 27.3647C11.4157 29.5042 9.47697 31.0807 7.21516 31.0807C6.56893 31.0807 5.815 30.9681 5.16877 30.7429H5.06106C4.95336 30.7429 4.84565 30.7429 4.73795 30.8555C4.63024 30.9681 4.52254 31.1933 4.52254 31.3059C4.52254 31.5311 4.63024 31.6437 4.73795 31.7563C4.84565 31.7563 4.84565 31.8689 4.95336 31.8689C5.70729 32.0941 6.56893 32.3193 7.43057 32.2067C8.83074 32.2067 10.2309 31.6437 11.4157 30.5177ZM43.9426 16.442C40.2806 4.05545 27.5714 -2.81347 15.7239 1.12771C15.4007 1.24032 15.0776 1.35292 14.6468 1.46553C14.1083 1.69074 13.5698 1.91595 13.0312 2.14116C11.308 2.92939 9.69238 4.05545 8.29221 5.2941H8.18451C6.89205 6.42015 5.59959 7.77142 4.63024 9.23528C4.19942 9.79831 3.7686 10.3613 3.44549 11.037C2.79926 12.163 2.26073 13.2891 1.72221 14.5277C0.53745 17.5681 -0.108781 20.9462 -0.00107576 24.3244C-0.00107576 24.8874 -0.00107575 25.3378 0.106629 25.7882C0.214334 27.4773 0.53745 29.1664 1.07597 30.7429C1.39909 31.6437 1.72221 32.5446 2.04532 33.3328C2.69155 34.9093 3.55319 36.4857 4.63024 37.837C4.73795 37.9496 4.73795 38.0622 4.84565 38.0622C5.16877 38.4 5.38418 38.8504 5.70729 39.1883C5.59959 38.5126 5.59959 37.9496 5.70729 37.274C5.38418 36.8236 4.95336 36.2605 4.63024 35.8101C4.09172 34.9093 3.55319 33.8958 3.12237 32.8824L2.90696 32.2067C2.58385 31.5311 2.36844 30.8555 2.15303 30.0672C1.72221 28.6034 1.39909 27.1395 1.29138 25.563C1.18368 25.2252 1.07597 24.7748 1.07597 24.3244C0.96827 19.8202 2.04532 15.316 4.41483 11.4874C3.87631 13.7395 3.87631 16.1042 4.52254 18.3563C5.59959 21.7345 7.9691 24.437 11.0925 25.7882C11.4157 25.9009 11.8465 26.1261 12.1696 26.2387L12.6004 26.3513L13.2466 26.4639C13.5698 26.5765 14.0006 26.5765 14.3237 26.5765C14.5391 26.5765 14.6468 26.5765 14.8622 26.5765H15.5085H16.1547H16.9086L17.3394 26.4639C17.7703 26.3513 18.2011 26.3513 18.5242 26.2387C19.2781 26.0135 20.0321 25.7882 20.6783 25.4504C21.0014 25.2252 21.3245 25.1126 21.6476 24.8874L22.0785 24.5496H22.1862C22.2939 24.437 22.5093 24.3244 22.617 24.2118L22.8324 23.9866C23.0478 23.7614 23.2632 23.6487 23.4786 23.4235C24.6634 22.5227 26.0635 21.9597 27.5714 21.7345L28.2176 21.6219H28.6485C28.9716 21.6219 29.4024 21.6219 29.7255 21.6219L30.4795 21.7345C30.9103 21.7345 31.3411 21.8471 31.7719 21.9597L32.095 22.0723C32.4181 22.1849 32.7413 22.2975 33.0644 22.4101C33.4952 22.6353 33.926 22.7479 34.2491 22.9731C35.4339 23.6487 36.5109 24.5496 37.3726 25.6756C38.2342 26.6891 38.8805 27.9277 39.2036 29.279C39.3113 29.6168 39.419 30.0672 39.419 30.4051C39.419 30.6303 39.419 30.7429 39.5267 30.9681C39.5267 31.1933 39.5267 31.4185 39.6344 31.6437C39.6344 32.0941 39.6344 32.432 39.6344 32.8824C39.6344 33.6706 39.5267 34.3462 39.3113 35.0219C39.3113 35.2471 39.2036 35.4723 39.0959 35.6975C38.8804 36.3731 38.665 37.0488 38.2342 37.7244C38.2342 37.3866 38.2342 36.9362 38.1265 36.5983V36.4857C38.0188 36.2605 38.0188 35.9227 37.9111 35.6975C36.9418 33.7832 35.2185 32.5446 33.1721 32.0941C32.7413 31.9815 32.4181 31.7563 32.095 31.5311C31.6642 31.1933 31.3411 30.8555 31.018 30.4051C30.9103 30.1798 30.6949 29.9546 30.5872 29.842C30.264 29.279 29.9409 28.6034 29.6178 28.0403C28.9716 26.4639 28.6485 24.7748 28.5408 22.9731H28.2176C28.0022 22.9731 27.6791 23.0857 27.4637 23.0857C27.5714 24.8874 27.8945 26.6891 28.5408 28.3782C28.5408 28.4908 28.6485 28.6034 28.7562 28.8286C28.9716 29.279 29.187 29.7294 29.4024 30.1798L29.7255 30.7429C29.187 30.5177 28.7562 30.1798 28.2176 29.9546L28.0022 29.6168C26.1713 28.4908 24.5557 27.0269 23.2632 25.2252L22.8324 25.563L22.2939 25.9009C23.0478 27.0269 24.0172 27.9277 24.9865 28.8286L25.2019 28.9412C26.0635 29.7294 27.0329 30.4051 28.1099 30.9681C26.8175 30.7429 25.6327 30.2925 24.448 29.842C23.4786 29.5042 22.617 28.9412 21.7553 28.2656C21.6476 28.153 21.5399 28.153 21.4322 28.153C21.1091 28.153 20.8937 28.3782 20.8937 28.716C20.8937 28.8286 20.8937 29.0538 21.0014 29.1664L21.1091 29.279C22.9401 30.6303 24.9865 31.5311 27.1406 31.9815L27.5714 32.0941C28.4331 32.3193 29.187 32.4319 29.9409 32.5446C30.8026 32.6572 31.5565 32.7698 31.8796 32.7698L32.095 32.8824L32.9567 33.2202C35.2185 33.8958 36.7263 35.2471 37.1572 36.8236C37.1572 37.0488 37.2649 37.274 37.2649 37.3866C37.2649 37.4992 37.2649 37.7244 37.2649 37.837C37.1572 38.6252 36.9418 39.3009 36.5109 39.8639C36.2955 40.2017 36.0801 40.4269 35.8647 40.6521C35.4339 40.9899 35.0031 41.3278 34.5722 41.6656L34.1414 41.8908C33.0644 42.3412 31.9873 42.679 30.9103 42.5664H30.6949C28.2176 42.3412 25.8481 41.2152 24.0172 39.5261C23.694 39.3009 23.4786 38.9631 23.1555 38.7378L23.2632 38.6252C23.4786 38.4 23.8017 38.1748 24.0172 38.0622C24.9865 37.4992 25.9558 36.9362 27.0329 36.7109C28.2176 36.3731 29.5101 36.4857 30.5872 37.1614C31.1257 37.4992 31.5565 37.837 31.9873 38.2874C31.9873 38.2874 31.9873 38.2874 31.9873 38.4C32.2027 38.6252 32.5259 38.6252 32.7413 38.4C32.9567 38.1748 32.9567 37.837 32.7413 37.6118C32.2027 37.0488 31.6642 36.5983 31.018 36.2605C29.6178 35.4723 28.1099 35.2471 26.6021 35.6975C25.3096 36.0353 24.1249 36.5983 23.0478 37.3866C22.8324 37.6118 22.617 37.7244 22.4016 37.9496L22.1862 38.1748L22.0785 38.0622C21.8631 37.837 21.6476 37.6118 21.3245 37.3866C20.5706 36.8236 19.8167 36.3731 18.955 36.1479C18.5242 36.0353 18.2011 35.9227 17.7703 35.8101C16.047 35.1345 14.1083 35.2471 12.4927 36.1479C11.7388 36.4857 10.9848 37.0488 10.4463 37.7244C10.2309 37.9496 10.2309 38.2874 10.4463 38.5126C10.6617 38.7378 10.9848 38.7378 11.2002 38.5126C11.7388 37.9496 12.2773 37.6118 12.9235 37.274C14.3237 36.5983 15.9393 36.4857 17.3394 37.0488C17.3394 37.0488 17.7703 37.1614 18.4165 37.3866C19.0627 37.6118 19.7089 37.9496 20.2475 38.2874C20.5706 38.5126 20.786 38.7378 21.0014 38.9631L21.1091 39.0757L20.2475 39.7513C18.4165 41.3278 16.2624 42.2286 13.8929 42.679C13.6775 42.679 13.3544 42.679 13.1389 42.679H12.9235C11.7388 42.679 10.554 42.3412 9.47697 41.6656L8.72303 41.1026C7.9691 40.4269 7.43057 39.3009 7.43057 38.2874C7.43057 38.0622 7.43057 37.837 7.53828 37.6118C7.75369 36.1479 9.58467 34.121 12.8158 33.2202C13.5698 32.995 14.3237 32.8824 15.1853 32.8824C16.047 32.8824 17.0163 32.995 17.878 33.2202C19.0627 33.558 20.1398 34.0084 21.1091 34.7967C21.3245 34.9093 21.6476 34.9093 21.7553 34.6841C21.9708 34.4588 21.9708 34.121 21.7553 33.8958C20.6783 33.1076 19.3858 32.5446 18.0934 32.2067C17.4471 32.0941 16.8009 31.9815 16.1547 31.8689C15.7239 31.8689 15.1853 31.8689 14.7545 31.8689C15.0776 31.5311 15.4007 31.1933 15.6162 30.7429C16.047 29.9546 16.4778 29.0538 16.6932 28.153C16.2624 28.153 15.8316 28.2656 15.5085 28.2656C15.1853 29.1664 14.7545 29.9546 14.216 30.7429C13.7852 31.4185 13.1389 31.8689 12.4927 32.3193C11.8465 32.5446 10.4463 33.2202 10.3386 33.2202C8.50762 33.8958 7.10746 35.3597 6.56893 37.274L6.46123 37.4992C6.35352 37.9496 6.35352 38.4 6.46123 38.8504C6.67664 40.0891 7.21516 41.2152 8.0768 42.0034C8.29221 42.2286 8.61533 42.4538 8.93844 42.679C10.1232 43.5799 11.4157 44.3681 12.8158 45.0437C14.9699 46.0572 17.3394 46.7328 19.8167 47.0706C20.5706 47.1832 21.4322 47.1832 22.1862 47.1832H22.7247H22.8324H22.9401C25.7404 47.0706 28.4331 46.5076 31.018 45.3815L31.6642 45.0437C32.6336 44.5933 33.7106 44.0303 34.5722 43.3547L34.8954 43.1294L35.1108 43.0168C35.5416 42.7916 35.8647 42.5664 36.1878 42.2286C36.2955 42.116 36.4032 42.0034 36.6186 41.8908C36.8341 41.7782 37.0495 41.4404 37.3726 41.3278C37.3726 41.3278 37.4803 41.3278 37.4803 41.2152V41.1026C38.1265 40.5395 38.7727 39.8639 39.3113 39.0757C40.0652 38.1748 40.8191 37.1614 41.4654 36.1479C41.7885 35.5849 42.1116 34.9093 42.4347 34.3462C42.9732 33.2202 43.4041 32.0941 43.8349 30.8555C44.2657 29.279 44.5888 27.7025 44.8042 26.0135C44.8042 25.4504 44.9119 24.8874 44.9119 24.3244C45.0196 21.6219 44.6965 19.0319 43.9426 16.442ZM28.7562 44.9311C24.448 46.2824 19.9244 46.1698 15.6162 44.7059C14.8622 44.4807 14.1083 44.1429 13.3544 43.8051C13.6775 43.8051 14.1083 43.8051 14.4314 43.6925C14.8622 43.6925 15.1853 43.5799 15.6162 43.4673C17.6626 42.9042 19.7089 41.8908 21.3245 40.5395L21.4322 40.4269L22.2939 39.6387C22.617 39.8639 22.8324 40.2017 23.1555 40.4269C24.7711 41.8908 26.6021 43.0168 28.6485 43.5799L28.8639 43.6925C29.5101 43.8051 30.264 43.9177 30.9103 43.9177C30.264 44.3681 29.5101 44.5933 28.7562 44.9311ZM20.1398 24.437C19.709 24.6622 19.2781 24.8874 18.7396 25C18.3088 25.1126 17.9857 25.2252 17.5548 25.3378C17.5548 24.8874 17.6626 24.5496 17.6626 24.0992C17.6626 23.5361 17.6626 23.0857 17.5548 22.5227C17.5548 22.5227 17.5548 22.2975 17.4471 21.5092C16.9086 21.5092 16.4778 21.9597 16.4778 22.5227V22.6353C16.5855 23.1983 16.5855 23.6487 16.5855 24.2118C16.5855 24.6622 16.5855 25 16.4778 25.4504C16.047 25.4504 15.7239 25.4504 15.293 25.4504C15.0776 25.4504 14.8622 25.4504 14.6468 25.4504C14.3237 25.4504 13.8929 25.3378 13.5698 25.2252V25.1126C13.5698 24.7748 13.5698 24.437 13.5698 24.0992C13.6775 21.6219 14.4314 19.8202 15.6162 18.9193C16.6932 18.2437 17.9857 18.0185 19.2781 18.2437C19.4935 19.8202 19.9244 21.3966 20.6783 22.8605C20.786 23.1983 21.0014 23.5361 21.2168 23.874C20.786 24.0992 20.4629 24.3244 20.1398 24.437ZM43.8349 25.7882C43.7272 27.2521 43.4041 28.6034 42.9732 30.0672C42.7578 30.7429 42.5424 31.4185 42.327 32.0941C42.2193 32.3193 42.1116 32.5446 42.1116 32.6572C41.6808 33.6706 41.1423 34.5714 40.6037 35.5849C40.8191 34.6841 40.9268 33.6706 40.9268 32.7698V32.5446C40.9268 32.2067 40.9268 31.8689 40.9268 31.5311C40.9268 31.4185 40.9268 31.1933 40.9268 31.0807C40.9268 30.8555 40.8191 30.6303 40.8191 30.4051C40.7114 30.0672 40.6037 29.6168 40.496 29.279C40.0652 27.8151 39.419 26.4639 38.4496 25.2252C37.0495 23.3109 35.1108 21.9597 32.849 21.284V21.1714L32.7413 20.721C32.6336 20.3832 32.5259 20.158 32.3104 19.8202C31.6642 18.6941 30.6949 17.7933 29.4024 17.4555C28.6485 17.2303 27.7868 17.1176 27.0329 17.2303V17.3429C26.9252 17.7933 26.7098 18.2437 26.3867 18.5815H26.4944C28.0022 18.1311 29.6178 18.5815 30.6949 19.595C31.018 19.9328 31.3411 20.3832 31.5565 20.9462C31.1257 20.8336 30.5872 20.8336 30.1563 20.8336C29.5101 20.8336 28.9716 20.8336 28.3254 20.8336C27.7868 20.9462 27.2483 20.9462 26.7098 21.1714C25.3096 21.5092 24.0172 22.0723 22.9401 22.7479C22.7247 22.9731 22.4016 23.1983 22.1862 23.3109L22.0785 23.4235C21.8631 23.0857 21.7553 22.7479 21.5399 22.2975C21.1091 21.3966 20.786 20.3832 20.4629 19.3698C20.3552 18.9193 20.2475 18.4689 20.2475 18.0185V17.5681L19.8167 17.4555C19.4935 17.3429 19.2781 17.3429 18.955 17.2303H18.6319C17.3394 17.005 15.9393 17.4555 14.8622 18.2437C13.3544 19.3698 12.6004 21.284 12.385 23.9866C12.385 24.437 12.385 24.7748 12.385 25.2252C12.0619 25.1126 11.6311 24.8874 11.308 24.7748C6.03041 22.2975 3.7686 15.7664 6.13811 10.2487C6.78434 8.78486 7.75369 7.4336 8.93844 6.42015H9.04615C12.1696 3.71763 16.4778 3.1546 20.1398 4.95629H20.2475C20.3552 4.95629 20.3552 4.95629 20.4629 4.95629C20.786 4.95629 21.0014 4.73108 21.0014 4.39326C21.0014 4.16805 20.8937 4.05545 20.786 3.94284L20.6783 3.83024C19.8167 3.37981 19.0627 3.1546 18.0934 2.92939C17.124 2.70418 16.047 2.59158 14.9699 2.70418C15.9393 2.25376 17.0163 2.02855 18.0934 1.69074C27.8945 -0.448761 37.8034 4.73108 41.8962 14.3025C42.327 15.2034 42.6501 16.1042 42.8655 17.005C43.6195 19.3698 43.9426 21.9597 43.8349 24.437C43.8349 24.7748 43.8349 25.3378 43.8349 25.7882ZM34.5722 30.4051C35.4339 31.0807 36.2955 31.5311 37.3726 31.6437C37.588 31.6437 37.8034 31.7563 37.9111 31.7563H38.0188C38.2342 31.7563 38.4496 31.6437 38.5573 31.4185C38.5573 31.3059 38.5573 31.1933 38.5573 31.1933C38.5573 31.0807 38.5573 30.8555 38.4496 30.7429C38.3419 30.6303 38.2342 30.6303 38.1265 30.5177H38.0188C37.0495 30.4051 36.0801 30.0672 35.2185 29.3916C33.926 28.3782 33.1721 26.8017 33.2798 25.1126C33.2798 24.6622 33.2798 24.2118 33.2798 23.7614C32.849 23.5361 32.5258 23.4235 32.095 23.3109C32.2027 23.9866 32.2027 24.5496 32.2027 25.2252C32.095 27.2521 33.0644 29.1664 34.5722 30.4051ZM25.2019 12.0504C24.7711 12.0504 24.448 12.3882 24.448 12.8386V12.9513L25.8481 12.5008C25.7404 12.2756 25.525 12.0504 25.2019 12.0504ZM21.4322 12.8386C21.4322 12.3882 21.1091 12.0504 20.6783 12.0504C20.3552 12.0504 20.0321 12.2756 19.9244 12.6134L21.3245 13.0639C21.4322 12.9513 21.4322 12.8386 21.4322 12.8386ZM28.6485 8.44705C28.4331 8.44705 28.3254 8.44705 28.1099 8.44705C27.7868 8.44705 27.4637 8.44705 27.2483 8.55965L26.9252 8.22184C25.2019 6.53276 22.617 6.08234 20.4629 7.09579C19.9244 7.4336 19.3858 7.77142 18.8473 8.22184L18.6319 8.55965C18.3088 8.44705 18.0934 8.44705 17.7703 8.44705C17.5548 8.44705 17.4471 8.44705 17.2317 8.44705C16.4778 8.55965 15.8316 9.01007 15.5085 9.5731C15.0776 10.3613 14.7545 11.1496 14.8622 12.0504C14.8622 12.9513 15.0776 13.8521 15.5085 14.5277C15.8316 14.9781 16.2624 15.316 16.6932 15.5412C17.0163 15.6538 17.4471 15.7664 17.7703 15.6538C17.9857 15.6538 18.2011 15.6538 18.4165 15.5412L18.5242 15.6538C18.6319 15.7664 18.7396 15.7664 18.8473 15.7664H18.955L19.1704 14.6403C19.0627 14.6403 18.955 14.5277 18.955 14.5277C18.5242 14.1899 18.3088 13.5143 18.3088 12.8386C18.3088 12.726 18.3088 12.726 18.3088 12.6134V12.5008C18.3088 11.9378 18.4165 11.4874 18.5242 11.037C18.8473 10.3613 19.4935 10.0235 20.2475 10.1361H20.4629C20.6783 10.2487 20.8937 10.3613 21.0014 10.4739C21.5399 11.037 22.2939 11.2622 22.9401 11.2622C23.694 11.2622 24.448 10.9244 24.9865 10.2487C25.0942 10.1361 25.3096 10.0235 25.4173 9.91092C26.1713 9.79831 26.9252 10.1361 27.356 10.8118C27.5714 11.3748 27.6791 11.9378 27.6791 12.5008V12.6134V12.726C27.6791 12.8386 27.6791 12.8386 27.6791 12.8386C27.6791 13.4017 27.4637 13.8521 27.1406 14.3025L26.9252 14.5277C26.8175 14.6403 26.7098 14.6403 26.4944 14.6403C26.1713 14.6403 25.8481 14.5277 25.6327 14.1899C25.525 14.0773 25.4173 13.9647 25.4173 13.9647L24.5557 14.6403V14.7529C24.6634 15.0908 24.7711 15.4286 24.6634 15.7664C24.6634 15.7664 24.6634 15.7664 24.6634 15.879C24.6634 15.9916 24.6634 16.2168 24.5557 16.3294C24.3403 16.7798 24.0172 17.2303 23.5863 17.4555C23.3709 17.5681 23.0478 17.6807 22.8324 17.6807C22.1862 17.6807 21.6476 17.3429 21.2168 16.7798C21.1091 16.6672 21.1091 16.5546 21.1091 16.5546C21.0014 16.2168 20.8937 15.879 21.0014 15.5412V15.4286C21.0014 15.2034 21.1091 14.9781 21.1091 14.8655L20.0321 14.4151C19.9244 14.7529 19.8167 15.0908 19.7089 15.4286C19.7089 15.6538 19.7089 15.879 19.7089 16.2168C19.7089 16.5546 19.8167 16.8924 19.9244 17.1176C20.4629 18.2437 21.5399 18.9193 22.7247 18.9193C23.1555 18.9193 23.5863 18.8067 24.0172 18.5815C24.6634 18.2437 25.2019 17.6807 25.525 17.005C25.525 16.8924 25.525 16.8924 25.6327 16.7798C25.7404 16.5546 25.7404 16.3294 25.8481 15.9916C25.8481 15.9916 25.8481 15.9916 25.8481 15.879V15.7664C25.8481 15.7664 25.8481 15.7664 25.8481 15.6538C26.0635 15.7664 26.1713 15.7664 26.3867 15.7664H26.4944H26.7098L26.9252 15.6538L27.2483 15.5412L27.356 15.4286C27.5714 15.4286 27.7868 15.5412 28.0022 15.5412C28.3254 15.5412 28.7562 15.5412 29.0793 15.4286L29.2947 15.316C29.6178 15.0908 29.9409 14.8655 30.264 14.5277C30.6949 13.7395 31.018 12.9513 30.9103 12.0504C30.9103 11.1496 30.6949 10.2487 30.264 9.5731C29.9409 8.89747 29.2947 8.55965 28.6485 8.44705ZM17.4471 10.4739L17.3394 10.9244C17.2317 11.3748 17.124 11.9378 17.0163 12.5008V12.6134V12.9513C17.0163 13.5143 17.124 14.0773 17.3394 14.5277C16.9086 14.5277 16.4778 14.3025 16.2624 13.8521C16.047 13.6269 15.9393 13.2891 15.8316 12.9513C15.8316 12.8386 15.8316 12.726 15.8316 12.6134C15.8316 12.6134 15.8316 12.6134 15.8316 12.5008C15.8316 12.3882 15.8316 12.3882 15.8316 12.3882C15.8316 12.3882 15.8316 12.163 15.8316 11.9378C15.8316 11.3748 15.9393 10.8118 16.2624 10.2487L16.3701 10.1361C16.6932 9.6857 17.2317 9.46049 17.7703 9.46049H17.878C17.7703 9.79831 17.5548 10.1361 17.4471 10.4739ZM25.3096 8.78486C24.9865 8.89747 24.7711 9.01007 24.5557 9.23528L24.3403 9.46049C24.0172 9.91091 23.4786 10.1361 22.9401 10.1361C22.5093 10.1361 22.0785 9.91091 21.6476 9.5731C21.5399 9.46049 21.4322 9.34789 21.2168 9.34789C21.0014 9.23528 20.8937 9.12268 20.6783 9.12268C20.3552 9.01007 20.1398 9.01007 19.8167 9.01007C20.1398 8.67226 20.4629 8.44705 20.8937 8.33444C21.7553 7.88402 22.8324 7.77142 23.8017 7.99663C24.5557 8.10923 25.2019 8.44705 25.8481 8.89747C25.6327 8.78486 25.4173 8.78486 25.3096 8.78486ZM29.9409 12.3882V12.5008C29.9409 12.9513 29.7255 13.4017 29.5101 13.7395C29.2947 14.0773 28.9716 14.3025 28.5408 14.4151C28.7562 13.8521 28.7562 13.1765 28.7562 12.6134V12.5008V12.3882C28.7562 11.8252 28.6485 11.3748 28.5408 10.9244C28.4331 10.6992 28.4331 10.4739 28.3254 10.3613V10.1361V10.0235C28.2176 9.79831 28.1099 9.6857 28.0022 9.46049H28.1099C28.6485 9.46049 29.187 9.6857 29.5101 10.1361L29.6178 10.2487C29.9409 10.8118 30.0486 11.3748 30.0486 11.9378C29.9409 12.163 29.9409 12.2756 29.9409 12.3882Z" fill="black"/>
    </g>
    <defs>
        <clipPath id="clip0">
            <rect width="130" height="47.069" fill="white"/>
        </clipPath>
    </defs>
</svg>