<svg width="443" height="531" viewBox="0 0 443 531" fill="none" xmlns="http://www.w3.org/2000/svg">
    <path d="M165.386 1L125.169 10.0085M165.386 1L130.196 24.5222M165.386 1L174.937 2.50142H183.483M165.386 1L162.872 34.5317M165.386 1L147.288 26.5241M125.169 10.0085L109.082 23.0208M125.169 10.0085L130.196 24.5222M109.082 23.0208L98.0228 39.0359M109.082 23.0208L130.196 24.5222M98.0228 39.0359L81.4334 52.5487M98.0228 39.0359L130.196 24.5222M81.4334 52.5487L64.3412 83.578M81.4334 52.5487L98.0228 89.0833M81.4334 52.5487L101.542 58.0539M64.3412 83.578L50.2653 101.595M64.3412 83.578L98.0228 89.0833M64.3412 83.578L84.9523 111.104M50.2653 101.595L34.6813 133.625M50.2653 101.595L55.7951 135.127M50.2653 101.595L84.9523 111.104M34.6813 133.625L28.1461 158.149M34.6813 133.625L55.7951 135.127M28.1461 158.149L19.0973 188.177M28.1461 158.149L50.2653 205.693M28.1461 158.149L55.7951 135.127M28.1461 158.149L55.7951 168.658M19.0973 188.177L8.54041 227.214M19.0973 188.177L50.2653 205.693M8.54041 227.214L0.999748 279.763M8.54041 227.214L28.1461 254.74M8.54041 227.214L50.2653 205.693M0.999748 279.763V313.295M0.999748 279.763L24.6271 308.791M0.999748 279.763L28.1461 254.74M0.999748 279.763L63.3358 288.772M0.999748 313.295L6.52957 371.851M0.999748 313.295L24.6271 342.573M0.999748 313.295L24.6271 308.791M6.52957 371.851L24.6271 342.573M6.52957 371.851L21.6109 400.878M6.52957 371.851L29.6542 363.843M6.52957 371.851L39.2057 381.359M24.6271 342.573V308.791M24.6271 342.573L44.2328 323.305M24.6271 342.573L58.3087 363.843M24.6271 342.573L29.6542 363.843M24.6271 308.791L63.3358 288.772M24.6271 308.791L44.2328 323.305M28.1461 254.74L50.2653 205.693M28.1461 254.74L63.3358 288.772M28.1461 254.74L64.8439 252.738M50.2653 205.693L55.7951 168.658M50.2653 205.693L83.4442 168.658M50.2653 205.693L94.5038 223.21M50.2653 205.693L64.8439 252.738M55.7951 135.127L84.9523 111.104M55.7951 135.127L80.4279 143.134M55.7951 135.127V168.658M84.9523 111.104L80.4279 143.134M84.9523 111.104L98.0228 89.0833M84.9523 111.104L119.137 128.12M98.0228 89.0833L101.542 58.0539M98.0228 89.0833L135.223 43.0397M98.0228 89.0833L144.272 112.605M98.0228 89.0833L136.229 78.0728M98.0228 89.0833L119.137 128.12M101.542 58.0539L130.196 24.5222M101.542 58.0539L135.223 43.0397M130.196 24.5222L135.223 43.0397M130.196 24.5222L147.288 26.5241M135.223 43.0397L147.288 26.5241M135.223 43.0397L136.229 78.0728M135.223 43.0397L162.872 34.5317M147.288 26.5241L162.872 34.5317M144.272 112.605L120.142 144.135M144.272 112.605L119.137 128.12M144.272 112.605L169.408 89.0833M144.272 112.605L157.938 140.054M144.272 112.605L136.229 78.0728M80.4279 143.134L55.7951 168.658M80.4279 143.134L83.4442 168.658M80.4279 143.134L119.137 128.12M80.4279 143.134L120.142 144.135M55.7951 168.658H83.4442M83.4442 168.658L120.142 144.135M83.4442 168.658L94.5038 223.21M83.4442 168.658L110.088 184.173M119.137 128.12L120.142 144.135M120.142 144.135L110.088 184.173M120.142 144.135L131.704 158.149M120.142 144.135L158.348 140.632M94.5038 223.21L110.088 184.173M94.5038 223.21L131.704 227.214M94.5038 223.21L64.8439 252.738M94.5038 223.21L97.7587 266.251M94.5038 223.21L136.229 259.745M110.088 184.173L131.704 158.149M110.088 184.173L131.704 227.214M110.088 184.173L139.245 199.516M131.704 158.149L158.348 140.632M131.704 158.149L139.245 199.516M131.704 227.214L173.429 221.208M131.704 227.214L136.229 259.745M131.704 227.214L163.878 243.729M131.704 227.214L139.245 199.516M173.429 221.208L163.878 243.729M173.429 221.208L139.245 199.516M173.429 221.208L213.143 219.206M173.429 221.208L175.44 199.516M173.429 221.208L197.559 268.253M63.3358 288.772L44.2328 323.305M63.3358 288.772L70.3737 321.303M63.3358 288.772L102.547 324.806M63.3358 288.772L97.7587 266.251M63.3358 288.772L64.8439 252.738M63.3358 288.772L107.574 300.783M64.8439 252.738L97.7587 266.251M44.2328 323.305L70.3737 321.303M44.2328 323.305L58.3087 363.843M70.3737 321.303L102.547 324.806M70.3737 321.303L86.9632 340.321M70.3737 321.303L64.3412 342.573M102.547 324.806L107.574 300.783M102.547 324.806L86.9632 340.321M102.547 324.806L126.175 308.791M102.547 324.806L133.212 342.573M102.547 324.806L151.31 329.31M21.6109 400.878V413.89M21.6109 400.878L39.2057 381.359M21.6109 400.878L39.2057 413.89M21.6109 413.89L31.1624 433.909M21.6109 413.89H39.2057M31.1624 433.909L44.2328 452.427M31.1624 433.909L39.2057 413.89M31.1624 433.909L48.2545 435.911M44.2328 452.427L57.3033 457.431M44.2328 452.427L48.2545 435.911M57.3033 457.431L65.3466 473.947M57.3033 457.431L73.8927 455.43M65.3466 473.947L85.455 489.462M65.3466 473.947L73.8927 455.43M85.455 489.462L103.553 496.969M85.455 489.462L101.542 481.955M85.455 489.462L96.0119 436.912M85.455 489.462L73.8927 455.43M103.553 496.969L114.612 507.979M103.553 496.969L101.542 481.955M103.553 496.969L141.004 485.958M114.612 507.979L131.202 510.982M114.612 507.979L141.004 485.958M131.202 510.982L159.353 523.661M131.202 510.982L141.004 485.958M173.429 530L198.062 526.497M173.429 530L159.353 523.661M173.429 530L183.483 507.979M198.062 526.497L216.16 516.988M198.062 526.497L183.483 507.979M216.16 516.988L201.832 484.707M216.16 516.988L183.483 507.979M216.16 516.988L187.505 490.963M212.138 27.5251L208.116 21.5194M212.138 27.5251L182.478 57.053M212.138 27.5251L183.483 43.0397M212.138 27.5251V52.9642M212.138 27.5251L195.046 78.0728M212.138 27.5251L221.187 34.5317L212.138 52.9642M208.116 21.5194L203.089 15.5137M208.116 21.5194H189.516M203.089 15.5137L194.543 7.00568L189.516 6.00473M203.089 15.5137L189.516 21.5194M189.516 6.00473L183.483 2.50142M189.516 6.00473V21.5194M183.483 2.50142L162.872 34.5317M162.872 34.5317L169.408 58.0539M162.872 34.5317L183.483 43.0397M162.872 34.5317L189.516 21.5194M162.872 34.5317L136.229 78.0728M136.229 78.0728L169.408 58.0539M136.229 78.0728L169.408 89.0833M169.408 58.0539L183.483 43.0397M169.408 58.0539V89.0833M169.408 58.0539L182.478 57.053M183.483 43.0397L189.516 21.5194M183.483 43.0397L182.478 57.053M97.7587 266.251L136.229 259.745M97.7587 266.251L107.574 300.783M136.229 259.745L107.574 300.783M136.229 259.745L126.175 308.791M136.229 259.745L168.905 266.251M136.229 259.745L151.31 291.775M136.229 259.745L163.878 243.729M163.878 243.729L168.905 266.251M163.878 243.729L197.559 268.253M107.574 300.783L126.175 308.791M126.175 308.791L151.31 329.31M126.175 308.791L151.31 291.775M58.3087 363.843H29.6542M58.3087 363.843L39.2057 381.359M58.3087 363.843V388.366M58.3087 363.843L75.9035 386.865M58.3087 363.843L86.9632 340.321M58.3087 363.843L64.3412 342.573M29.6542 363.843L39.2057 381.359M58.3087 406.383L75.9035 386.865M58.3087 406.383L39.2057 413.89M58.3087 406.383L39.8037 382.143M58.3087 406.383V388.366M58.3087 406.383L69.3683 431.407M58.3087 406.383H96.0119M58.3087 406.383L96.0119 436.912M75.9035 386.865L58.3087 388.366M75.9035 386.865L96.0119 406.383M75.9035 386.865L86.9632 340.321M75.9035 386.865L94.5038 369.849M39.2057 381.359V413.89M39.2057 381.359L39.8037 382.143M39.2057 413.89L69.3683 431.407M39.2057 413.89L48.2545 435.911M39.8037 382.143L58.3087 388.366M69.3683 431.407L48.2545 435.911M69.3683 431.407L73.8927 455.43M69.3683 431.407L96.0119 436.912M48.2545 435.911L73.8927 455.43M73.8927 455.43L96.0119 436.912M96.0119 436.912V406.383M96.0119 436.912L111.093 467.941M96.0119 436.912L101.542 481.955M96.0119 436.912L119.639 423.399M96.0119 436.912L130.196 445.42M96.0119 406.383L94.5038 369.849M96.0119 406.383L113.607 366.345M96.0119 406.383L119.639 423.399M96.0119 406.383L123.661 393.371M86.9632 340.321L64.3412 342.573M86.9632 340.321L113.607 366.345M86.9632 340.321L94.5038 369.849M86.9632 340.321L133.212 342.573M113.607 366.345L94.5038 369.849M113.607 366.345L123.661 393.371M113.607 366.345L133.212 342.573M113.607 366.345L148.796 358.338M119.639 423.399L130.196 445.42M119.639 423.399L136.229 417.894M119.639 423.399L123.661 393.371M130.196 445.42L111.093 467.941M130.196 445.42L138.24 467.941M130.196 445.42L159.353 464.438M130.196 445.42L136.229 417.894M130.196 445.42L159.353 444.419M111.093 467.941L101.542 481.955M111.093 467.941H138.24M101.542 481.955L138.24 467.941M101.542 481.955L141.004 485.958M138.24 467.941L159.353 464.438M138.24 467.941L141.004 485.958M169.408 89.0833L182.478 57.053M169.408 89.0833L195.046 78.0728M169.408 89.0833L158.348 140.632M169.408 89.0833L175.44 124.617M169.408 89.0833L188.008 103.597M182.478 57.053L195.046 78.0728M212.138 52.9642L195.046 78.0728M212.138 52.9642L214.652 85.0795M195.046 78.0728L188.008 103.597M195.046 78.0728L214.652 85.0795M158.348 140.632L139.245 199.516M158.348 140.632L180.467 173.663M158.348 140.632L157.938 140.054M158.348 140.632L185.494 137.129M139.245 199.516L180.467 173.663M139.245 199.516H175.44M180.467 173.663L185.494 137.129M180.467 173.663L175.44 199.516M180.467 173.663L200.576 153.144M180.467 173.663L213.143 219.206M157.938 140.054L175.44 124.617M175.44 124.617L188.008 103.597M175.44 124.617L185.494 137.129M188.008 103.597L214.652 85.0795M188.008 103.597L202.586 119.612M188.008 103.597L185.494 137.129M214.652 85.0795L221.828 65.1675M214.652 85.0795L206.257 109.107M185.494 137.129L202.586 119.612M185.494 137.129L200.576 153.144M202.586 119.612L200.576 153.144M202.586 119.612L206.257 109.107M202.586 119.612L221.786 130.374L200.576 153.144M168.905 266.251L197.559 268.253M168.905 266.251L151.31 291.775M168.905 266.251L180.467 291.775M159.353 464.438V444.419M159.353 464.438L189.013 463.437M159.353 464.438L187.505 490.963M159.353 464.438L201.832 484.707M159.353 464.438L141.004 485.958M136.229 417.894L151.31 398.876M136.229 417.894L123.661 393.371M136.229 417.894L159.353 444.419M136.229 417.894L180.467 421.397M151.31 398.876L123.661 393.371M151.31 398.876L180.467 421.397M151.31 398.876L148.796 358.338M151.31 398.876L169.91 379.358M123.661 393.371L148.796 358.338M159.353 444.419L180.467 421.397M159.353 444.419L189.013 463.437M180.467 421.397L187.505 382.36M180.467 421.397L169.91 379.358M180.467 421.397L189.013 463.437M180.467 421.397L205.603 461.435M180.467 421.397L213.143 421.598M180.467 421.397L221.187 441.416M180.467 421.397L194.292 401.128M148.796 358.338L151.31 329.31M148.796 358.338L133.212 342.573M148.796 358.338L169.91 379.358M148.796 358.338L187.505 353.833M133.212 342.573L151.31 329.31M151.31 329.31L178.959 327.308M151.31 329.31L187.505 353.833M151.31 329.31V291.775M169.91 379.358L187.505 382.36M169.91 379.358L187.505 353.833M187.505 382.36L208.116 380.859M187.505 382.36V353.833M178.959 327.308L151.31 291.775M178.959 327.308L187.505 353.833M178.959 327.308L204.597 336.817M178.959 327.308L210.127 309.792M178.959 327.308L180.467 291.775M151.31 291.775H180.467M197.559 268.253L213.143 219.206M197.559 268.253L180.467 291.775M197.559 268.253L210.127 309.792M197.559 268.253L213.143 257.252M213.143 219.206V257.252M213.143 219.206L175.44 199.516M213.143 219.206L221.833 242.2M213.143 219.206L221.786 173.663M213.143 219.206L205.242 177.673M200.576 153.144L221.786 173.663M200.576 153.144L205.242 177.673M208.116 380.859L187.505 353.833M208.116 380.859L205.264 337.818M208.116 380.859L194.292 401.128M208.116 380.859L213.143 421.598M208.116 380.859L221.78 409.296L213.143 421.598M208.116 380.859L221.78 358.663L205.264 337.818M189.013 463.437L205.603 461.435M187.505 490.963L141.004 485.958M187.505 490.963L183.483 507.979M187.505 490.963L201.832 484.707M201.832 484.707L205.603 461.435M141.004 485.958L183.483 507.979M141.004 485.958L159.353 523.661M183.483 507.979L159.353 523.661M205.603 461.435L221.187 441.416M205.603 461.435L241.798 484.707M187.505 353.833L204.597 336.817M204.597 336.817L210.127 309.792M204.597 336.817L205.264 337.818M204.597 336.817L221.78 327.229L210.127 309.792M210.127 309.792L213.143 257.252M210.127 309.792L209.827 309.61M180.467 291.775L209.827 309.61M213.143 257.252L221.8 286.18L209.827 309.61M213.143 421.598L221.187 441.416M213.143 421.598L194.292 401.128M221.786 173.663L213.143 175.907L205.242 177.673M221.869 101.344L206.257 109.107" stroke="#111429"/>
    <path d="M277.614 1L317.831 10.0085M277.614 1L312.804 24.5222M277.614 1L268.063 2.50142H259.517M277.614 1L280.128 34.5317M277.614 1L295.712 26.5241M317.831 10.0085L333.918 23.0208M317.831 10.0085L312.804 24.5222M333.918 23.0208L344.977 39.0359M333.918 23.0208L312.804 24.5222M344.977 39.0359L361.567 52.5487M344.977 39.0359L312.804 24.5222M361.567 52.5487L378.659 83.578M361.567 52.5487L344.977 89.0833M361.567 52.5487L341.458 58.0539M378.659 83.578L392.735 101.595M378.659 83.578L344.977 89.0833M378.659 83.578L358.048 111.104M392.735 101.595L408.319 133.625M392.735 101.595L387.205 135.127M392.735 101.595L358.048 111.104M408.319 133.625L414.854 158.149M408.319 133.625L387.205 135.127M414.854 158.149L423.903 188.177M414.854 158.149L392.735 205.693M414.854 158.149L387.205 135.127M414.854 158.149L387.205 168.658M423.903 188.177L434.46 227.214M423.903 188.177L392.735 205.693M434.46 227.214L442 279.763M434.46 227.214L414.854 254.74M434.46 227.214L392.735 205.693M442 279.763V313.295M442 279.763L418.373 308.791M442 279.763L414.854 254.74M442 279.763L379.664 288.772M442 313.295L436.47 371.851M442 313.295L418.373 342.573M442 313.295L418.373 308.791M436.47 371.851L418.373 342.573M436.47 371.851L421.389 400.878M436.47 371.851L413.346 363.843M436.47 371.851L403.794 381.359M418.373 342.573V308.791M418.373 342.573L398.767 323.305M418.373 342.573L384.691 363.843M418.373 342.573L413.346 363.843M418.373 308.791L379.664 288.772M418.373 308.791L398.767 323.305M414.854 254.74L392.735 205.693M414.854 254.74L379.664 288.772M414.854 254.74L378.156 252.738M392.735 205.693L387.205 168.658M392.735 205.693L359.556 168.658M392.735 205.693L348.496 223.21M392.735 205.693L378.156 252.738M387.205 135.127L358.048 111.104M387.205 135.127L362.572 143.134M387.205 135.127V168.658M358.048 111.104L362.572 143.134M358.048 111.104L344.977 89.0833M358.048 111.104L323.863 128.12M344.977 89.0833L341.458 58.0539M344.977 89.0833L307.777 43.0397M344.977 89.0833L298.728 112.605M344.977 89.0833L306.771 78.0728M344.977 89.0833L323.863 128.12M341.458 58.0539L312.804 24.5222M341.458 58.0539L307.777 43.0397M312.804 24.5222L307.777 43.0397M312.804 24.5222L295.712 26.5241M307.777 43.0397L295.712 26.5241M307.777 43.0397L306.771 78.0728M307.777 43.0397L280.128 34.5317M295.712 26.5241L280.128 34.5317M298.728 112.605L322.858 144.135M298.728 112.605L323.863 128.12M298.728 112.605L273.592 89.0833M298.728 112.605L285.062 140.054M298.728 112.605L306.771 78.0728M362.572 143.134L387.205 168.658M362.572 143.134L359.556 168.658M362.572 143.134L323.863 128.12M362.572 143.134L322.858 144.135M387.205 168.658H359.556M359.556 168.658L322.858 144.135M359.556 168.658L348.496 223.21M359.556 168.658L332.912 184.173M323.863 128.12L322.858 144.135M322.858 144.135L332.912 184.173M322.858 144.135L311.296 158.149M322.858 144.135L284.652 140.632M348.496 223.21L332.912 184.173M348.496 223.21L311.296 227.214M348.496 223.21L378.156 252.738M348.496 223.21L345.241 266.251M348.496 223.21L306.771 259.745M332.912 184.173L311.296 158.149M332.912 184.173L311.296 227.214M332.912 184.173L303.755 199.516M311.296 158.149L284.652 140.632M311.296 158.149L303.755 199.516M311.296 227.214L269.571 221.208M311.296 227.214L306.771 259.745M311.296 227.214L279.122 243.729M311.296 227.214L303.755 199.516M269.571 221.208L279.122 243.729M269.571 221.208L303.755 199.516M269.571 221.208L229.857 219.206M269.571 221.208L267.56 199.516M269.571 221.208L245.441 268.253M379.664 288.772L398.767 323.305M379.664 288.772L372.626 321.303M379.664 288.772L340.453 324.806M379.664 288.772L345.241 266.251M379.664 288.772L378.156 252.738M379.664 288.772L335.426 300.783M378.156 252.738L345.241 266.251M398.767 323.305L372.626 321.303M398.767 323.305L384.691 363.843M372.626 321.303L340.453 324.806M372.626 321.303L356.037 340.321M372.626 321.303L378.659 342.573M340.453 324.806L335.426 300.783M340.453 324.806L356.037 340.321M340.453 324.806L316.825 308.791M340.453 324.806L309.788 342.573M340.453 324.806L291.69 329.31M421.389 400.878V413.89M421.389 400.878L403.794 381.359M421.389 400.878L403.794 413.89M421.389 413.89L411.838 433.909M421.389 413.89H403.794M411.838 433.909L398.767 452.427M411.838 433.909L403.794 413.89M411.838 433.909L394.746 435.911M398.767 452.427L385.697 457.431M398.767 452.427L394.746 435.911M385.697 457.431L377.653 473.947M385.697 457.431L369.107 455.43M377.653 473.947L357.545 489.462M377.653 473.947L369.107 455.43M357.545 489.462L339.447 496.969M357.545 489.462L341.458 481.955M357.545 489.462L346.988 436.912M357.545 489.462L369.107 455.43M339.447 496.969L328.388 507.979M339.447 496.969L341.458 481.955M339.447 496.969L301.996 485.958M328.388 507.979L311.798 510.982M328.388 507.979L301.996 485.958M311.798 510.982L283.647 523.661M311.798 510.982L301.996 485.958M269.571 530L244.938 526.497M269.571 530L283.647 523.661M269.571 530L259.517 507.979M244.938 526.497L226.84 516.988M244.938 526.497L259.517 507.979M226.84 516.988L241.168 484.707M226.84 516.988L259.517 507.979M226.84 516.988L255.495 490.963M226.84 516.988L221.813 514M230.862 27.5251L234.884 21.5194M230.862 27.5251L260.522 57.053M230.862 27.5251L259.517 43.0397M230.862 27.5251L229.78 50.8996M230.862 27.5251L247.954 78.0728M230.862 27.5251L221.813 34.5317M234.884 21.5194L239.911 15.5137M234.884 21.5194H253.484M239.911 15.5137L248.457 7.00568L253.484 6.00473M239.911 15.5137L253.484 21.5194M253.484 6.00473L259.517 2.50142M253.484 6.00473V21.5194M259.517 2.50142L280.128 34.5317M280.128 34.5317L273.592 58.0539M280.128 34.5317L259.517 43.0397M280.128 34.5317L253.484 21.5194M280.128 34.5317L306.771 78.0728M306.771 78.0728L273.592 58.0539M306.771 78.0728L273.592 89.0833M273.592 58.0539L259.517 43.0397M273.592 58.0539V89.0833M273.592 58.0539L260.522 57.053M259.517 43.0397L253.484 21.5194M259.517 43.0397L260.522 57.053M345.241 266.251L306.771 259.745M345.241 266.251L335.426 300.783M306.771 259.745L335.426 300.783M306.771 259.745L316.825 308.791M306.771 259.745L274.095 266.251M306.771 259.745L291.69 291.775M306.771 259.745L279.122 243.729M279.122 243.729L274.095 266.251M279.122 243.729L245.441 268.253M335.426 300.783L316.825 308.791M316.825 308.791L291.69 329.31M316.825 308.791L291.69 291.775M384.691 363.843H413.346M384.691 363.843L403.794 381.359M384.691 363.843V388.366M384.691 363.843L367.096 386.865M384.691 363.843L356.037 340.321M384.691 363.843L378.659 342.573M413.346 363.843L403.794 381.359M384.691 406.383L367.096 386.865M384.691 406.383L403.794 413.89M384.691 406.383L403.196 382.143M384.691 406.383V388.366M384.691 406.383L373.632 431.407M384.691 406.383H346.988M384.691 406.383L346.988 436.912M367.096 386.865L384.691 388.366M367.096 386.865L346.988 406.383M367.096 386.865L356.037 340.321M367.096 386.865L348.496 369.849M403.794 381.359V413.89M403.794 381.359L403.196 382.143M403.794 413.89L373.632 431.407M403.794 413.89L394.746 435.911M403.196 382.143L384.691 388.366M373.632 431.407L394.746 435.911M373.632 431.407L369.107 455.43M373.632 431.407L346.988 436.912M394.746 435.911L369.107 455.43M369.107 455.43L346.988 436.912M346.988 436.912V406.383M346.988 436.912L331.907 467.941M346.988 436.912L341.458 481.955M346.988 436.912L323.361 423.399M346.988 436.912L312.804 445.42M346.988 406.383L348.496 369.849M346.988 406.383L329.393 366.345M346.988 406.383L323.361 423.399M346.988 406.383L319.339 393.371M356.037 340.321L378.659 342.573M356.037 340.321L329.393 366.345M356.037 340.321L348.496 369.849M356.037 340.321L309.788 342.573M329.393 366.345L348.496 369.849M329.393 366.345L319.339 393.371M329.393 366.345L309.788 342.573M329.393 366.345L294.204 358.338M323.361 423.399L312.804 445.42M323.361 423.399L306.771 417.894M323.361 423.399L319.339 393.371M312.804 445.42L331.907 467.941M312.804 445.42L304.76 467.941M312.804 445.42L283.647 464.438M312.804 445.42L306.771 417.894M312.804 445.42L283.647 444.419M331.907 467.941L341.458 481.955M331.907 467.941H304.76M341.458 481.955L304.76 467.941M341.458 481.955L301.996 485.958M304.76 467.941L283.647 464.438M304.76 467.941L301.996 485.958M273.592 89.0833L260.522 57.053M273.592 89.0833L247.954 78.0728M273.592 89.0833L284.652 140.632M273.592 89.0833L267.56 124.617M273.592 89.0833L254.992 103.597M260.522 57.053L247.954 78.0728M229.78 50.8996L247.954 78.0728M229.78 50.8996L221.813 34.5317M229.78 50.8996L228.348 85.0795M247.954 78.0728L254.992 103.597M247.954 78.0728L228.348 85.0795M284.652 140.632L303.755 199.516M284.652 140.632L262.533 173.663M284.652 140.632L285.062 140.054M284.652 140.632L257.506 137.129M303.755 199.516L262.533 173.663M303.755 199.516H267.56M262.533 173.663L257.506 137.129M262.533 173.663L267.56 199.516M262.533 173.663L242.424 153.144M262.533 173.663L229.857 219.206M285.062 140.054L267.56 124.617M267.56 124.617L254.992 103.597M267.56 124.617L257.506 137.129M254.992 103.597L228.348 85.0795M254.992 103.597L240.414 119.612M254.992 103.597L257.506 137.129M228.348 85.0795L235.958 106.7M228.348 85.0795L221.813 65.2532M257.506 137.129L240.414 119.612M257.506 137.129L242.424 153.144M240.414 119.612L242.424 153.144M240.414 119.612L235.958 106.7M240.414 119.612L221.813 130.526M274.095 266.251L245.441 268.253M274.095 266.251L291.69 291.775M274.095 266.251L262.533 291.775M283.647 464.438V444.419M283.647 464.438L253.987 463.437M283.647 464.438L255.495 490.963M283.647 464.438L241.168 484.707M283.647 464.438L301.996 485.958M306.771 417.894L291.69 398.876M306.771 417.894L319.339 393.371M306.771 417.894L283.647 444.419M306.771 417.894L262.533 421.397M291.69 398.876L319.339 393.371M291.69 398.876L262.533 421.397M291.69 398.876L294.204 358.338M291.69 398.876L273.09 379.358M319.339 393.371L294.204 358.338M283.647 444.419L262.533 421.397M283.647 444.419L253.987 463.437M262.533 421.397L255.495 382.36M262.533 421.397L273.09 379.358M262.533 421.397L253.987 463.437M262.533 421.397L237.397 461.435M262.533 421.397L229.857 421.598M262.533 421.397L221.813 441.416M262.533 421.397L247.172 398.876M294.204 358.338L291.69 329.31M294.204 358.338L309.788 342.573M294.204 358.338L273.09 379.358M294.204 358.338L255.495 353.833M309.788 342.573L291.69 329.31M291.69 329.31L264.041 327.308M291.69 329.31L255.495 353.833M291.69 329.31V291.775M273.09 379.358L255.495 382.36M273.09 379.358L255.495 353.833M255.495 382.36L234.884 380.859M255.495 382.36V353.833M264.041 327.308L291.69 291.775M264.041 327.308L255.495 353.833M264.041 327.308L238.403 336.817M264.041 327.308L232.873 309.792M264.041 327.308L262.533 291.775M291.69 291.775H262.533M245.441 268.253L229.857 219.206M245.441 268.253L262.533 291.775M245.441 268.253L232.873 309.792M245.441 268.253L231.128 256.831M229.857 219.206L231.128 256.831M229.857 219.206L267.56 199.516M229.857 219.206L221.813 242.537M229.857 219.206L221.813 173.663M229.857 219.206L237.972 176.549M242.424 153.144L221.813 130.526M242.424 153.144L221.813 173.663M242.424 153.144L237.972 176.549M234.884 380.859L255.495 353.833M234.884 380.859L237.736 337.818M234.884 380.859L221.813 358.338M234.884 380.859L224.321 403.677L221.813 409.095M234.884 380.859L229.857 421.598M234.884 380.859L247.172 398.876M253.987 463.437L237.397 461.435M255.495 490.963L301.996 485.958M255.495 490.963L259.517 507.979M255.495 490.963L241.168 484.707M241.168 484.707L237.397 461.435M301.996 485.958L259.517 507.979M301.996 485.958L283.647 523.661M259.517 507.979L283.647 523.661M237.397 461.435L221.813 441.416M237.397 461.435L201.202 484.707M255.495 353.833L238.403 336.817M238.403 336.817L232.873 309.792M238.403 336.817L237.736 337.818M238.403 336.817L221.813 327.308M232.873 309.792L262.533 291.775M232.873 309.792L231.128 256.831M232.873 309.792L221.813 327.308M232.873 309.792L221.813 285.958M231.128 256.831L221.813 285.958M221.813 34.5317V65.2532M237.736 337.818L221.813 358.338M229.857 421.598L221.813 441.416M229.857 421.598L221.813 409.095M229.857 421.598L247.172 398.876M221.813 514L216.19 516.988M221.813 514V409.095M221.813 409.095V358.338M221.813 358.338V327.308M221.813 327.308V285.958M221.813 285.958V242.537M221.813 242.537V207.647V173.663M235.958 106.7L221.813 101.551M221.813 130.526V101.551M221.813 130.526V155.618V173.663M221.813 173.663L237.972 176.549M221.813 65.2532V101.551" stroke="#111429"/>
    <path d="M262.281 292.5L233.306 310L263.78 326.5L262.281 292.5Z" fill="#F2E5C4"/>
    <path d="M306.743 417.5L262.78 421.5L283.763 444L306.743 417.5Z" fill="#55469B"/>
    <path d="M144.38 113L120.899 143.5L157.868 140.5L144.38 113Z" fill="#55469B"/>
    <path d="M97.4188 266.5L63.4473 289L106.911 300L97.4188 266.5Z" fill="#153132"/>
    <path d="M349.208 222.5L359.699 169L392.672 205.5L349.208 222.5Z" fill="#55469B"/>
    <path d="M119.401 424L96.9199 437L129.393 445L119.401 424Z" fill="#F2E5C4"/>
    <path d="M274.271 88.5L273.771 58L306.244 78L274.271 88.5Z" fill="#153132"/>
    <path d="M82.9312 169.5L50.958 205.5L93.922 222.5L82.9312 169.5Z" fill="#F2E5C4"/>
    <path d="M398.666 323.5L373.188 321.5L384.678 362.5L398.666 323.5Z" fill="#153132"/>
    <path d="M151.374 398L149.376 359.5L169.359 379.5L151.374 398Z" fill="#55469B"/>
    <path d="M262.281 174.5L230.308 219L267.776 199L262.281 174.5Z" fill="#153132"/>
    <path d="M102.914 57L129.891 25.5L134.887 43L102.914 57Z" fill="#55469B"/>
</svg>