<svg width="54" height="62" viewBox="0 0 54 62" fill="none" xmlns="http://www.w3.org/2000/svg">
    <path d="M52.9802 15.8515L27.1386 1L1 15.8515M52.9802 15.8515V45.5545L27.1386 61M52.9802 15.8515L47.6337 19.1188M27.1386 61L1 46.1485V15.8515M27.1386 61V55.0594M1 15.8515L6.34653 19.1188M47.6337 19.1188L27.1386 7.23762L6.34653 19.1188M47.6337 19.1188V42.8812L27.1386 55.0594M27.1386 55.0594L6.34653 42.8812V19.1188M11.099 22.0891V40.2079L27.1386 48.8218L42.2871 40.2079V22.0891L27.1386 13.4752L11.099 22.0891ZM11.099 22.0891L16.1485 24.7624M16.1485 24.7624V37.2376L27.1386 43.4752L37.8317 37.2376L37.2376 24.7624L26.8416 18.5248L16.1485 24.7624ZM26.8416 30.703L31.8911 28.0297M26.8416 30.703L21.7921 27.7327M26.8416 30.703V36.9406M31.8911 28.0297L26.8416 24.7624L21.7921 27.7327M31.8911 28.0297V33.9703L26.8416 36.9406M21.7921 27.7327V33.9703L26.8416 36.9406" stroke="#55469B"/>
</svg>