<svg width="108" height="39" viewBox="0 0 108 39" fill="none" xmlns="http://www.w3.org/2000/svg">
    <path d="M0.46814 18.1486V1.0498H5.41425V13.8893H11.2153V18.0868L0.46814 18.1486Z" fill="#F7F6F2"/>
    <path d="M15.8564 0.988281H27.1531V5.18581H20.7415V7.46976H26.2372V11.4204H20.7415V13.9512H27.5806V18.1488H15.8564V0.988281Z" fill="#F7F6F2"/>
    <path d="M42.9689 0.988281H48.4035L39.5493 18.334H39.3051L30.4509 0.988281H35.8856L37.9617 5.49445C38.5113 6.66729 38.9998 7.84013 39.3662 9.01297H39.4272C39.7936 7.7784 40.2821 6.60556 40.8927 5.49445L42.9689 0.988281Z" fill="#F7F6F2"/>
    <path d="M57.1352 18.1486H52.2501V1.0498H57.1352V18.1486Z" fill="#F7F6F2"/>
    <path d="M75.2081 0.988281V5.18581H70.8727V18.1488H65.9265V5.18581H61.5911V0.988281H75.2081Z" fill="#F7F6F2"/>
    <path d="M79.728 0.988281H91.0858V5.18581H84.6741V7.46976H90.1698V11.4204H84.6741V13.9512H91.4522V18.1488H79.728V0.988281Z" fill="#F7F6F2"/>
    <path d="M96.2753 0.988281H107.633V5.18581H101.221V7.46976H106.717V11.4204H101.221V13.9512H107.999V18.1488H96.2753V0.988281Z" fill="#F7F6F2"/>
    <path d="M1.38342 38.7042V21.6055H3.15425V37.2228H10.665V38.766L1.38342 38.7042Z" fill="#F7F6F2"/>
    <path d="M21.7174 21.2959L29.4724 38.7033H27.5795L25.7476 34.5675H17.6872L15.9164 38.7033H14.0234L21.7174 21.2959ZM25.1369 33.086C23.9157 30.2465 22.8776 27.7774 21.7785 25.1231C20.6793 27.7774 19.6413 30.3082 18.42 33.086H25.1369Z" fill="#F7F6F2"/>
    <path d="M45.9598 33.9511C45.9598 36.8524 43.7005 38.7042 40.5863 38.7042H34.7853V21.6055H39.9756C43.212 21.6055 45.2881 23.4573 45.2881 26.2351C45.3492 27.7166 44.4943 29.0746 43.1509 29.7536C44.8607 30.4326 45.9598 32.0993 45.9598 33.9511ZM41.4412 29.1981C42.6624 28.8277 43.5173 27.6549 43.3952 26.2968C43.3952 24.3215 42.1129 23.0252 39.9756 23.0252H36.495V29.1363L41.4412 29.1981ZM36.495 37.2228H40.5252C42.6014 37.2228 44.1279 35.9265 44.1279 33.8894C44.2501 32.2228 42.9677 30.7413 41.319 30.6178C41.258 30.6178 41.1358 30.6178 41.0748 30.6178H36.495V37.2228Z" fill="#F7F6F2"/>
    <path d="M51.6372 37.9626V36.1724C53.1028 36.9132 54.6904 37.3453 56.3391 37.3453C58.5374 37.3453 60.2471 36.3576 60.2471 34.6292C60.2471 32.9008 59.3312 31.9749 56.3391 30.8638C52.9806 29.6292 51.5762 28.2095 51.5762 25.7403C51.5762 22.9008 54.0187 21.2959 57.0108 21.2959C58.4152 21.2959 59.8197 21.6045 61.102 22.1601V23.8885C59.8197 23.2712 58.4763 22.9626 57.0719 22.9008C54.9346 22.9008 53.347 23.9502 53.347 25.6169C53.347 27.2836 54.1408 28.2095 57.194 29.3206C60.5525 30.5552 62.018 31.9132 62.018 34.3823C62.018 37.2218 59.7586 38.8885 56.4612 38.8885C54.8125 39.0119 53.1638 38.6416 51.6372 37.9626Z" fill="#F7F6F2"/>
</svg>