<svg width="1254" height="806" viewBox="0 0 1254 806" fill="none" xmlns="http://www.w3.org/2000/svg">
    <path d="M1095.56 330.292L1113.49 312.343L1062.4 316.817M1095.56 330.292L1078.86 351.566M1095.56 330.292L1120.9 336.342L1078.86 351.566M1095.56 330.292L1062.4 316.817M1095.56 330.292L1050.58 336.728M1078.86 351.566L1050.58 336.728M1078.86 351.566L1028.57 352.694M1078.86 351.566L1053.19 380.802M1050.58 336.728L1062.4 316.817M1050.58 336.728L1028.57 352.694M1050.58 336.728L1030.32 336.942M1062.4 316.817L1030.32 336.942M1062.4 316.817L1035.42 324.015M1028.57 352.694L1030.32 336.942M1028.57 352.694L996.065 355.541M1028.57 352.694L1053.19 380.802M1028.57 352.694L1025.52 401.476M1028.57 352.694L1002.96 398.616M1030.32 336.942L1035.42 324.015M1030.32 336.942L996.065 355.541M1030.32 336.942L1010.99 335.359M1035.42 324.015L1010.99 335.359M1010.99 335.359L996.065 355.541M1010.99 335.359L969.826 342.707M996.065 355.541L1002.96 398.616M996.065 355.541L969.826 342.707M996.065 355.541L925.625 367.014M996.065 355.541L953.776 380.304M1053.19 380.802L1025.52 401.476M1053.19 380.802L1106.55 377.377L1076.66 413.689M1053.19 380.802L1083.32 423.869M1053.19 380.802L1047.27 407.683M1025.52 401.476L1047.27 407.683M1025.52 401.476L1036.77 428.414M1025.52 401.476L1019.66 445.044M1025.52 401.476L991.422 423.649M1025.52 401.476L1002.96 398.616M1002.96 398.616L991.422 423.649M1002.96 398.616L957.008 415.431M1002.96 398.616L953.776 380.304M969.826 342.707L925.625 367.014M969.826 342.707L917.484 352.439M969.826 342.707L875.857 338.457M925.625 367.014L917.484 352.439M925.625 367.014L953.776 380.304M925.625 367.014L905.714 389.036M925.625 367.014L878.526 365.366M917.484 352.439L875.857 338.457M917.484 352.439L878.526 365.366M917.484 352.439L851.781 361.001M875.857 338.457L831.613 345.813M875.857 338.457L836.321 330.532M875.857 338.457L851.781 361.001M831.613 345.813L851.781 361.001M831.613 345.813L818.065 328.699M831.613 345.813L825.949 367.014M831.613 345.813L785.555 331.545M831.613 345.813L796.72 350.379M831.613 345.813L836.321 330.532M836.321 330.532L818.065 328.699M818.065 328.699L785.555 331.545M785.555 331.545L747.517 330.041M785.555 331.545L755.999 343.181M785.555 331.545L796.72 350.379M747.517 330.041L732.657 322.45M747.517 330.041L755.999 343.181M747.517 330.041L722.72 337.067M732.657 322.45L719.502 318.299L706.161 319.155M732.657 322.45L722.72 337.067M706.161 319.155L689.453 317.186M706.161 319.155L695.161 327.138M706.161 319.155L722.72 337.067M689.453 317.186L668.829 316.808M689.453 317.186L695.161 327.138M689.453 317.186L684.367 332.139M668.829 316.808L647.363 315.724M668.829 316.808L657.785 320.739M668.829 316.808L684.367 332.139M668.829 316.808L653.953 339.23M668.829 316.808L667.713 343.181M647.363 315.724L627.765 311.045M647.363 315.724L635.135 320.383M647.363 315.724L657.785 320.739M647.363 315.724L638.203 328.694M647.363 315.724L653.953 339.23M627.765 311.045L616.201 310.81M627.765 311.045L618.472 330.088M627.765 311.045L635.135 320.383M616.201 310.81L603.546 308.798M616.201 310.81L618.472 330.088M603.546 308.798L586.631 309.811M603.546 308.798L618.472 330.088M603.546 308.798L601.863 320.383M586.631 309.811L582.914 319.028L587.416 327.682M586.631 309.811L601.863 320.383M586.631 309.811L587.416 327.682M586.631 309.811L597.882 336.749M587.416 327.682L597.882 336.749M597.882 336.749L622.894 345.322M597.882 336.749L601.863 320.383M597.882 336.749L618.472 330.088M622.894 345.322L597.882 352.742M622.894 345.322L618.472 330.088M622.894 345.322L638.203 345.322M622.894 345.322L626.925 359.578M597.882 352.742L626.925 359.578M597.882 352.742L580.91 354.927M597.882 352.742L575.326 366.042M597.882 352.742L600.365 368.666M580.91 354.927L558.074 359.578M580.91 354.927L575.326 366.042M558.074 359.578L555.52 366.042L556.355 377.356M558.074 359.578L575.326 366.042M556.355 377.356L566.207 384.761M556.355 377.356L575.326 366.042M566.207 384.761L586.631 386.38M566.207 384.761L575.326 366.042M586.631 386.38L603.546 383.01M586.631 386.38L575.326 366.042M586.631 386.38L600.365 368.666M603.546 383.01L622.894 380.109M603.546 383.01L600.365 368.666M622.894 380.109L645.98 376.527M622.894 380.109L626.925 359.578M622.894 380.109L600.365 368.666M645.98 376.527L656.224 375.942M645.98 376.527L659.485 367.436L672.603 358.128M645.98 376.527L626.925 359.578M645.98 376.527L649.039 358.128M656.224 375.942L646.636 382.242M656.224 375.942L678.954 374.007M656.224 375.942L661.816 386.38M646.636 382.242L633.039 392.636M646.636 382.242L642.65 402.488M646.636 382.242L661.816 386.38M633.039 392.636L624.749 397.73M633.039 392.636L630.856 410.681M633.039 392.636L642.65 402.488M624.749 397.73L610.06 406.348M624.749 397.73L630.856 410.681M610.06 406.348L610.738 414.088M610.06 406.348L630.856 410.681M610.738 414.088L618.472 424.019M610.738 414.088L630.856 410.681M618.472 424.019L633.018 424.461M618.472 424.019L630.856 410.681M633.018 424.461L644.197 422.078M633.018 424.461L630.856 410.681M644.197 422.078L652.921 413.046M644.197 422.078L630.856 410.681M644.197 422.078L642.65 402.488M652.921 413.046L669.729 401.903M652.921 413.046L659.485 402.488M652.921 413.046L642.65 402.488M669.729 401.903L692.522 393.199M669.729 401.903L681.39 390.531M669.729 401.903L661.816 386.38M669.729 401.903L659.485 402.488M692.522 393.199L709.237 384.559M692.522 393.199L681.39 390.531M692.522 393.199L701.62 371.574M709.237 384.559L746.193 377.356M709.237 384.559L701.62 371.574M709.237 384.559L722.72 374.643M709.237 384.559L719.866 352.742M746.193 377.356L725.488 388.44M746.193 377.356L772.035 368.666M746.193 377.356L741.917 355.15M746.193 377.356L722.72 374.643M746.193 377.356L776.803 383.01M746.193 377.356L766.03 390.037M746.193 377.356L751.277 392.577M725.488 388.44L714.58 393.919M725.488 388.44L737.003 392.636M714.58 393.919L703.672 399.398M714.58 393.919L737.003 392.636M714.58 393.919L739.842 404.498M714.58 393.919L725.31 416.691M714.58 393.919L714.795 414.18M714.58 393.919L703.002 413.046M703.672 399.398L690.896 408.473M703.672 399.398L703.002 413.046M690.896 408.473L672.476 413.674M690.896 408.473L703.002 413.046M690.896 408.473L690.589 424.567M690.896 408.473L681.39 419.035M672.476 413.674L670.764 420.843M672.476 413.674L681.39 419.035M670.764 420.843L678.954 428.862M670.764 420.843L681.39 419.035M678.954 428.862L692.679 430.624M678.954 428.862L690.589 424.567M678.954 428.862L681.39 419.035M692.679 430.624L707.618 423.076M692.679 430.624L690.589 424.567M707.618 423.076L725.31 416.691M707.618 423.076L714.795 414.18M725.31 416.691L752.269 407.466M725.31 416.691L739.842 404.498M725.31 416.691L714.795 414.18M752.269 407.466L772.351 401.651M752.269 407.466L747.561 401.794M752.269 407.466L739.842 404.498M772.351 401.651L776.803 383.01M772.351 401.651L805.96 432.285M772.351 401.651L751.277 392.577M772.351 401.651L747.561 401.794M772.351 401.651L772.035 401.071M831.686 455.733L821.798 467.519M831.686 455.733L805.96 432.285M831.686 455.733L827.74 432.056M831.686 455.733L839.547 443.969M831.686 455.733L853.451 451.331M821.798 467.519L806.767 477.571M821.798 467.519L831.358 469.801M821.798 467.519L853.451 451.331M821.798 467.519L816.191 478.305M806.767 477.571L787.006 479.925M806.767 477.571L799.933 485.033M806.767 477.571L816.191 478.305M787.006 479.925L760.639 488.786M787.006 479.925L799.933 485.033M760.639 488.786L739.094 502.84M760.639 488.786L737.903 514.176M760.639 488.786L770.334 492.617M760.639 488.786L799.933 485.033M739.094 502.84L726.61 517.037M739.094 502.84L737.903 514.176M726.61 517.037L720.432 530.214M726.61 517.037L737.903 514.176M726.61 517.037L729.906 524.392M720.432 530.214L721.881 543.19M720.432 530.214L729.906 524.392M721.881 543.19L728.843 547.885M721.881 543.19L729.906 524.392M721.881 543.19L732.539 536.641M728.843 547.885L746.193 542.933M728.843 547.885L732.539 536.641M728.843 547.885L743.218 532.118M746.193 542.933L760.632 533.245M746.193 542.933L743.218 532.118M760.632 533.245L771.833 532.888M760.632 533.245L743.218 532.118M760.632 533.245L749.853 517.03M760.632 533.245L774.187 518.799M771.833 532.888L783.582 528.115M771.833 532.888L774.187 518.799M783.582 528.115L798.128 528.558M783.582 528.115L798.635 520.089M783.582 528.115L774.187 518.799M798.128 528.558L816.142 518.712M798.128 528.558L798.635 520.089M816.142 518.712L841.917 510.215M816.142 518.712L830.745 501.99M816.142 518.712L798.635 520.089M841.917 510.215L864.638 506.042M841.917 510.215L864.759 494.955M841.917 510.215L830.745 501.99M864.638 506.042L880.39 507.782M864.638 506.042L864.759 494.955M880.39 507.782L898.154 496.867M880.39 507.782L864.759 494.955M898.154 496.867L933.716 489.697M898.154 496.867L919.334 482.22M898.154 496.867L905.979 470.442M898.154 496.867L864.759 494.955M933.716 489.697L971.583 474.993M933.716 489.697L919.334 482.22M971.583 474.993L1003.83 458.442M971.583 474.993L985.758 451.6M971.583 474.993L919.334 482.22M1003.83 458.442L1019.66 445.044M1003.83 458.442L985.758 451.6M1019.66 445.044L1046.85 434.863M1019.66 445.044L1036.77 428.414M1019.66 445.044L985.758 451.6M1019.66 445.044L991.422 423.649M1046.85 434.863L1062.44 433.029M1046.85 434.863L1036.77 428.414M1062.44 433.029L1083.32 423.869M1062.44 433.029L1076.66 413.689M1062.44 433.029L1036.77 428.414M1083.32 423.869L1121.23 413.217L1076.66 413.689M1076.66 413.689L1047.27 407.683M1076.66 413.689L1036.77 428.414M1036.77 428.414L1047.27 407.683M985.758 451.6L991.422 423.649M985.758 451.6L943.603 444.06M991.422 423.649L957.008 415.431M919.334 482.22L943.603 444.06M919.334 482.22L905.979 470.442M943.603 444.06L957.008 415.431M943.603 444.06L916.594 425.99M943.603 444.06L893.173 454.248M943.603 444.06L905.979 470.442M957.008 415.431L916.594 425.99M957.008 415.431L953.776 380.304M916.594 425.99L953.776 380.304M916.594 425.99L905.714 389.036M916.594 425.99L893.173 454.248M916.594 425.99L883.592 416.089M953.776 380.304L905.714 389.036M905.714 389.036L878.526 365.366M905.714 389.036L878.013 384.443M905.714 389.036L883.592 416.089M878.526 365.366L851.781 361.001M878.526 365.366L878.013 384.443M878.526 365.366L865.842 371.937M851.781 361.001L865.842 371.937M851.781 361.001L825.949 367.014M878.013 384.443L865.842 371.937M878.013 384.443L819.086 402.707M878.013 384.443L838.769 415.49M878.013 384.443L883.592 416.089M865.842 371.937L819.086 402.707M865.842 371.937L818.065 386.38M865.842 371.937L825.949 367.014M819.086 402.707L818.065 386.38M819.086 402.707L796.899 389.83M819.086 402.707L827.74 432.056M819.086 402.707L838.769 415.49M819.086 402.707L794.474 408.45M818.065 386.38L825.949 367.014M818.065 386.38L796.899 389.83M818.065 386.38L798.921 375.942M825.949 367.014L796.72 350.379M825.949 367.014L796.899 362.001M825.949 367.014L798.921 375.942M755.999 343.181L796.72 350.379M755.999 343.181L772.035 356.625M755.999 343.181L741.917 355.15M755.999 343.181L722.72 337.067M796.72 350.379L796.899 362.001M796.72 350.379L772.035 356.625M796.899 362.001L772.035 368.666M796.899 362.001L772.035 356.625M796.899 362.001L798.921 375.942M772.035 356.625L772.035 368.666M772.035 356.625L741.917 355.15M772.035 368.666L798.921 375.942M772.035 368.666L776.803 383.01M772.035 368.666L741.917 355.15M798.921 375.942L796.899 389.83M798.921 375.942L776.803 383.01M796.899 389.83L776.803 383.01M796.899 389.83L794.474 408.45M776.803 383.01L794.474 408.45M776.803 383.01L766.03 390.037M741.917 355.15L719.866 352.742M741.917 355.15L722.72 374.643M741.917 355.15L722.72 337.067M722.72 337.067L719.866 352.742M722.72 337.067L695.161 327.138M722.72 337.067L705.049 349.203M695.161 327.138L684.367 332.139M695.161 327.138L705.049 349.203M695.161 327.138L687.313 351.536M719.866 352.742L722.72 374.643M719.866 352.742L692.522 362.001M719.866 352.742L705.049 349.203M719.866 352.742L701.62 371.574M618.472 330.088L638.203 345.322M618.472 330.088L635.135 320.383M618.472 330.088L638.203 328.694M618.472 330.088L601.863 320.383M635.135 320.383L638.203 328.694M657.785 320.739L653.953 339.23M684.367 332.139L672.603 358.128M684.367 332.139L687.313 351.536M684.367 332.139L667.713 343.181M672.603 358.128L687.313 351.536M672.603 358.128L667.713 343.181M672.603 358.128L692.522 362.001M672.603 358.128L649.039 358.128M672.603 358.128L678.954 374.007M687.313 351.536L705.049 349.203M687.313 351.536L692.522 362.001M705.049 349.203L692.522 362.001M653.953 339.23L638.203 328.694M653.953 339.23L667.713 343.181M653.953 339.23L638.203 345.322M653.953 339.23L649.039 358.128M638.203 328.694L638.203 345.322M638.203 345.322L649.039 358.128M638.203 345.322L626.925 359.578M667.713 343.181L649.039 358.128M692.522 362.001L678.954 374.007M692.522 362.001L701.62 371.574M794.474 408.45L805.96 432.285M794.474 408.45L772.035 401.071M794.474 408.45L827.74 432.056M805.96 432.285L827.74 432.056M827.74 432.056L838.769 415.49M827.74 432.056L839.547 443.969M838.769 415.49L883.592 416.089M838.769 415.49L839.547 443.969M839.547 443.969L883.592 416.089M839.547 443.969L853.451 451.331M883.592 416.089L854.786 464.786M883.592 416.089L893.173 454.248M883.592 416.089L853.451 451.331M893.173 454.248L854.786 464.786M893.173 454.248L905.979 470.442M854.786 464.786L853.451 451.331M854.786 464.786L905.979 470.442M854.786 464.786L864.759 494.955M854.786 464.786L831.358 469.801M853.451 451.331L831.358 469.801M831.358 469.801L824.766 488.942M831.358 469.801L864.759 494.955M831.358 469.801L816.191 478.305M905.979 470.442L864.759 494.955M864.759 494.955L830.745 501.99M864.759 494.955L799.933 485.033M830.745 501.99L824.766 488.942M830.745 501.99L770.334 492.617M830.745 501.99L791.222 506.699M830.745 501.99L798.635 520.089M824.766 488.942L816.191 478.305M816.191 478.305L799.933 485.033M799.933 485.033L770.334 492.617M770.334 492.617L749.853 517.03M770.334 492.617L737.903 514.176M770.334 492.617L791.222 506.699M749.853 517.03L743.218 532.118M749.853 517.03L729.906 524.392M749.853 517.03L737.903 514.176M749.853 517.03L791.222 506.699M749.853 517.03L774.187 518.799M743.218 532.118L729.906 524.392M743.218 532.118L732.539 536.641M729.906 524.392L737.903 514.176M729.906 524.392L732.539 536.641M791.222 506.699L798.635 520.089M791.222 506.699L774.187 518.799M798.635 520.089L774.187 518.799M766.03 390.037L772.035 401.071M751.277 392.577L737.003 392.636M751.277 392.577L747.561 401.794M737.003 392.636L739.842 404.498M737.003 392.636L747.561 401.794M739.842 404.498L747.561 401.794M714.795 414.18L703.002 413.046M703.002 413.046L690.589 424.567M690.589 424.567L681.39 419.035M681.39 390.531L684.367 383.01M681.39 390.531L661.816 386.38M684.367 383.01L661.816 386.38M684.367 383.01L678.954 374.007M684.367 383.01L701.62 371.574M661.816 386.38L659.485 402.488M661.816 386.38L678.954 374.007M661.816 386.38L642.65 402.488M642.65 402.488L630.856 410.681M642.65 402.488L659.485 402.488M678.954 374.007L701.62 371.574M626.925 359.578L649.039 358.128M626.925 359.578L600.365 368.666M600.365 368.666L575.326 366.042" stroke="#111429"/>
    <path d="M160.453 629.061L142.525 647.01L193.612 642.537M160.453 629.061L177.153 607.787M160.453 629.061L135.12 623.012L177.153 607.787M160.453 629.061L193.612 642.537M160.453 629.061L205.44 622.626M177.153 607.787L205.44 622.626M177.153 607.787L227.441 606.659M177.153 607.787L202.828 578.552M205.44 622.626L193.612 642.537M205.44 622.626L227.441 606.659M205.44 622.626L225.7 622.411M193.612 642.537L225.7 622.411M193.612 642.537L220.592 635.338M227.441 606.659L225.7 622.411M227.441 606.659L259.95 603.812M227.441 606.659L202.828 578.552M227.441 606.659L230.5 557.877M227.441 606.659L253.058 560.737M225.7 622.411L220.592 635.338M225.7 622.411L259.95 603.812M225.7 622.411L245.026 623.995M220.592 635.338L245.026 623.995M245.026 623.995L259.95 603.812M245.026 623.995L286.189 616.646M259.95 603.812L253.058 560.737M259.95 603.812L286.189 616.646M259.95 603.812L330.391 592.34M259.95 603.812L302.24 579.05M202.828 578.552L230.5 557.877M202.828 578.552L149.466 581.977L179.357 545.664M202.828 578.552L172.693 535.484M202.828 578.552L208.742 551.671M230.5 557.877L208.742 551.671M230.5 557.877L219.25 530.939M230.5 557.877L236.357 514.31M230.5 557.877L264.593 535.704M230.5 557.877L253.058 560.737M253.058 560.737L264.593 535.704M253.058 560.737L299.008 543.922M253.058 560.737L302.24 579.05M286.189 616.646L330.391 592.34M286.189 616.646L338.531 606.914M286.189 616.646L380.158 620.896M330.391 592.34L338.531 606.914M330.391 592.34L302.24 579.05M330.391 592.34L350.302 570.317M330.391 592.34L377.49 593.987M338.531 606.914L380.158 620.896M338.531 606.914L377.49 593.987M338.531 606.914L404.235 598.353M380.158 620.896L424.403 613.54M380.158 620.896L419.695 628.822M380.158 620.896L404.235 598.353M424.403 613.54L404.235 598.353M424.403 613.54L437.951 630.655M424.403 613.54L430.067 592.34M424.403 613.54L470.46 627.808M424.403 613.54L459.295 608.974M424.403 613.54L419.695 628.822M419.695 628.822L437.951 630.655M437.951 630.655L470.46 627.808M470.46 627.808L508.499 629.313M470.46 627.808L500.016 616.172M470.46 627.808L459.295 608.974M508.499 629.313L523.359 636.903M508.499 629.313L500.016 616.172M508.499 629.313L533.296 622.287M523.359 636.903L536.514 641.055L549.855 640.199M523.359 636.903L533.296 622.287M549.855 640.199L566.562 642.167M549.855 640.199L560.855 632.215M549.855 640.199L533.296 622.287M566.562 642.167L587.187 642.545M566.562 642.167L560.855 632.215M566.562 642.167L571.649 627.214M587.187 642.545L608.653 643.629M587.187 642.545L598.23 638.614M587.187 642.545L571.649 627.214M587.187 642.545L602.063 620.124M587.187 642.545L588.303 616.172M608.653 643.629L628.25 648.309M608.653 643.629L620.881 638.97M608.653 643.629L598.23 638.614M608.653 643.629L617.813 630.659M608.653 643.629L602.063 620.124M628.25 648.309L639.814 648.544M628.25 648.309L637.544 629.265M628.25 648.309L620.881 638.97M639.814 648.544L652.47 650.556M639.814 648.544L637.544 629.265M652.47 650.556L669.385 649.542M652.47 650.556L637.544 629.265M652.47 650.556L654.153 638.97M669.385 649.542L673.101 640.325L668.6 631.672M669.385 649.542L654.153 638.97M669.385 649.542L668.6 631.672M669.385 649.542L658.134 622.604M668.6 631.672L658.134 622.604M658.134 622.604L633.122 614.031M658.134 622.604L654.153 638.97M658.134 622.604L637.544 629.265M633.122 614.031L658.134 606.612M633.122 614.031L637.544 629.265M633.122 614.031L617.813 614.031M633.122 614.031L629.091 599.775M658.134 606.612L629.091 599.775M658.134 606.612L675.106 604.427M658.134 606.612L680.689 593.312M658.134 606.612L655.651 590.687M675.106 604.427L697.941 599.775M675.106 604.427L680.689 593.312M697.941 599.775L700.495 593.312L699.66 581.997M697.941 599.775L680.689 593.312M699.66 581.997L689.808 574.592M699.66 581.997L680.689 593.312M689.808 574.592L669.385 572.973M689.808 574.592L680.689 593.312M669.385 572.973L652.47 576.343M669.385 572.973L680.689 593.312M669.385 572.973L655.651 590.687M652.47 576.343L633.122 579.244M652.47 576.343L655.651 590.687M633.122 579.244L610.036 582.826M633.122 579.244L629.091 599.775M633.122 579.244L655.651 590.687M610.036 582.826L599.792 583.411M610.036 582.826L596.531 591.918L583.412 601.225M610.036 582.826L629.091 599.775M610.036 582.826L606.977 601.225M599.792 583.411L609.38 577.112M599.792 583.411L577.062 585.346M599.792 583.411L594.2 572.973M609.38 577.112L622.977 566.717M609.38 577.112L613.365 556.866M609.38 577.112L594.2 572.973M622.977 566.717L631.267 561.624M622.977 566.717L625.159 548.673M622.977 566.717L613.365 556.866M631.267 561.624L645.955 553.005M631.267 561.624L625.159 548.673M645.955 553.005L645.277 545.265M645.955 553.005L625.159 548.673M645.277 545.265L637.544 535.335M645.277 545.265L625.159 548.673M637.544 535.335L622.998 534.893M637.544 535.335L625.159 548.673M622.998 534.893L611.819 537.276M622.998 534.893L625.159 548.673M611.819 537.276L603.094 546.307M611.819 537.276L625.159 548.673M611.819 537.276L613.365 556.866M603.094 546.307L586.287 557.451M603.094 546.307L596.531 556.866M603.094 546.307L613.365 556.866M586.287 557.451L563.494 566.155M586.287 557.451L574.626 568.822M586.287 557.451L594.2 572.973M586.287 557.451L596.531 556.866M563.494 566.155L546.779 574.794M563.494 566.155L574.626 568.822M563.494 566.155L554.395 587.779M546.779 574.794L509.822 581.997M546.779 574.794L554.395 587.779M546.779 574.794L533.296 584.711M546.779 574.794L536.15 606.612M509.822 581.997L530.528 570.914M509.822 581.997L483.98 590.687M509.822 581.997L514.099 604.203M509.822 581.997L533.296 584.711M509.822 581.997L479.213 576.343M509.822 581.997L489.985 569.316M509.822 581.997L504.738 566.776M530.528 570.914L541.435 565.434M530.528 570.914L519.013 566.717M541.435 565.434L552.343 559.955M541.435 565.434L519.013 566.717M541.435 565.434L516.174 554.855M541.435 565.434L530.706 542.663M541.435 565.434L541.221 545.174M541.435 565.434L553.014 546.307M552.343 559.955L565.12 550.881M552.343 559.955L553.014 546.307M565.12 550.881L583.54 545.68M565.12 550.881L553.014 546.307M565.12 550.881L565.427 534.786M565.12 550.881L574.626 540.319M583.54 545.68L585.252 538.51M583.54 545.68L574.626 540.319M585.252 538.51L577.062 530.492M585.252 538.51L574.626 540.319M577.062 530.492L563.336 528.73M577.062 530.492L565.427 534.786M577.062 530.492L574.626 540.319M563.336 528.73L548.398 536.278M563.336 528.73L565.427 534.786M548.398 536.278L530.706 542.663M548.398 536.278L541.221 545.174M530.706 542.663L503.746 551.888M530.706 542.663L516.174 554.855M530.706 542.663L541.221 545.174M503.746 551.888L483.664 557.702M503.746 551.888L508.455 557.559M503.746 551.888L516.174 554.855M483.664 557.702L479.213 576.343M483.664 557.702L450.055 527.068M483.664 557.702L504.738 566.776M483.664 557.702L508.455 557.559M483.664 557.702L483.98 558.283M424.33 503.62L434.218 491.835M424.33 503.62L450.055 527.068M424.33 503.62L428.276 527.298M424.33 503.62L416.469 515.384M424.33 503.62L402.564 508.022M434.218 491.835L449.249 481.783M434.218 491.835L424.658 489.552M434.218 491.835L402.564 508.022M434.218 491.835L439.825 481.048M449.249 481.783L469.01 479.428M449.249 481.783L456.083 474.32M449.249 481.783L439.825 481.048M469.01 479.428L495.377 470.567M469.01 479.428L456.083 474.32M495.377 470.567L516.921 456.513M495.377 470.567L518.113 445.177M495.377 470.567L485.682 466.737M495.377 470.567L456.083 474.32M516.921 456.513L529.406 442.316M516.921 456.513L518.113 445.177M529.406 442.316L535.583 429.14M529.406 442.316L518.113 445.177M529.406 442.316L526.11 434.961M535.583 429.14L534.135 416.163M535.583 429.14L526.11 434.961M534.135 416.163L527.172 411.469M534.135 416.163L526.11 434.961M534.135 416.163L523.477 422.712M527.172 411.469L509.822 416.42M527.172 411.469L523.477 422.712M527.172 411.469L512.797 427.235M509.822 416.42L495.383 426.108M509.822 416.42L512.797 427.235M495.383 426.108L484.183 426.465M495.383 426.108L512.797 427.235M495.383 426.108L506.163 442.324M495.383 426.108L481.829 440.555M484.183 426.465L472.433 431.238M484.183 426.465L481.829 440.555M472.433 431.238L457.887 430.796M472.433 431.238L457.381 439.264M472.433 431.238L481.829 440.555M457.887 430.796L439.874 440.641M457.887 430.796L457.381 439.264M439.874 440.641L414.099 449.138M439.874 440.641L425.271 457.363M439.874 440.641L457.381 439.264M414.099 449.138L391.377 453.312M414.099 449.138L391.256 464.398M414.099 449.138L425.271 457.363M391.377 453.312L375.626 451.571M391.377 453.312L391.256 464.398M375.626 451.571L357.862 462.487M375.626 451.571L391.256 464.398M357.862 462.487L322.299 469.657M357.862 462.487L336.681 477.133M357.862 462.487L350.036 488.911M357.862 462.487L391.256 464.398M322.299 469.657L284.432 484.361M322.299 469.657L336.681 477.133M284.432 484.361L252.187 500.912M284.432 484.361L270.257 507.753M284.432 484.361L336.681 477.133M252.187 500.912L236.357 514.31M252.187 500.912L270.257 507.753M236.357 514.31L209.169 524.49M236.357 514.31L219.25 530.939M236.357 514.31L270.257 507.753M236.357 514.31L264.593 535.704M209.169 524.49L193.574 526.324M209.169 524.49L219.25 530.939M193.574 526.324L172.693 535.484M193.574 526.324L179.357 545.664M193.574 526.324L219.25 530.939M172.693 535.484L134.784 546.136L179.357 545.664M179.357 545.664L208.742 551.671M179.357 545.664L219.25 530.939M219.25 530.939L208.742 551.671M270.257 507.753L264.593 535.704M270.257 507.753L312.412 515.293M264.593 535.704L299.008 543.922M336.681 477.133L312.412 515.293M336.681 477.133L350.036 488.911M312.412 515.293L299.008 543.922M312.412 515.293L339.422 533.363M312.412 515.293L362.842 505.105M312.412 515.293L350.036 488.911M299.008 543.922L339.422 533.363M299.008 543.922L302.24 579.05M339.422 533.363L302.24 579.05M339.422 533.363L350.302 570.317M339.422 533.363L362.842 505.105M339.422 533.363L372.424 543.265M302.24 579.05L350.302 570.317M350.302 570.317L377.49 593.987M350.302 570.317L378.003 574.911M350.302 570.317L372.424 543.265M377.49 593.987L404.235 598.353M377.49 593.987L378.003 574.911M377.49 593.987L390.174 587.417M404.235 598.353L390.174 587.417M404.235 598.353L430.067 592.34M378.003 574.911L390.174 587.417M378.003 574.911L436.929 556.647M378.003 574.911L417.247 543.863M378.003 574.911L372.424 543.265M390.174 587.417L436.929 556.647M390.174 587.417L437.951 572.973M390.174 587.417L430.067 592.34M436.929 556.647L437.951 572.973M436.929 556.647L459.116 569.523M436.929 556.647L428.276 527.298M436.929 556.647L417.247 543.863M436.929 556.647L461.542 550.904M437.951 572.973L430.067 592.34M437.951 572.973L459.116 569.523M437.951 572.973L457.095 583.411M430.067 592.34L459.295 608.974M430.067 592.34L459.116 597.352M430.067 592.34L457.095 583.411M500.016 616.172L459.295 608.974M500.016 616.172L483.98 602.729M500.016 616.172L514.099 604.203M500.016 616.172L533.296 622.287M459.295 608.974L459.116 597.352M459.295 608.974L483.98 602.729M459.116 597.352L483.98 590.687M459.116 597.352L483.98 602.729M459.116 597.352L457.095 583.411M483.98 602.729L483.98 590.687M483.98 602.729L514.099 604.203M483.98 590.687L457.095 583.411M483.98 590.687L479.213 576.343M483.98 590.687L514.099 604.203M457.095 583.411L459.116 569.523M457.095 583.411L479.213 576.343M459.116 569.523L479.213 576.343M459.116 569.523L461.542 550.904M479.213 576.343L461.542 550.904M479.213 576.343L489.985 569.316M514.099 604.203L536.15 606.612M514.099 604.203L533.296 584.711M514.099 604.203L533.296 622.287M533.296 622.287L536.15 606.612M533.296 622.287L560.855 632.215M533.296 622.287L550.967 610.15M560.855 632.215L571.649 627.214M560.855 632.215L550.967 610.15M560.855 632.215L568.702 607.817M536.15 606.612L533.296 584.711M536.15 606.612L563.494 597.352M536.15 606.612L550.967 610.15M536.15 606.612L554.395 587.779M637.544 629.265L617.813 614.031M637.544 629.265L620.881 638.97M637.544 629.265L617.813 630.659M637.544 629.265L654.153 638.97M620.881 638.97L617.813 630.659M598.23 638.614L602.063 620.124M571.649 627.214L583.412 601.225M571.649 627.214L568.702 607.817M571.649 627.214L588.303 616.172M583.412 601.225L568.702 607.817M583.412 601.225L588.303 616.172M583.412 601.225L563.494 597.352M583.412 601.225L606.977 601.225M583.412 601.225L577.062 585.346M568.702 607.817L550.967 610.15M568.702 607.817L563.494 597.352M550.967 610.15L563.494 597.352M602.063 620.124L617.813 630.659M602.063 620.124L588.303 616.172M602.063 620.124L617.813 614.031M602.063 620.124L606.977 601.225M617.813 630.659L617.813 614.031M617.813 614.031L606.977 601.225M617.813 614.031L629.091 599.775M588.303 616.172L606.977 601.225M563.494 597.352L577.062 585.346M563.494 597.352L554.395 587.779M461.542 550.904L450.055 527.068M461.542 550.904L483.98 558.283M461.542 550.904L428.276 527.298M450.055 527.068L428.276 527.298M428.276 527.298L417.247 543.863M428.276 527.298L416.469 515.384M417.247 543.863L372.424 543.265M417.247 543.863L416.469 515.384M416.469 515.384L372.424 543.265M416.469 515.384L402.564 508.022M372.424 543.265L401.23 494.568M372.424 543.265L362.842 505.105M372.424 543.265L402.564 508.022M362.842 505.105L401.23 494.568M362.842 505.105L350.036 488.911M401.23 494.568L402.564 508.022M401.23 494.568L350.036 488.911M401.23 494.568L391.256 464.398M401.23 494.568L424.658 489.552M402.564 508.022L424.658 489.552M424.658 489.552L431.25 470.411M424.658 489.552L391.256 464.398M424.658 489.552L439.825 481.048M350.036 488.911L391.256 464.398M391.256 464.398L425.271 457.363M391.256 464.398L456.083 474.32M425.271 457.363L431.25 470.411M425.271 457.363L485.682 466.737M425.271 457.363L464.793 452.654M425.271 457.363L457.381 439.264M431.25 470.411L439.825 481.048M439.825 481.048L456.083 474.32M456.083 474.32L485.682 466.737M485.682 466.737L506.163 442.324M485.682 466.737L518.113 445.177M485.682 466.737L464.793 452.654M506.163 442.324L512.797 427.235M506.163 442.324L526.11 434.961M506.163 442.324L518.113 445.177M506.163 442.324L464.793 452.654M506.163 442.324L481.829 440.555M512.797 427.235L526.11 434.961M512.797 427.235L523.477 422.712M526.11 434.961L518.113 445.177M526.11 434.961L523.477 422.712M464.793 452.654L457.381 439.264M464.793 452.654L481.829 440.555M457.381 439.264L481.829 440.555M489.985 569.316L483.98 558.283M504.738 566.776L519.013 566.717M504.738 566.776L508.455 557.559M519.013 566.717L516.174 554.855M519.013 566.717L508.455 557.559M516.174 554.855L508.455 557.559M541.221 545.174L553.014 546.307M553.014 546.307L565.427 534.786M565.427 534.786L574.626 540.319M574.626 568.822L571.649 576.343M574.626 568.822L594.2 572.973M571.649 576.343L594.2 572.973M571.649 576.343L577.062 585.346M571.649 576.343L554.395 587.779M594.2 572.973L596.531 556.866M594.2 572.973L577.062 585.346M594.2 572.973L613.365 556.866M613.365 556.866L625.159 548.673M613.365 556.866L596.531 556.866M577.062 585.346L554.395 587.779M629.091 599.775L606.977 601.225M629.091 599.775L655.651 590.687M655.651 590.687L680.689 593.312" stroke="#111429"/>
    <path d="M831.355 346.305L797.447 350.728L825.458 366.453L831.355 346.305Z" fill="#153132"/>
    <path d="M1216.59 418.951L1175.8 408.681L1214.93 394.001L1216.59 418.951Z" stroke="#111429"/>
    <path d="M1146.06 443.466C1137.95 446.413 1121.17 451.142 1119.33 451.735L1141.15 464.02L1146.06 443.466Z" fill="#F2E5C4"/>
    <path d="M1171.52 252.33L1147.4 293.156L1192.97 272.055L1171.52 252.33Z" fill="#55469B"/>
    <path d="M884.185 415.725L905.601 389.515L915.753 425.284L884.185 415.725Z" fill="#55469B"/>
    <path d="M687.908 351.171L695.413 328.207L704.573 349.088L687.908 351.171Z" fill="#F2E5C4"/>
    <path d="M773.059 400.808L777.054 384.079L793.155 407.628L773.059 400.808Z" fill="#55469B"/>
    <path d="M854.672 465.262L832.792 470.142L864.033 493.769L854.672 465.262Z" fill="#F2E5C4"/>
    <path d="M986.351 451.236L991.787 424.241L1018.7 444.815L986.351 451.236Z" fill="#153132"/>
    <path d="M1029.61 337.783L998.208 355.041L1028.33 351.623L1029.61 337.783Z" fill="#F2E5C4"/>
    <path d="M1163.37 351.643L1127.22 349.72L1158.61 378.734L1163.37 351.643Z" fill="#153132"/>
    <path d="M36.4515 599.48C40.5667 591.086 49.7186 575.135 51.0914 572.915L24.8206 580.153L36.4515 599.48Z" stroke="#111429"/>
    <path d="M64.777 535.9L98.4528 527.439L67.3771 516.232L64.777 535.9Z" stroke="#111429"/>
    <path d="M88.8414 576.092L88.8248 606.229L123.866 596.348L88.8414 576.092Z" stroke="#111429"/>
</svg>